<svg width="81" height="81" viewBox="0 0 81 81" fill="none" xmlns="http://www.w3.org/2000/svg">
<path d="M40.153 76.7247C36.5398 76.7404 33.0664 75.3291 30.488 72.7977L7.24002 49.9967C5.97471 48.7632 4.96912 47.2889 4.28252 45.6607C3.59591 44.0325 3.24219 42.2833 3.24219 40.5162C3.24219 38.7491 3.59591 37 4.28252 35.3717C4.96912 33.7435 5.97471 32.2692 7.24002 31.0357L30.486 8.23572C33.0733 5.71759 36.5411 4.30859 40.1515 4.30859C43.7619 4.30859 47.2298 5.71759 49.817 8.23572L73.063 31.0357C74.3281 32.2694 75.3334 33.7437 76.0199 35.3719C76.7063 37.0001 77.06 38.7492 77.06 40.5162C77.06 42.2832 76.7063 44.0323 76.0199 45.6605C75.3334 47.2887 74.3281 48.7631 73.063 49.9967L49.817 72.7967C47.2389 75.328 43.766 76.7396 40.153 76.7247Z" fill="url(#paint0_linear)"/>
<path d="M9.09539 31.1554L30.8389 9.93367C33.3379 7.5169 36.6784 6.16594 40.1548 6.16607C43.6313 6.1662 46.9717 7.51742 49.4705 9.93438L71.2133 31.1568C72.4336 32.3357 73.404 33.7482 74.0668 35.3101C74.7296 36.872 75.0712 38.5513 75.0712 40.248C75.0712 41.9448 74.7296 43.6241 74.0668 45.186C73.404 46.7479 72.4336 48.1604 71.2133 49.3393L49.4698 70.561C46.9711 72.9779 43.6309 74.3291 40.1546 74.3293C36.6783 74.3296 33.338 72.9789 30.8389 70.5624L9.09539 49.3407C7.8747 48.1618 6.90388 46.7491 6.24083 45.187C5.57779 43.6248 5.23607 41.9451 5.23607 40.248C5.23607 38.551 5.57779 36.8713 6.24083 35.3091C6.90388 33.747 7.8747 32.3343 9.09539 31.1554Z" fill="url(#paint1_linear)"/>
<path style="mix-blend-mode:multiply" d="M42.7496 66.8039C55.6504 66.8039 66.1086 56.3458 66.1086 43.4449C66.1086 30.5441 55.6504 20.0859 42.7496 20.0859C29.8488 20.0859 19.3906 30.5441 19.3906 43.4449C19.3906 56.3458 29.8488 66.8039 42.7496 66.8039Z" fill="url(#paint2_radial)"/>
<path d="M48.8398 61.7842C60.1955 56.988 65.5131 43.8944 60.717 32.5387C55.9208 21.183 42.8272 15.8654 31.4715 20.6615C20.1158 25.4577 14.7982 38.5513 19.5943 49.907C24.3905 61.2627 37.4841 66.5803 48.8398 61.7842Z" fill="url(#paint3_linear)"/>
<path style="mix-blend-mode:screen" opacity="0.41" d="M70.6076 29.0992L49.8206 8.31221C48.5513 7.04291 47.0444 6.03605 45.386 5.34911C43.7276 4.66216 41.9501 4.30859 40.1551 4.30859C38.36 4.30859 36.5826 4.66216 34.9242 5.34911C33.2657 6.03605 31.7589 7.04291 30.4896 8.31221L7.24159 31.5542C5.3157 33.4852 4.01068 35.9475 3.49397 38.6254C2.97726 41.3032 3.27242 44.0743 4.34159 46.5832C9.48047 47.5119 14.6925 47.9765 19.9146 47.9712C41.1946 47.9722 59.8986 40.4542 70.6076 29.0992Z" fill="url(#paint4_radial)"/>
<path fill-rule="evenodd" clip-rule="evenodd" d="M42.2495 33.6708C42.9025 33.6488 43.5495 33.6708 44.2075 33.6648H44.4765V30.2708C44.1285 30.2358 43.7645 30.1858 43.3995 30.1708C42.7295 30.1418 42.0605 30.1078 41.3885 30.1228C40.3757 30.1165 39.3857 30.4228 38.5535 30.9998C38.095 31.3343 37.7083 31.7573 37.4162 32.244C37.1242 32.7306 36.9329 33.2709 36.8535 33.8328C36.7781 34.3145 36.739 34.8012 36.7365 35.2888C36.7165 36.0498 36.7365 36.8108 36.7365 37.5738V37.8598H33.4805V41.6488H36.7095V51.1778H40.6555V41.6708H43.8745C44.0395 40.4088 44.1995 39.1608 44.3695 37.8618H43.6455C42.7305 37.8618 40.6305 37.8618 40.6305 37.8618C40.6305 37.8618 40.6415 35.9828 40.6635 35.1618C40.6915 34.0468 41.3535 33.7068 42.2495 33.6708Z" fill="white"/>
<defs>
<linearGradient id="paint0_linear" x1="48.6401" y1="82.663" x2="37.3998" y2="24.5757" gradientUnits="userSpaceOnUse">
<stop stop-color="#B3B3B3"/>
<stop offset="0.967" stop-color="#E6E6E6"/>
</linearGradient>
<linearGradient id="paint1_linear" x1="16.6236" y1="16.718" x2="63.523" y2="63.6175" gradientUnits="userSpaceOnUse">
<stop stop-color="white"/>
<stop offset="0.967" stop-color="#E6E6E6"/>
</linearGradient>
<radialGradient id="paint2_radial" cx="0" cy="0" r="1" gradientUnits="userSpaceOnUse" gradientTransform="translate(42.6562 43.3048) scale(22.5181)">
<stop offset="0.014"/>
<stop offset="0.147" stop-color="#030303"/>
<stop offset="0.269" stop-color="#0E0E0E"/>
<stop offset="0.387" stop-color="#212121"/>
<stop offset="0.501" stop-color="#3B3B3B"/>
<stop offset="0.614" stop-color="#5C5C5C"/>
<stop offset="0.725" stop-color="#868686"/>
<stop offset="0.835" stop-color="#B7B7B7"/>
<stop offset="0.941" stop-color="#EEEEEE"/>
<stop offset="0.97" stop-color="white"/>
</radialGradient>
<linearGradient id="paint3_linear" x1="31.4715" y1="20.6615" x2="48.8398" y2="61.7842" gradientUnits="userSpaceOnUse">
<stop stop-color="#E6D1AB"/>
<stop offset="1" stop-color="#8B5E1A"/>
</linearGradient>
<radialGradient id="paint4_radial" cx="0" cy="0" r="1" gradientUnits="userSpaceOnUse" gradientTransform="translate(16.2362 54.9136) scale(42.7336 42.7457)">
<stop offset="0.03" stop-color="white"/>
<stop offset="0.201" stop-color="#C2C2C2"/>
<stop offset="0.415" stop-color="#7E7E7E"/>
<stop offset="0.608" stop-color="#474747"/>
<stop offset="0.774" stop-color="#202020"/>
<stop offset="0.905" stop-color="#080808"/>
<stop offset="0.986"/>
</radialGradient>
</defs>
</svg>
