<svg id="favicon" xmlns="http://www.w3.org/2000/svg" width="32" height="32" viewBox="0 0 32 32"><defs><style>.cls-1{fill:#e0c553;}.cls-2{fill:none;}</style></defs><path class="cls-1" d="M952.05,530.9c2.3,4,4.67,7.78,6.73,11.73a6.63,6.63,0,0,0,10.53,2l1.73,1.82c-2.38,2.84-7.44,3.49-10.91,1.37a8.88,8.88,0,0,1-3.19-3.25q-2.91-5.12-5.89-10.19a1.36,1.36,0,0,1,0-1.75A15.89,15.89,0,0,0,952.05,530.9Z" transform="translate(-940.45 -523.97)"/><path class="cls-1" d="M956.59,549c-1,0-1.73,0-2.49,0a1.06,1.06,0,0,1-.73-.41q-4.29-7.38-8.53-14.77a.92.92,0,0,1,0-.76c.36-.71.78-1.38,1.25-2.18Z" transform="translate(-940.45 -523.97)"/><path class="cls-1" d="M958.77,537.39a16.1,16.1,0,0,0-.94-1.58c-.59-.75-.44-1.28.19-2a9.11,9.11,0,0,1,12.43-.94c.23.19.45.41.69.63l-1.83,1.8a6.49,6.49,0,0,0-5.8-1.71A6.61,6.61,0,0,0,958.77,537.39Z" transform="translate(-940.45 -523.97)"/><path class="cls-1" d="M943.15,536l7.49,13c-1,0-1.82,0-2.66,0a.89.89,0,0,1-.55-.41q-2.79-4.79-5.54-9.59a.78.78,0,0,1-.1-.62C942.19,537.63,942.65,536.89,943.15,536Z" transform="translate(-940.45 -523.97)"/><rect class="cls-2" width="32" height="32"/></svg>