<svg id="favicon" xmlns="http://www.w3.org/2000/svg" width="20" height="20" viewBox="0 0 20 20"><defs><style>.cls-1{fill:#e0c553;}.cls-2{fill:none;}</style></defs><path class="cls-1" d="M953.7,534.3c1.44,2.49,2.92,4.86,4.2,7.33a4.15,4.15,0,0,0,6.59,1.23l1.08,1.14a5.6,5.6,0,0,1-8.82-1.17c-1.21-2.13-2.43-4.26-3.68-6.37a.85.85,0,0,1,0-1.09A11.2,11.2,0,0,0,953.7,534.3Z" transform="translate(-946.45 -529.97)"/><path class="cls-1" d="M956.54,545.64c-.61,0-1.09,0-1.56,0a.63.63,0,0,1-.45-.26q-2.68-4.61-5.33-9.23a.59.59,0,0,1,0-.47c.23-.45.49-.87.79-1.37Z" transform="translate(-946.45 -529.97)"/><path class="cls-1" d="M957.9,538.36a9.25,9.25,0,0,0-.59-1c-.37-.47-.27-.8.12-1.22a5.7,5.7,0,0,1,7.77-.59l.43.39-1.14,1.13a4.05,4.05,0,0,0-3.63-1.07A4.14,4.14,0,0,0,957.9,538.36Z" transform="translate(-946.45 -529.97)"/><path class="cls-1" d="M948.14,537.52l4.68,8.12c-.62,0-1.14,0-1.66,0a.56.56,0,0,1-.35-.26c-1.16-2-2.32-4-3.46-6a.46.46,0,0,1-.06-.39C947.54,538.51,947.83,538.05,948.14,537.52Z" transform="translate(-946.45 -529.97)"/><rect class="cls-2" width="20" height="20"/></svg>