<svg width="81" height="81" viewBox="0 0 81 81" fill="none" xmlns="http://www.w3.org/2000/svg">
<path d="M40.7682 76.7257C37.155 76.7413 33.6816 75.3301 31.1032 72.7987L7.85721 49.9987C6.5919 48.7652 5.58632 47.2909 4.89972 45.6626C4.21312 44.0344 3.85938 42.2852 3.85938 40.5182C3.85938 38.7511 4.21312 37.0019 4.89972 35.3737C5.58632 33.7455 6.5919 32.2712 7.85721 31.0377L31.1032 8.23767C33.6905 5.71954 37.1583 4.31055 40.7687 4.31055C44.3791 4.31055 47.8469 5.71954 50.4342 8.23767L73.6802 31.0377C74.9453 32.2713 75.9506 33.7457 76.6371 35.3739C77.3235 37.0021 77.6772 38.7512 77.6772 40.5182C77.6772 42.2852 77.3235 44.0343 76.6371 45.6625C75.9506 47.2907 74.9453 48.765 73.6802 49.9987L50.4342 72.7987C47.8555 75.3301 44.3818 76.7414 40.7682 76.7257Z" fill="url(#paint0_linear)"/>
<path d="M9.70867 31.1554L31.4522 9.93367C33.9512 7.5169 37.2917 6.16594 40.7681 6.16607C44.2446 6.1662 47.5849 7.51742 50.0838 9.93438L71.8266 31.1568C73.0468 32.3357 74.0173 33.7482 74.6801 35.3101C75.3429 36.872 75.6844 38.5513 75.6844 40.248C75.6844 41.9448 75.3429 43.6241 74.6801 45.186C74.0173 46.7479 73.0468 48.1604 71.8266 49.3393L50.0831 70.561C47.5844 72.9779 44.2442 74.3291 40.7679 74.3293C37.2916 74.3296 33.9513 72.9789 31.4522 70.5624L9.70867 49.3407C8.48798 48.1618 7.51717 46.7491 6.85412 45.187C6.19107 43.6248 5.84935 41.9451 5.84936 40.248C5.84935 38.551 6.19107 36.8713 6.85412 35.3091C7.51717 33.747 8.48798 32.3343 9.70867 31.1554Z" fill="url(#paint1_linear)"/>
<path style="mix-blend-mode:multiply" d="M43.3629 66.8039C56.2637 66.8039 66.7219 56.3458 66.7219 43.4449C66.7219 30.5441 56.2637 20.0859 43.3629 20.0859C30.4621 20.0859 20.0039 30.5441 20.0039 43.4449C20.0039 56.3458 30.4621 66.8039 43.3629 66.8039Z" fill="url(#paint2_radial)"/>
<path d="M49.4377 61.7898C60.7968 57.0018 66.1238 43.912 61.3357 32.5528C56.5477 21.1937 43.4579 15.8668 32.0988 20.6548C20.7396 25.4428 15.4127 38.5326 20.2007 49.8917C24.9887 61.2509 38.0786 66.5778 49.4377 61.7898Z" fill="url(#paint3_linear)"/>
<path style="mix-blend-mode:screen" opacity="0.41" d="M71.2196 29.0992L50.4326 8.31221C49.1633 7.04291 47.6564 6.03605 45.998 5.34911C44.3396 4.66216 42.5621 4.30859 40.7671 4.30859C38.972 4.30859 37.1945 4.66216 35.5361 5.34911C33.8777 6.03605 32.3708 7.04291 31.1016 8.31221L7.85357 31.5542C5.92746 33.4844 4.62187 35.9459 4.10427 38.6232C3.58668 41.3004 3.88069 44.0712 4.94857 46.5802C10.0871 47.5089 15.2988 47.9734 20.5206 47.9682C41.8066 47.9722 60.5106 40.4542 71.2196 29.0992Z" fill="url(#paint4_radial)"/>
<path d="M50.9855 36.1937C50.8775 34.8304 50.2725 33.5542 49.2855 32.6077C48.238 31.6311 46.8673 31.0747 45.4355 31.0447C41.9749 30.8462 38.5048 30.8846 35.0495 31.1597C33.964 31.2885 32.9449 31.7498 32.1318 32.4804C31.3186 33.2109 30.7513 34.1751 30.5075 35.2407C30.0075 37.0267 30.1075 45.2657 30.3975 47.0327C30.5298 48.1433 31.0087 49.1839 31.7663 50.0067C32.5239 50.8294 33.5216 51.3924 34.6175 51.6157C36.2745 52.0417 44.4175 51.9887 46.2405 51.6927C47.3512 51.5643 48.3932 51.0895 49.2188 50.3356C50.0445 49.5818 50.6119 48.5871 50.8405 47.4927C51.3225 45.6547 51.1535 37.8487 50.9855 36.1937ZM49.0535 46.6937C48.9638 47.5334 48.5782 48.3137 47.9657 48.8951C47.3532 49.4765 46.5538 49.8209 45.7105 49.8667C44.0155 50.0527 36.4525 50.1547 34.8825 49.7147C34.1952 49.5483 33.5758 49.1743 33.1083 48.6437C32.6408 48.1131 32.348 47.4515 32.2695 46.7487C32.0033 43.2204 32.0033 39.677 32.2695 36.1487C32.3601 35.3133 32.7442 34.5371 33.3534 33.9585C33.9627 33.3798 34.7576 33.0361 35.5965 32.9887C39.0386 32.762 42.4923 32.7757 45.9325 33.0297C46.772 33.1212 47.5515 33.5085 48.1314 34.1223C48.7113 34.7362 49.0538 35.5364 49.0975 36.3797C49.3177 39.8137 49.303 43.2587 49.0535 46.6907V46.6937ZM40.6535 36.0397C39.5885 36.0397 38.5474 36.3554 37.6618 36.947C36.7763 37.5385 36.0859 38.3793 35.6781 39.3632C35.2703 40.347 35.1632 41.4296 35.3706 42.4742C35.5779 43.5188 36.0903 44.4786 36.8429 45.232C37.5956 45.9855 38.5547 46.4989 39.5991 46.7074C40.6435 46.9159 41.7262 46.8101 42.7105 46.4034C43.6948 45.9967 44.5363 45.3073 45.1289 44.4223C45.7214 43.5374 46.0383 42.4967 46.0395 41.4317C46.0413 40.724 45.9036 40.023 45.6341 39.3686C45.3647 38.7143 44.9688 38.1195 44.4691 37.6184C43.9695 37.1173 43.3759 36.7196 42.7224 36.4482C42.0688 36.1768 41.3682 36.0369 40.6605 36.0367L40.6535 36.0397ZM40.6175 44.9107C39.9294 44.9039 39.2586 44.6936 38.6899 44.3061C38.1212 43.9187 37.68 43.3715 37.4219 42.7335C37.1638 42.0956 37.1004 41.3955 37.2397 40.7216C37.379 40.0477 37.7147 39.4301 38.2046 38.9468C38.6945 38.4634 39.3165 38.136 39.9922 38.0058C40.668 37.8756 41.3671 37.9484 42.0015 38.215C42.6359 38.4817 43.1772 38.9302 43.557 39.5041C43.9367 40.078 44.138 40.7515 44.1355 41.4397C44.1343 41.8988 44.0423 42.3532 43.8648 42.7767C43.6873 43.2001 43.4277 43.5843 43.1011 43.907C42.7745 44.2297 42.3872 44.4847 41.9617 44.6571C41.5361 44.8295 41.0806 44.916 40.6215 44.9117L40.6175 44.9107ZM47.5075 35.8387C47.5063 36.0883 47.4311 36.3319 47.2913 36.5387C47.1515 36.7455 46.9535 36.9062 46.7224 37.0004C46.4912 37.0946 46.2373 37.1181 45.9928 37.0678C45.7483 37.0176 45.5242 36.8959 45.3489 36.7182C45.1736 36.5406 45.0549 36.3148 45.008 36.0697C44.9611 35.8245 44.988 35.5709 45.0853 35.3411C45.1826 35.1112 45.3459 34.9154 45.5546 34.7784C45.7633 34.6414 46.0079 34.5695 46.2575 34.5717C46.4231 34.5715 46.587 34.6042 46.7399 34.6678C46.8927 34.7314 47.0315 34.8247 47.1481 34.9422C47.2647 35.0597 47.3568 35.1992 47.4192 35.3526C47.4816 35.5059 47.513 35.6701 47.5115 35.8357L47.5075 35.8387Z" fill="white"/>
<defs>
<linearGradient id="paint0_linear" x1="49.2573" y1="82.6638" x2="38.0173" y2="24.5773" gradientUnits="userSpaceOnUse">
<stop stop-color="#B3B3B3"/>
<stop offset="0.967" stop-color="#E6E6E6"/>
</linearGradient>
<linearGradient id="paint1_linear" x1="17.2369" y1="16.718" x2="64.1363" y2="63.6175" gradientUnits="userSpaceOnUse">
<stop stop-color="white"/>
<stop offset="0.967" stop-color="#E6E6E6"/>
</linearGradient>
<radialGradient id="paint2_radial" cx="0" cy="0" r="1" gradientUnits="userSpaceOnUse" gradientTransform="translate(43.2695 43.3048) scale(22.5181)">
<stop offset="0.014"/>
<stop offset="0.147" stop-color="#030303"/>
<stop offset="0.269" stop-color="#0E0E0E"/>
<stop offset="0.387" stop-color="#212121"/>
<stop offset="0.501" stop-color="#3B3B3B"/>
<stop offset="0.614" stop-color="#5C5C5C"/>
<stop offset="0.725" stop-color="#868686"/>
<stop offset="0.835" stop-color="#B7B7B7"/>
<stop offset="0.941" stop-color="#EEEEEE"/>
<stop offset="0.97" stop-color="white"/>
</radialGradient>
<linearGradient id="paint3_linear" x1="32.0988" y1="20.6548" x2="49.4377" y2="61.7898" gradientUnits="userSpaceOnUse">
<stop stop-color="#E6D1AB"/>
<stop offset="1" stop-color="#8B5E1A"/>
</linearGradient>
<radialGradient id="paint4_radial" cx="0" cy="0" r="1" gradientUnits="userSpaceOnUse" gradientTransform="translate(47.3727 54.9101) scale(65.9495 42.7428)">
<stop offset="0.03" stop-color="white"/>
<stop offset="0.201" stop-color="#C2C2C2"/>
<stop offset="0.415" stop-color="#7E7E7E"/>
<stop offset="0.608" stop-color="#474747"/>
<stop offset="0.774" stop-color="#202020"/>
<stop offset="0.905" stop-color="#080808"/>
<stop offset="0.986"/>
</radialGradient>
</defs>
</svg>
