<svg xmlns="http://www.w3.org/2000/svg" xmlns:xlink="http://www.w3.org/1999/xlink" width="42.415" height="54.222" viewBox="0 0 42.415 54.222"><defs><style>.a{fill:url(#a);}</style><linearGradient id="a" x1="0.5" x2="0.5" y2="1" gradientUnits="objectBoundingBox"><stop offset="0" stop-color="#585a5e"/><stop offset="1" stop-color="#121213"/></linearGradient></defs><g transform="translate(6.517 16.081)"><g transform="translate(0 16.77)"><path class="a" d="M120.935,339.3H99.314a3.9,3.9,0,0,1-3.881-3.915V321.84a3.9,3.9,0,0,1,3.881-3.915h21.622a3.9,3.9,0,0,1,3.881,3.915v13.541A3.9,3.9,0,0,1,120.935,339.3ZM99.314,319.718a2.116,2.116,0,0,0-2.1,2.122v13.541a2.116,2.116,0,0,0,2.1,2.122h21.622a2.116,2.116,0,0,0,2.1-2.122V321.84a2.116,2.116,0,0,0-2.1-2.122Z" transform="translate(-95.433 -317.925)"/></g><g transform="translate(2.67 0)"><path class="a" d="M125.485,296.374h-1.777v-3.743a10.244,10.244,0,1,0-20.488,0v3.743h-1.777v-3.743a12.021,12.021,0,1,1,24.042,0Z" transform="translate(-101.443 -280.504)"/></g><g transform="translate(6.067 3.427)"><path class="a" d="M126.338,300.594h-1.777v-3.743a6.848,6.848,0,1,0-13.695,0v3.743H109.09v-3.743a8.625,8.625,0,1,1,17.248,0Z" transform="translate(-109.09 -288.151)"/></g><g transform="translate(10.531 20.807)"><path class="a" d="M124.66,339.7h-2.716a.892.892,0,0,1-.888-.9v-4.139a4.161,4.161,0,1,1,4.493,0V338.8A.892.892,0,0,1,124.66,339.7Zm-1.828-1.793h.94v-3.775a.9.9,0,0,1,.52-.816,2.381,2.381,0,1,0-1.98,0,.9.9,0,0,1,.52.816Z" transform="translate(-119.14 -326.933)"/></g></g><g transform="translate(20.374 5.964)"><rect class="a" width="1.777" height="8.002"/></g><g transform="translate(17.862)"><path class="a" d="M124.374,251.481a3.43,3.43,0,1,1,3.4-3.431A3.419,3.419,0,0,1,124.374,251.481Zm0-5.068A1.638,1.638,0,1,0,126,248.05,1.632,1.632,0,0,0,124.374,246.413Z" transform="translate(-120.973 -244.62)"/></g><g transform="translate(25.859 5.068)"><g transform="translate(9.755)"><path class="a" d="M164.335,262.79a3.43,3.43,0,1,1,3.4-3.431A3.419,3.419,0,0,1,164.335,262.79Zm0-5.068a1.638,1.638,0,1,0,1.624,1.637A1.633,1.633,0,0,0,164.335,257.722Z" transform="translate(-160.934 -255.929)"/></g><g transform="translate(0 2.534)"><path class="a" d="M140.752,269.58h-1.777v-7.1a.892.892,0,0,1,.888-.9h9.755v1.793h-8.866Z" transform="translate(-138.975 -261.583)"/></g></g><g transform="translate(0 5.068)"><path class="a" d="M84.164,262.79a3.43,3.43,0,1,1,3.4-3.431A3.419,3.419,0,0,1,84.164,262.79Zm0-5.068a1.638,1.638,0,1,0,1.624,1.637A1.632,1.632,0,0,0,84.164,257.722Z" transform="translate(-80.763 -255.929)"/><g transform="translate(5.913 2.534)"><path class="a" d="M104.717,269.58H102.94v-6.2H94.073v-1.793h9.755a.893.893,0,0,1,.888.9Z" transform="translate(-94.073 -261.583)"/></g></g></svg>