<svg width="34" height="45" viewBox="0 0 34 45" fill="none" xmlns="http://www.w3.org/2000/svg">
<path fill-rule="evenodd" clip-rule="evenodd" d="M18.7571 20.7229H27.1742C27.3112 20.7237 27.4424 20.7788 27.5389 20.8761C27.6354 20.9734 27.6894 21.1049 27.6891 21.2419V21.5879C27.6894 21.7249 27.6354 21.8566 27.5389 21.9539C27.4424 22.0511 27.3112 22.1061 27.1742 22.1069H18.7571C18.6201 22.1061 18.489 22.0511 18.3925 21.9539C18.2959 21.8566 18.2419 21.7249 18.2422 21.5879V21.2419C18.2419 21.1049 18.2959 20.9734 18.3925 20.8761C18.489 20.7788 18.6201 20.7237 18.7571 20.7229Z" fill="url(#paint0_linear)"/>
<path fill-rule="evenodd" clip-rule="evenodd" d="M16.1829 25.5989H27.174C27.311 25.5997 27.4421 25.6548 27.5386 25.7521C27.6352 25.8493 27.6892 25.9809 27.689 26.1179V26.4639C27.6892 26.6009 27.6352 26.7326 27.5386 26.8298C27.4421 26.9271 27.311 26.9821 27.174 26.9829H16.1829C16.0459 26.9821 15.9148 26.9271 15.8182 26.8298C15.7217 26.7326 15.6677 26.6009 15.668 26.4639V26.1179C15.6677 25.9809 15.7217 25.8493 15.8182 25.7521C15.9148 25.6548 16.0459 25.5997 16.1829 25.5989Z" fill="url(#paint1_linear)"/>
<path fill-rule="evenodd" clip-rule="evenodd" d="M16.1829 16.0288H27.174C27.311 16.0296 27.4421 16.0847 27.5386 16.182C27.6352 16.2793 27.6892 16.4108 27.689 16.5479V16.8938C27.6892 17.0308 27.6352 17.1625 27.5386 17.2598C27.4421 17.357 27.311 17.412 27.174 17.4128H16.1829C16.0459 17.412 15.9148 17.357 15.8182 17.2598C15.7217 17.1625 15.6677 17.0308 15.668 16.8938V16.5479C15.6677 16.4108 15.7217 16.2793 15.8182 16.182C15.9148 16.0847 16.0459 16.0296 16.1829 16.0288Z" fill="url(#paint2_linear)"/>
<path fill-rule="evenodd" clip-rule="evenodd" d="M9.07874 18.3378C9.30407 18.0044 9.54243 17.6791 9.79376 17.3618C10.2633 16.7725 10.7749 16.218 11.3247 15.7028C11.3948 15.6369 11.4774 15.5856 11.5676 15.552C11.6577 15.5184 11.7537 15.503 11.8499 15.5068C11.946 15.5107 12.0404 15.5335 12.1276 15.5742C12.2148 15.6149 12.293 15.6725 12.3577 15.7438C12.4894 15.8892 12.5589 16.0805 12.5515 16.2765C12.544 16.4725 12.4601 16.6579 12.3177 16.7928C11.821 17.2587 11.3588 17.76 10.9348 18.2928C10.5053 18.8332 10.1156 19.4041 9.76874 20.0009C9.7182 20.0956 9.64752 20.1782 9.56171 20.2428C9.48466 20.3007 9.39692 20.3427 9.30347 20.3663C9.21002 20.39 9.11278 20.3948 9.01746 20.3805C8.92214 20.3662 8.83065 20.3329 8.74829 20.2828C8.66593 20.2328 8.59431 20.1669 8.53772 20.0889L6.83771 17.7628C6.72201 17.6042 6.67318 17.4065 6.7016 17.2123C6.73002 17.018 6.83346 16.8426 6.98975 16.7238C7.06679 16.6658 7.1546 16.6239 7.24805 16.6002C7.3415 16.5766 7.43868 16.5718 7.534 16.5862C7.62932 16.6005 7.72086 16.6336 7.80322 16.6837C7.88559 16.7338 7.95714 16.7998 8.01373 16.8778L9.08276 18.3368L9.07874 18.3378ZM9.84473 21.9379C10.3871 21.9379 10.9241 21.8296 11.4241 21.6194C11.9242 21.4092 12.3772 21.1014 12.7567 20.7139C13.5301 19.9245 13.9633 18.8634 13.9633 17.7583C13.9633 16.6532 13.5301 15.5922 12.7567 14.8029C12.3772 14.4153 11.9242 14.1074 11.4241 13.8972C10.9241 13.687 10.3871 13.5789 9.84473 13.5789C9.30232 13.5789 8.76535 13.687 8.26532 13.8972C7.76529 14.1074 7.31227 14.4153 6.93274 14.8029C6.15957 15.5923 5.72656 16.6533 5.72656 17.7583C5.72656 18.8633 6.15957 19.9244 6.93274 20.7139C7.31196 21.1021 7.76485 21.4106 8.26489 21.6215C8.76493 21.8323 9.30204 21.9412 9.84473 21.9418V21.9379Z" fill="url(#paint3_linear)"/>
<path fill-rule="evenodd" clip-rule="evenodd" d="M3.65656 4.52393H7.26953V6.61389H3.65656C3.47607 6.61453 3.29749 6.65116 3.13129 6.72156C2.96509 6.79195 2.81458 6.89473 2.68854 7.02393C2.43137 7.2864 2.28774 7.63949 2.28858 8.00696V41.0979C2.28774 41.4654 2.43137 41.8185 2.68854 42.0809C2.81451 42.2102 2.96501 42.313 3.13123 42.3834C3.29744 42.4538 3.47605 42.4904 3.65656 42.491H29.7565C29.937 42.4904 30.1156 42.4538 30.2818 42.3834C30.448 42.313 30.5985 42.2102 30.7246 42.0809C30.9817 41.8185 31.1254 41.4654 31.1246 41.0979V8.00598C31.1254 7.63852 30.9817 7.28542 30.7246 7.02295C30.5985 6.89375 30.448 6.79098 30.2818 6.72058C30.1156 6.65019 29.937 6.61355 29.7565 6.61292H26.1445V4.52295H29.7576C30.2092 4.52375 30.6562 4.61457 31.0724 4.79004C31.4886 4.96551 31.8656 5.2221 32.1815 5.54492C32.8279 6.20084 33.1897 7.08512 33.1885 8.00598V41.0969C33.1894 42.0174 32.8276 42.9012 32.1815 43.5569C31.8656 43.8797 31.4886 44.1364 31.0724 44.3119C30.6562 44.4874 30.2092 44.5782 29.7576 44.579H3.65753C3.20586 44.5782 2.75891 44.4874 2.34272 44.3119C1.92652 44.1364 1.54943 43.8797 1.23352 43.5569C0.587421 42.9012 0.225675 42.0174 0.226565 41.0969V8.00598C0.225412 7.08512 0.587177 6.20084 1.23352 5.54492C1.54943 5.2221 1.92652 4.96551 2.34272 4.79004C2.75891 4.61457 3.20586 4.52375 3.65753 4.52295L3.65656 4.52393ZM9.67157 3.65698C9.58057 3.6579 9.49059 3.67673 9.40686 3.7124C9.32313 3.74808 9.24724 3.79987 9.18354 3.86487C9.11983 3.92987 9.06956 4.00675 9.03559 4.09119C9.00161 4.17562 8.98461 4.26593 8.98554 4.35693V8.18799C8.98461 8.279 9.00161 8.36918 9.03559 8.45361C9.06956 8.53805 9.11983 8.61505 9.18354 8.68005C9.24724 8.74506 9.32313 8.79685 9.40686 8.83252C9.49059 8.86819 9.58057 8.88702 9.67157 8.88794H23.7415C23.8325 8.88702 23.9225 8.86819 24.0062 8.83252C24.09 8.79685 24.1659 8.74506 24.2296 8.68005C24.2933 8.61505 24.3435 8.53805 24.3775 8.45361C24.4115 8.36918 24.4285 8.279 24.4276 8.18799V4.35693C24.4285 4.26593 24.4115 4.17562 24.3775 4.09119C24.3435 4.00675 24.2933 3.92987 24.2296 3.86487C24.1659 3.79987 24.09 3.74808 24.0062 3.7124C23.9225 3.67673 23.8325 3.6579 23.7415 3.65698H20.3096C20.3096 2.70127 19.9299 1.78467 19.2541 1.10889C18.5783 0.433099 17.6618 0.0534668 16.7061 0.0534668C15.7503 0.0534668 14.8337 0.433099 14.158 1.10889C13.4822 1.78467 13.1025 2.70127 13.1025 3.65698H9.67157ZM16.7065 5.22888C17.0172 5.23285 17.322 5.1444 17.5823 4.97473C17.8425 4.80506 18.0465 4.56184 18.1683 4.276C18.29 3.99016 18.324 3.6746 18.266 3.36938C18.208 3.06417 18.0605 2.78312 17.8423 2.56189C17.6242 2.34066 17.3453 2.18928 17.0409 2.12695C16.7365 2.06463 16.4205 2.09411 16.133 2.21179C15.8455 2.32948 15.5994 2.53 15.4261 2.78784C15.2528 3.04569 15.16 3.34923 15.1595 3.65991C15.1499 3.86664 15.1832 4.0731 15.2572 4.26636C15.3313 4.45961 15.4445 4.63547 15.5898 4.78284C15.7351 4.9302 15.9093 5.04591 16.1015 5.12268C16.2937 5.19945 16.4997 5.23559 16.7065 5.22888Z" fill="url(#paint4_linear)"/>
<path fill-rule="evenodd" clip-rule="evenodd" d="M9.07867 28.787C9.30401 28.4537 9.54237 28.1287 9.7937 27.812C10.263 27.2222 10.7746 26.6674 11.3246 26.152C11.3947 26.086 11.4773 26.0347 11.5674 26.001C11.6576 25.9673 11.7536 25.9519 11.8498 25.9557C11.946 25.9595 12.0404 25.9824 12.1276 26.0232C12.2148 26.064 12.293 26.1216 12.3577 26.193C12.489 26.3384 12.5584 26.5294 12.5509 26.7252C12.5434 26.921 12.4598 27.1061 12.3177 27.2411C11.8209 27.7069 11.3587 28.2082 10.9347 28.7411C10.5052 29.2814 10.1155 29.8521 9.76868 30.449C9.71819 30.5438 9.6475 30.6265 9.56165 30.691C9.4846 30.749 9.39685 30.7909 9.30341 30.8146C9.20996 30.8382 9.11271 30.8431 9.0174 30.8287C8.92208 30.8144 8.83059 30.7812 8.74823 30.7311C8.66587 30.681 8.59425 30.615 8.53766 30.537L6.83765 28.2111C6.72164 28.0524 6.67262 27.8544 6.70105 27.6599C6.72948 27.4654 6.83312 27.2899 6.98969 27.171C7.06673 27.1131 7.15454 27.0711 7.24799 27.0475C7.34143 27.0238 7.43862 27.019 7.53394 27.0333C7.62925 27.0477 7.7208 27.0809 7.80316 27.131C7.88552 27.1811 7.95708 27.247 8.01367 27.3251L9.0827 28.7841L9.07867 28.787ZM9.84467 32.3871C10.3871 32.3872 10.9241 32.2789 11.4241 32.0687C11.9242 31.8585 12.3772 31.5507 12.7567 31.1631C13.5298 30.3738 13.9628 29.3129 13.9628 28.208C13.9628 27.1032 13.5298 26.0424 12.7567 25.2531C12.3771 24.8655 11.9241 24.5577 11.4241 24.3475C10.924 24.1374 10.3871 24.0291 9.84467 24.0291C9.30226 24.0291 8.76529 24.1374 8.26526 24.3475C7.76523 24.5577 7.31221 24.8655 6.93268 25.2531C6.15957 26.0424 5.72656 27.1032 5.72656 28.208C5.72656 29.3129 6.15957 30.3738 6.93268 31.1631C7.31192 31.5512 7.76484 31.8596 8.26489 32.0703C8.76494 32.281 9.30204 32.3897 9.84467 32.39V32.3871Z" fill="url(#paint5_linear)"/>
<path fill-rule="evenodd" clip-rule="evenodd" d="M6.24158 35.3499H27.1755C27.3126 35.3506 27.4437 35.4057 27.5402 35.5029C27.6367 35.6002 27.6908 35.7319 27.6906 35.8689V36.2148C27.6908 36.3519 27.6367 36.4834 27.5402 36.5807C27.4437 36.678 27.3126 36.7331 27.1755 36.7339H6.24158C6.10454 36.7331 5.97336 36.678 5.87683 36.5807C5.78031 36.4834 5.7263 36.3519 5.72656 36.2148V35.8689C5.7263 35.7319 5.78031 35.6002 5.87683 35.5029C5.97336 35.4057 6.10454 35.3506 6.24158 35.3499Z" fill="url(#paint6_linear)"/>
<path fill-rule="evenodd" clip-rule="evenodd" d="M18.7571 30.4739H27.1742C27.3112 30.4747 27.4424 30.5297 27.5389 30.627C27.6354 30.7242 27.6894 30.8559 27.6891 30.9929V31.3389C27.6894 31.4759 27.6354 31.6074 27.5389 31.7047C27.4424 31.802 27.3112 31.8571 27.1742 31.8579H18.7571C18.6201 31.8571 18.489 31.802 18.3925 31.7047C18.2959 31.6074 18.2419 31.4759 18.2422 31.3389V30.9929C18.2419 30.8559 18.2959 30.7242 18.3925 30.627C18.489 30.5297 18.6201 30.4747 18.7571 30.4739Z" fill="url(#paint7_linear)"/>
<defs>
<linearGradient id="paint0_linear" x1="22.9657" y1="20.7229" x2="22.9657" y2="22.1069" gradientUnits="userSpaceOnUse">
<stop stop-color="#121213"/>
<stop offset="1" stop-color="#585A5E"/>
</linearGradient>
<linearGradient id="paint1_linear" x1="21.6785" y1="25.5989" x2="21.6785" y2="26.9829" gradientUnits="userSpaceOnUse">
<stop stop-color="#121213"/>
<stop offset="1" stop-color="#585A5E"/>
</linearGradient>
<linearGradient id="paint2_linear" x1="21.6785" y1="16.0288" x2="21.6785" y2="17.4128" gradientUnits="userSpaceOnUse">
<stop stop-color="#121213"/>
<stop offset="1" stop-color="#585A5E"/>
</linearGradient>
<linearGradient id="paint3_linear" x1="9.84494" y1="13.5789" x2="9.84494" y2="21.9418" gradientUnits="userSpaceOnUse">
<stop stop-color="#121213"/>
<stop offset="1" stop-color="#585A5E"/>
</linearGradient>
<linearGradient id="paint4_linear" x1="16.7076" y1="0.0534668" x2="16.7076" y2="44.579" gradientUnits="userSpaceOnUse">
<stop stop-color="#121213"/>
<stop offset="1" stop-color="#585A5E"/>
</linearGradient>
<linearGradient id="paint5_linear" x1="9.84467" y1="24.0291" x2="9.84467" y2="32.39" gradientUnits="userSpaceOnUse">
<stop stop-color="#121213"/>
<stop offset="1" stop-color="#585A5E"/>
</linearGradient>
<linearGradient id="paint6_linear" x1="16.7086" y1="35.3499" x2="16.7086" y2="36.7339" gradientUnits="userSpaceOnUse">
<stop stop-color="#121213"/>
<stop offset="1" stop-color="#585A5E"/>
</linearGradient>
<linearGradient id="paint7_linear" x1="22.9657" y1="30.4739" x2="22.9657" y2="31.8579" gradientUnits="userSpaceOnUse">
<stop stop-color="#121213"/>
<stop offset="1" stop-color="#585A5E"/>
</linearGradient>
</defs>
</svg>
