<svg id="Layer_1" data-name="Layer 1" xmlns="http://www.w3.org/2000/svg" xmlns:xlink="http://www.w3.org/1999/xlink" width="58.98" height="58.99" viewBox="0 0 58.98 58.99"><defs><style>.cls-1{fill:url(#linear-gradient);}.cls-2{fill-rule:evenodd;fill:url(#linear-gradient-2);}</style><linearGradient id="linear-gradient" x1="7223.21" y1="-3210.53" x2="7174.72" y2="-3214.83" gradientTransform="translate(-7170.5 3228.5)" gradientUnits="userSpaceOnUse"><stop offset="0" stop-color="#cbac63"/><stop offset="1" stop-color="#aa8a5c"/></linearGradient><linearGradient id="linear-gradient-2" x1="7225.83" y1="-3179.37" x2="7171.23" y2="-3185.74" xlink:href="#linear-gradient"/></defs><path class="cls-1" d="M37.44,1.41A3.45,3.45,0,0,1,38.52.48,3.7,3.7,0,0,1,41.31.13a3.61,3.61,0,0,1,1.28.65,3.64,3.64,0,0,1,1.28,3.87,3.59,3.59,0,0,1-.64,1.28L25.46,28.63a29.84,29.84,0,0,0-8.16-1.5L37.44,1.41Zm5.22,20.73a3.17,3.17,0,0,0-.88,1.65A3.23,3.23,0,0,0,42,25.66a3.21,3.21,0,0,0,4.77,1.44,3.1,3.1,0,0,0,1.19-1.44,3.23,3.23,0,0,0-5.26-3.52Zm-21.1-19A10.67,10.67,0,1,1,14.06,0a10.61,10.61,0,0,1,7.5,3.08ZM16.34,8.31a3.3,3.3,0,0,0-1.65-.89A3.23,3.23,0,0,0,11.38,8.8a3.23,3.23,0,0,0,1.44,4.77,3.23,3.23,0,0,0,3.52-5.26Zm21.11,8.61a10.82,10.82,0,0,1,3.44-2.3,10.68,10.68,0,0,1,4.06-.8,10.62,10.62,0,0,1,9.79,6.55,10.69,10.69,0,0,1,.81,4.06,10.58,10.58,0,0,1-.81,4,10.82,10.82,0,0,1-2.3,3.44,10.58,10.58,0,0,1-2.87,2,42.74,42.74,0,0,0-5.3-.34,32.9,32.9,0,0,0-4.2.21,10.25,10.25,0,0,1-2.62-1.91,10.65,10.65,0,0,1,0-15Z" transform="translate(0 0)"/><path class="cls-2" d="M44.26,39.15c-4.78,0-8.66.51-8.66,1.15s3.88,1.15,8.66,1.15,8.66-.52,8.66-1.15S49.05,39.15,44.26,39.15Zm-6,9.13a36.49,36.49,0,0,0,6,.46,33.65,33.65,0,0,0,8-.87c1.68.21,2.73.36,2.73.84s-3.88,1.15-8.66,1.15-8.66-.75-8.66-1.15.22-.3.63-.43Zm-6.71-3.45c0,.94,1.08,1.8,2.89,2.48a1.7,1.7,0,0,0-.58.61,1.72,1.72,0,0,0-.26.79v4.53c0,2.16,5.68,3.92,12.69,3.92S59,55.4,59,53.24V48.71c0-.94-1.08-1.81-2.88-2.49a1.82,1.82,0,0,0,.57-.6,1.76,1.76,0,0,0,.26-.8V40.3c0-2.17-5.68-3.92-12.69-3.92S31.55,38.13,31.55,40.3v4.52ZM14.72,32.57c4.78,0,8.66.52,8.66,1.16s-3.88,1.15-8.66,1.15-8.66-.52-8.66-1.15,3.89-1.16,8.68-1.16Zm6,9.14c.41.13.63.28.63.43,0,.64-3.88,1.15-8.66,1.15S4,42.78,4,42.14c0-.33,1-.63,2.73-.84a33.65,33.65,0,0,0,8,.87,37.71,37.71,0,0,0,6-.46Zm0,8c1.68.21,2.73.51,2.73.84,0,.63-3.88,1.15-8.66,1.15s-8.66-.52-8.66-1.15c0-.16.22-.3.62-.44a36.5,36.5,0,0,0,6,.47,34.71,34.71,0,0,0,8-.87Zm6.76,5.36c0,2.17-5.69,3.92-12.69,3.92S2.05,57.24,2.05,55.07V50.55a1.88,1.88,0,0,1,.25-.8,2.07,2.07,0,0,1,.58-.6C1.08,48.47,0,47.6,0,46.66V42.13c0-.94,1.08-1.81,2.88-2.49A2.07,2.07,0,0,1,2.3,39a1.88,1.88,0,0,1-.25-.8V33.72c0-2.17,5.68-3.92,12.69-3.92s12.69,1.75,12.69,3.92v4.53c0,.94-1.08,1.8-2.89,2.48a1.85,1.85,0,0,1,.58.6,1.76,1.76,0,0,1,.26.8v4.53a1.72,1.72,0,0,1-.26.79,2,2,0,0,1-.57.61c1.8.67,2.88,1.54,2.88,2.49v4.52Z" transform="translate(0 0)"/></svg>