<svg id="Layer_1" data-name="Layer 1" xmlns="http://www.w3.org/2000/svg" xmlns:xlink="http://www.w3.org/1999/xlink" width="61.98" height="70.03" viewBox="0 0 61.98 70.03"><defs><style>.cls-1,.cls-2{fill-rule:evenodd;}.cls-1{fill:url(#linear-gradient);}.cls-2{fill:url(#linear-gradient-2);}</style><linearGradient id="linear-gradient" x1="7225.77" y1="-3193.19" x2="7219.39" y2="-3174.96" gradientTransform="translate(-7169 3234)" gradientUnits="userSpaceOnUse"><stop offset="0" stop-color="#cbac63"/><stop offset="1" stop-color="#aa8a5c"/></linearGradient><linearGradient id="linear-gradient-2" x1="7218.02" y1="-3233.59" x2="7192.53" y2="-3166.19" xlink:href="#linear-gradient"/></defs><path class="cls-1" d="M59.83,41.56H45.14v7.66H59.83a2.2,2.2,0,0,0,1.53-.65A2.17,2.17,0,0,0,62,47V43.75a2.17,2.17,0,0,0-.64-1.54A2.14,2.14,0,0,0,59.83,41.56Zm0,10.94H45.14v7.65H59.83a2.17,2.17,0,0,0,1.54-.64A2.2,2.2,0,0,0,62,58V54.69a2.2,2.2,0,0,0-.64-1.55A2.13,2.13,0,0,0,59.83,52.5Z" transform="translate(-0.02 0.03)"/><path class="cls-2" d="M12,28.44V18h0A18,18,0,0,1,17.25,5.24,17.92,17.92,0,0,1,29.94,0h0a18,18,0,0,1,18,18h0v10.4H39.23V18h0a9.31,9.31,0,0,0-2.71-6.57,9.17,9.17,0,0,0-3-2A9.35,9.35,0,0,0,30,8.73h0a9.38,9.38,0,0,0-6.54,2.72A9.3,9.3,0,0,0,20.74,18h0v10.4Zm42.59,3.28H5.27a3.2,3.2,0,0,0-3.15,2.44,67.45,67.45,0,0,0,0,33.4A3.2,3.2,0,0,0,5.27,70H54.59a3.22,3.22,0,0,0,2-.67,3.27,3.27,0,0,0,1.16-1.77c.35-1.34.66-2.71.93-4.12H43.53a1.51,1.51,0,0,1-.63-.13,1.69,1.69,0,0,1-.53-.35,1.58,1.58,0,0,1-.35-.53,1.68,1.68,0,0,1-.12-.63V39.92a1.68,1.68,0,0,1,.12-.63,1.58,1.58,0,0,1,.35-.53,2.07,2.07,0,0,1,.53-.36,1.68,1.68,0,0,1,.63-.12H58.68c-.27-1.41-.58-2.78-.93-4.12a3.27,3.27,0,0,0-1.16-1.77,3.21,3.21,0,0,0-2-.67Zm-34,20c-3.17-1.09-5.35-2.6-5.35-5.52,0-2.52,1.59-4.51,4.41-5.24a.87.87,0,0,0,.4-.31.78.78,0,0,0,.14-.49V38.79a.88.88,0,0,1,.25-.57A.85.85,0,0,1,21,38h1.36a.86.86,0,0,1,.82.82v1.09a.79.79,0,0,0,.7.78,10.31,10.31,0,0,1,3,.69.74.74,0,0,1,.39.37.7.7,0,0,1,.06.53l-.5,1.91a.74.74,0,0,1-.14.28.55.55,0,0,1-.25.2.61.61,0,0,1-.3.08.56.56,0,0,1-.31-.06,9.1,9.1,0,0,0-3.49-.7c-1.93,0-2.54.88-2.54,1.72s1,1.63,3.59,2.57c3.53,1.26,4.94,2.92,4.94,5.67A5.61,5.61,0,0,1,27,57.48a5.52,5.52,0,0,1-3.32,1.87.77.77,0,0,0-.4.29.7.7,0,0,0-.13.47v1.64a.94.94,0,0,1-.26.57.85.85,0,0,1-.56.25H21a.85.85,0,0,1-.56-.25.9.9,0,0,1-.25-.57V60.38a.75.75,0,0,0-.72-.72,13.17,13.17,0,0,1-3.8-1,.85.85,0,0,1-.38-.37.77.77,0,0,1,0-.52l.51-2a.69.69,0,0,1,.14-.3.82.82,0,0,1,.25-.2.84.84,0,0,1,.31-.08.88.88,0,0,1,.32.07,10.28,10.28,0,0,0,4.12.93c1.72,0,2.87-.7,2.87-1.87s-1-1.87-3.18-2.62Z" transform="translate(-0.02 0.03)"/></svg>