<svg id="favicon" xmlns="http://www.w3.org/2000/svg" width="70" height="70" viewBox="0 0 70 70"><defs><style>.cls-1{fill:#e0c553;}.cls-2{fill:none;}</style></defs><path class="cls-1" d="M946.83,520.12c5,8.72,10.22,17,14.71,25.66s15.39,11.3,23.05,4.31l3.78,4c-5.21,6.2-16.27,7.64-23.88,3a19.56,19.56,0,0,1-7-7.11q-6.37-11.18-12.88-22.28c-.81-1.37-1.1-2.46,0-3.83A35,35,0,0,0,946.83,520.12Z" transform="translate(-921.45 -504.97)"/><path class="cls-1" d="M956.75,559.81c-2.1,0-3.78.08-5.45,0a2.29,2.29,0,0,1-1.58-.91q-9.39-16.12-18.66-32.31a2,2,0,0,1,0-1.65c.79-1.55,1.72-3,2.75-4.78Z" transform="translate(-921.45 -504.97)"/><path class="cls-1" d="M961.52,534.33a32.18,32.18,0,0,0-2.06-3.47c-1.28-1.63-1-2.8.42-4.28a19.94,19.94,0,0,1,27.19-2.06c.52.42,1,.89,1.52,1.38l-4,3.94c-3.65-3.22-7.83-4.7-12.7-3.75S963.8,529.9,961.52,534.33Z" transform="translate(-921.45 -504.97)"/><path class="cls-1" d="M927.35,531.38l16.4,28.42c-2.15,0-4,.06-5.82,0a1.87,1.87,0,0,1-1.22-.9q-6.11-10.47-12.12-21a1.68,1.68,0,0,1-.21-1.34C925.26,534.86,926.27,533.23,927.35,531.38Z" transform="translate(-921.45 -504.97)"/><rect class="cls-2" width="70" height="70"/></svg>