<svg width="1366" height="575" viewBox="0 0 1366 575" fill="none" xmlns="http://www.w3.org/2000/svg">
<g opacity="0.524">
<g opacity="0.524">
<path opacity="0.524" d="M368.582 34.1001H299.641V574.116H368.582V34.1001Z" fill="url(#paint0_linear)"/>
<path opacity="0.524" d="M448.506 64.1992H379.565V574.116H448.506V64.1992Z" fill="url(#paint1_linear)"/>
<path opacity="0.524" d="M528.43 0.539062H459.489V574.117H528.43V0.539062Z" fill="url(#paint2_linear)"/>
<path opacity="0.524" d="M608.355 233.344H539.414V574.117H608.355V233.344Z" fill="url(#paint3_linear)"/>
<path opacity="0.524" d="M688.28 167.238H619.338V574.117H688.28V167.238Z" fill="url(#paint4_linear)"/>
<path opacity="0.524" d="M768.204 34.1001H699.262V574.116H768.204V34.1001Z" fill="url(#paint5_linear)"/>
<path opacity="0.524" d="M848.128 62.519H779.186V574.117H848.128V62.519Z" fill="url(#paint6_linear)"/>
<path opacity="0.524" d="M928.052 137.308H859.11V574.117H928.052V137.308Z" fill="url(#paint7_linear)"/>
<path opacity="0.524" d="M1007.98 236.383H939.034V574.117H1007.98V236.383Z" fill="url(#paint8_linear)"/>
<path opacity="0.524" d="M1087.9 169.075H1018.96V574.117H1087.9V169.075Z" fill="url(#paint9_linear)"/>
<path opacity="0.524" d="M1167.82 137.308H1098.88V574.117H1167.82V137.308Z" fill="url(#paint10_linear)"/>
<path opacity="0.524" d="M1247.75 256.427H1178.81V574.117H1247.75V256.427Z" fill="url(#paint11_linear)"/>
<path opacity="0.524" d="M1327.67 163.378H1258.73V574.116H1327.67V163.378Z" fill="url(#paint12_linear)"/>
<path opacity="0.524" d="M1407.6 0.539062H1338.66V574.117H1407.6V0.539062Z" fill="url(#paint13_linear)"/>
</g>
<g opacity="0.524">
<path opacity="0.524" d="M46.29 335.605H-2.589V574.117H46.29V335.605Z" fill="url(#paint14_linear)"/>
<path opacity="0.524" d="M112.427 405.407H63.549V574.116H112.427V405.407Z" fill="url(#paint15_linear)"/>
<path opacity="0.524" d="M178.565 360.278H129.686V574.116H178.565V360.278Z" fill="url(#paint16_linear)"/>
<path opacity="0.524" d="M244.701 329.178H195.823V574.117H244.701V329.178Z" fill="url(#paint17_linear)"/>
<path opacity="0.524" d="M310.84 360.278H261.961V574.116H310.84V360.278Z" fill="url(#paint18_linear)"/>
<path opacity="0.524" d="M376.976 405.407H328.097V574.116H376.976V405.407Z" fill="url(#paint19_linear)"/>
<path opacity="0.524" d="M443.114 310.957H394.235V574.116H443.114V310.957Z" fill="url(#paint20_linear)"/>
<path opacity="0.524" d="M509.25 264.614H460.372V574.116H509.25V264.614Z" fill="url(#paint21_linear)"/>
<path opacity="0.524" d="M575.389 329.178H526.509V574.117H575.389V329.178Z" fill="url(#paint22_linear)"/>
<path opacity="0.524" d="M641.524 360.492H592.646V574.116H641.524V360.492Z" fill="url(#paint23_linear)"/>
<path opacity="0.524" d="M707.663 380.621H658.784V574.116H707.663V380.621Z" fill="url(#paint24_linear)"/>
<path opacity="0.524" d="M773.799 358.252H724.921V574.117H773.799V358.252Z" fill="url(#paint25_linear)"/>
<path opacity="0.524" d="M839.938 326.937H791.059V574.116H839.938V326.937Z" fill="url(#paint26_linear)"/>
<path opacity="0.524" d="M906.075 300.093H857.194V574.116H906.075V300.093Z" fill="url(#paint27_linear)"/>
<path opacity="0.524" d="M972.211 262.373H923.332V574.116H972.211V262.373Z" fill="url(#paint28_linear)"/>
<path opacity="0.524" d="M1038.35 300.902H989.469V574.117H1038.35V300.902Z" fill="url(#paint29_linear)"/>
<path opacity="0.524" d="M1104.49 308.294H1055.61V574.116H1104.49V308.294Z" fill="url(#paint30_linear)"/>
<path opacity="0.524" d="M1170.62 366.158H1121.74V574.116H1170.62V366.158Z" fill="url(#paint31_linear)"/>
<path opacity="0.524" d="M1236.76 325.847H1187.88V574.116H1236.76V325.847Z" fill="url(#paint32_linear)"/>
<path opacity="0.524" d="M1302.9 338.361H1254.02V574.116H1302.9V338.361Z" fill="url(#paint33_linear)"/>
<path opacity="0.524" d="M1369.04 296.433H1320.16V574.117H1369.04V296.433Z" fill="url(#paint34_linear)"/>
</g>
</g>
<defs>
<linearGradient id="paint0_linear" x1="334.111" y1="574.116" x2="334.111" y2="34.1001" gradientUnits="userSpaceOnUse">
<stop stop-color="#D9D9D9"/>
<stop offset="1" stop-color="white"/>
</linearGradient>
<linearGradient id="paint1_linear" x1="414.036" y1="574.116" x2="414.036" y2="64.1992" gradientUnits="userSpaceOnUse">
<stop stop-color="#D9D9D9"/>
<stop offset="1" stop-color="white"/>
</linearGradient>
<linearGradient id="paint2_linear" x1="493.959" y1="574.117" x2="493.959" y2="0.539062" gradientUnits="userSpaceOnUse">
<stop stop-color="#D9D9D9"/>
<stop offset="1" stop-color="white"/>
</linearGradient>
<linearGradient id="paint3_linear" x1="573.885" y1="574.117" x2="573.885" y2="233.344" gradientUnits="userSpaceOnUse">
<stop stop-color="#D9D9D9"/>
<stop offset="1" stop-color="white"/>
</linearGradient>
<linearGradient id="paint4_linear" x1="653.809" y1="574.117" x2="653.809" y2="167.238" gradientUnits="userSpaceOnUse">
<stop stop-color="#D9D9D9"/>
<stop offset="1" stop-color="white"/>
</linearGradient>
<linearGradient id="paint5_linear" x1="733.733" y1="574.116" x2="733.733" y2="34.1001" gradientUnits="userSpaceOnUse">
<stop stop-color="#D9D9D9"/>
<stop offset="1" stop-color="white"/>
</linearGradient>
<linearGradient id="paint6_linear" x1="813.657" y1="574.117" x2="813.657" y2="62.519" gradientUnits="userSpaceOnUse">
<stop stop-color="#D9D9D9"/>
<stop offset="1" stop-color="white"/>
</linearGradient>
<linearGradient id="paint7_linear" x1="893.581" y1="574.117" x2="893.581" y2="137.308" gradientUnits="userSpaceOnUse">
<stop stop-color="#D9D9D9"/>
<stop offset="1" stop-color="white"/>
</linearGradient>
<linearGradient id="paint8_linear" x1="973.505" y1="574.117" x2="973.505" y2="236.383" gradientUnits="userSpaceOnUse">
<stop stop-color="#D9D9D9"/>
<stop offset="1" stop-color="white"/>
</linearGradient>
<linearGradient id="paint9_linear" x1="1053.43" y1="574.117" x2="1053.43" y2="169.075" gradientUnits="userSpaceOnUse">
<stop stop-color="#D9D9D9"/>
<stop offset="1" stop-color="white"/>
</linearGradient>
<linearGradient id="paint10_linear" x1="1133.35" y1="574.117" x2="1133.35" y2="137.308" gradientUnits="userSpaceOnUse">
<stop stop-color="#D9D9D9"/>
<stop offset="1" stop-color="white"/>
</linearGradient>
<linearGradient id="paint11_linear" x1="1213.28" y1="574.117" x2="1213.28" y2="256.427" gradientUnits="userSpaceOnUse">
<stop stop-color="#D9D9D9"/>
<stop offset="1" stop-color="white"/>
</linearGradient>
<linearGradient id="paint12_linear" x1="1293.2" y1="574.116" x2="1293.2" y2="163.378" gradientUnits="userSpaceOnUse">
<stop stop-color="#D9D9D9"/>
<stop offset="1" stop-color="white"/>
</linearGradient>
<linearGradient id="paint13_linear" x1="1373.13" y1="574.117" x2="1373.13" y2="0.539062" gradientUnits="userSpaceOnUse">
<stop stop-color="#D9D9D9"/>
<stop offset="1" stop-color="white"/>
</linearGradient>
<linearGradient id="paint14_linear" x1="21.8505" y1="574.117" x2="21.8505" y2="335.605" gradientUnits="userSpaceOnUse">
<stop stop-color="#D4D4D4"/>
<stop offset="1" stop-color="white"/>
</linearGradient>
<linearGradient id="paint15_linear" x1="87.988" y1="574.116" x2="87.988" y2="405.407" gradientUnits="userSpaceOnUse">
<stop stop-color="#D4D4D4"/>
<stop offset="1" stop-color="white"/>
</linearGradient>
<linearGradient id="paint16_linear" x1="154.126" y1="574.116" x2="154.126" y2="360.278" gradientUnits="userSpaceOnUse">
<stop stop-color="#D4D4D4"/>
<stop offset="1" stop-color="white"/>
</linearGradient>
<linearGradient id="paint17_linear" x1="220.262" y1="574.117" x2="220.262" y2="329.178" gradientUnits="userSpaceOnUse">
<stop stop-color="#D4D4D4"/>
<stop offset="1" stop-color="white"/>
</linearGradient>
<linearGradient id="paint18_linear" x1="286.4" y1="574.116" x2="286.4" y2="360.278" gradientUnits="userSpaceOnUse">
<stop stop-color="#D4D4D4"/>
<stop offset="1" stop-color="white"/>
</linearGradient>
<linearGradient id="paint19_linear" x1="352.536" y1="574.116" x2="352.536" y2="405.407" gradientUnits="userSpaceOnUse">
<stop stop-color="#D4D4D4"/>
<stop offset="1" stop-color="white"/>
</linearGradient>
<linearGradient id="paint20_linear" x1="418.674" y1="574.116" x2="418.674" y2="310.957" gradientUnits="userSpaceOnUse">
<stop stop-color="#D4D4D4"/>
<stop offset="1" stop-color="white"/>
</linearGradient>
<linearGradient id="paint21_linear" x1="484.811" y1="574.116" x2="484.811" y2="264.614" gradientUnits="userSpaceOnUse">
<stop stop-color="#D4D4D4"/>
<stop offset="1" stop-color="white"/>
</linearGradient>
<linearGradient id="paint22_linear" x1="550.949" y1="574.117" x2="550.949" y2="329.178" gradientUnits="userSpaceOnUse">
<stop stop-color="#D4D4D4"/>
<stop offset="1" stop-color="white"/>
</linearGradient>
<linearGradient id="paint23_linear" x1="617.085" y1="574.116" x2="617.085" y2="360.492" gradientUnits="userSpaceOnUse">
<stop stop-color="#D4D4D4"/>
<stop offset="1" stop-color="white"/>
</linearGradient>
<linearGradient id="paint24_linear" x1="683.223" y1="574.116" x2="683.223" y2="380.621" gradientUnits="userSpaceOnUse">
<stop stop-color="#D4D4D4"/>
<stop offset="1" stop-color="white"/>
</linearGradient>
<linearGradient id="paint25_linear" x1="749.36" y1="574.117" x2="749.36" y2="358.252" gradientUnits="userSpaceOnUse">
<stop stop-color="#D4D4D4"/>
<stop offset="1" stop-color="white"/>
</linearGradient>
<linearGradient id="paint26_linear" x1="815.499" y1="574.116" x2="815.499" y2="326.937" gradientUnits="userSpaceOnUse">
<stop stop-color="#D4D4D4"/>
<stop offset="1" stop-color="white"/>
</linearGradient>
<linearGradient id="paint27_linear" x1="881.634" y1="574.116" x2="881.634" y2="300.093" gradientUnits="userSpaceOnUse">
<stop stop-color="#D4D4D4"/>
<stop offset="1" stop-color="white"/>
</linearGradient>
<linearGradient id="paint28_linear" x1="947.772" y1="574.116" x2="947.772" y2="262.373" gradientUnits="userSpaceOnUse">
<stop stop-color="#D4D4D4"/>
<stop offset="1" stop-color="white"/>
</linearGradient>
<linearGradient id="paint29_linear" x1="1013.91" y1="574.117" x2="1013.91" y2="300.902" gradientUnits="userSpaceOnUse">
<stop stop-color="#D4D4D4"/>
<stop offset="1" stop-color="white"/>
</linearGradient>
<linearGradient id="paint30_linear" x1="1080.05" y1="574.116" x2="1080.05" y2="308.294" gradientUnits="userSpaceOnUse">
<stop stop-color="#D4D4D4"/>
<stop offset="1" stop-color="white"/>
</linearGradient>
<linearGradient id="paint31_linear" x1="1146.18" y1="574.116" x2="1146.18" y2="366.158" gradientUnits="userSpaceOnUse">
<stop stop-color="#D4D4D4"/>
<stop offset="1" stop-color="white"/>
</linearGradient>
<linearGradient id="paint32_linear" x1="1212.32" y1="574.116" x2="1212.32" y2="325.847" gradientUnits="userSpaceOnUse">
<stop stop-color="#D4D4D4"/>
<stop offset="1" stop-color="white"/>
</linearGradient>
<linearGradient id="paint33_linear" x1="1278.46" y1="574.116" x2="1278.46" y2="338.361" gradientUnits="userSpaceOnUse">
<stop stop-color="#D4D4D4"/>
<stop offset="1" stop-color="white"/>
</linearGradient>
<linearGradient id="paint34_linear" x1="1344.6" y1="574.117" x2="1344.6" y2="296.433" gradientUnits="userSpaceOnUse">
<stop stop-color="#D4D4D4"/>
<stop offset="1" stop-color="white"/>
</linearGradient>
</defs>
</svg>
