<svg width="82" height="82" viewBox="0 0 82 82" fill="none" xmlns="http://www.w3.org/2000/svg">
    <path d="M40.9169 77.4122C37.3037 77.4279 33.8303 76.0166 31.2519 73.4852L8.00393 50.6842C6.73863 49.4507 5.73304 47.9764 5.04643 46.3482C4.35983 44.72 4.0061 42.9708 4.0061 41.2037C4.0061 39.4366 4.35983 37.6875 5.04643 36.0592C5.73304 34.431 6.73863 32.9567 8.00393 31.7232L31.2499 8.92322C33.8372 6.40509 37.305 4.99609 40.9154 4.99609C44.5258 4.99609 47.9937 6.40509 50.5809 8.92322L73.8269 31.7232C75.092 32.9569 76.0974 34.4312 76.7838 36.0594C77.4703 37.6876 77.8239 39.4367 77.8239 41.2037C77.8239 42.9707 77.4703 44.7198 76.7838 46.348C76.0974 47.9762 75.092 49.4506 73.8269 50.6842L50.5809 73.4842C48.0029 76.0155 44.5299 77.4271 40.9169 77.4122Z" fill="url(#paint0_linear)"/>
    <path d="M9.85662 31.8419L31.6009 10.6209C34.0998 8.20383 37.4404 6.85261 40.917 6.8526C44.3936 6.8526 47.7342 8.20383 50.2331 10.6209L71.9767 31.8426C73.1972 33.0216 74.1679 34.4342 74.8308 35.9964C75.4937 37.5585 75.8353 39.2381 75.8353 40.9351C75.8352 42.632 75.4935 44.3116 74.8304 45.8737C74.1674 47.4358 73.1966 48.8484 71.976 50.0273L50.2324 71.2489C47.7334 73.6657 44.393 75.0167 40.9165 75.0165C37.44 75.0164 34.0997 73.6652 31.6009 71.2482L9.85662 50.0273C8.63593 48.8483 7.66511 47.4356 7.00206 45.8735C6.33901 44.3113 5.9973 42.6316 5.9973 40.9346C5.9973 39.2375 6.33901 37.5578 7.00206 35.9957C7.66511 34.4335 8.63593 33.0208 9.85662 31.8419Z" fill="url(#paint1_linear)"/>
    <path style="mix-blend-mode:multiply" d="M43.5131 67.4905C56.4139 67.4905 66.8721 57.0323 66.8721 44.1315C66.8721 31.2306 56.4139 20.7725 43.5131 20.7725C30.6122 20.7725 20.1541 31.2306 20.1541 44.1315C20.1541 57.0323 30.6122 67.4905 43.5131 67.4905Z" fill="url(#paint2_radial)"/>
    <path d="M49.6006 62.4697C60.9563 57.6736 66.2738 44.5799 61.4777 33.2242C56.6816 21.8685 43.5879 16.5509 32.2322 21.3471C20.8765 26.1432 15.5589 39.2369 20.3551 50.5926C25.1512 61.9483 38.2449 67.2658 49.6006 62.4697Z" fill="url(#paint3_linear)"/>
    <path style="mix-blend-mode:screen" opacity="0.41" d="M71.37 29.7857L50.583 8.99873C49.3138 7.72943 47.8069 6.72257 46.1485 6.03563C44.4901 5.34869 42.7126 4.99512 40.9175 4.99512C39.1225 4.99512 37.345 5.34869 35.6866 6.03563C34.0282 6.72257 32.5213 7.72943 31.252 8.99873L8.00404 32.2407C6.07816 34.1717 4.77313 36.6341 4.25642 39.3119C3.73971 41.9897 4.03487 44.7608 5.10404 47.2697C10.2429 48.1984 15.4549 48.663 20.677 48.6577C41.957 48.6587 60.661 41.1407 71.37 29.7857Z" fill="url(#paint4_radial)"/>
    <path fill-rule="evenodd" clip-rule="evenodd" d="M43.0129 34.3573C43.6659 34.3353 44.3129 34.3573 44.9709 34.3513H45.2399V30.9573C44.8919 30.9223 44.5279 30.8723 44.1629 30.8573C43.4929 30.8283 42.8239 30.7943 42.1519 30.8093C41.1392 30.803 40.1492 31.1093 39.3169 31.6863C38.8584 32.0208 38.4717 32.4439 38.1797 32.9305C37.8877 33.4171 37.6963 33.9574 37.6169 34.5193C37.5416 35.0011 37.5024 35.4878 37.4999 35.9753C37.4799 36.7363 37.4999 37.4973 37.4999 38.2603V38.5463H34.2439V42.3353H37.4729V51.8643H41.4189V42.3573H44.6379C44.8029 41.0953 44.9629 39.8473 45.1329 38.5483H44.4089C43.4939 38.5483 41.3939 38.5483 41.3939 38.5483C41.3939 38.5483 41.4049 36.6693 41.4269 35.8483C41.4549 34.7333 42.1169 34.3933 43.0129 34.3573Z" fill="white"/>
    <defs>
        <linearGradient id="paint0_linear" x1="49.404" y1="83.3505" x2="38.1637" y2="25.2632" gradientUnits="userSpaceOnUse">
            <stop stop-color="#B3B3B3"/>
            <stop offset="0.967" stop-color="#E6E6E6"/>
        </linearGradient>
        <linearGradient id="paint1_linear" x1="17.3854" y1="17.4037" x2="64.2865" y2="64.3048" gradientUnits="userSpaceOnUse">
            <stop stop-color="white"/>
            <stop offset="0.967" stop-color="#E6E6E6"/>
        </linearGradient>
        <radialGradient id="paint2_radial" cx="0" cy="0" r="1" gradientUnits="userSpaceOnUse" gradientTransform="translate(43.4196 43.9913) scale(22.5181)">
            <stop offset="0.014"/>
            <stop offset="0.147" stop-color="#030303"/>
            <stop offset="0.269" stop-color="#0E0E0E"/>
            <stop offset="0.387" stop-color="#212121"/>
            <stop offset="0.501" stop-color="#3B3B3B"/>
            <stop offset="0.614" stop-color="#5C5C5C"/>
            <stop offset="0.725" stop-color="#868686"/>
            <stop offset="0.835" stop-color="#B7B7B7"/>
            <stop offset="0.941" stop-color="#EEEEEE"/>
            <stop offset="0.97" stop-color="white"/>
        </radialGradient>
        <linearGradient id="paint3_linear" x1="32.2322" y1="21.3471" x2="49.6006" y2="62.4697" gradientUnits="userSpaceOnUse">
            <stop stop-color="#676C7C"/>
            <stop offset="1" stop-color="#2B2D34"/>
        </linearGradient>
        <radialGradient id="paint4_radial" cx="0" cy="0" r="1" gradientUnits="userSpaceOnUse" gradientTransform="translate(16.9986 55.6001) scale(42.7336 42.7457)">
            <stop offset="0.03" stop-color="white"/>
            <stop offset="0.201" stop-color="#C2C2C2"/>
            <stop offset="0.415" stop-color="#7E7E7E"/>
            <stop offset="0.608" stop-color="#474747"/>
            <stop offset="0.774" stop-color="#202020"/>
            <stop offset="0.905" stop-color="#080808"/>
            <stop offset="0.986"/>
        </radialGradient>
    </defs>
</svg>
