<svg width="81" height="82" viewBox="0 0 81 82" fill="none" xmlns="http://www.w3.org/2000/svg">
    <path d="M40.412 77.4122C36.7988 77.4278 33.3254 76.0166 30.747 73.4852L7.50101 50.6852C6.2357 49.4517 5.23012 47.9774 4.54352 46.3492C3.85691 44.7209 3.50317 42.9718 3.50317 41.2047C3.50317 39.4376 3.85691 37.6884 4.54352 36.0602C5.23012 34.432 6.2357 32.9577 7.50101 31.7242L30.747 8.92419C33.3343 6.40607 36.8021 4.99707 40.4125 4.99707C44.0229 4.99707 47.4907 6.40607 50.078 8.92419L73.324 31.7242C74.5891 32.9578 75.5944 34.4322 76.2809 36.0604C76.9673 37.6886 77.321 39.4377 77.321 41.2047C77.321 42.9717 76.9673 44.7208 76.2809 46.349C75.5944 47.9772 74.5891 49.4516 73.324 50.6852L50.078 73.4852C47.4993 76.0167 44.0256 77.4279 40.412 77.4122Z" fill="url(#paint0_linear)"/>
    <path d="M9.35174 31.8419L31.096 10.6209C33.5949 8.20383 36.9355 6.85261 40.4121 6.8526C43.8887 6.8526 47.2293 8.20383 49.7282 10.6209L71.4718 31.8426C72.6923 33.0216 73.663 34.4342 74.3259 35.9964C74.9888 37.5585 75.3304 39.2381 75.3304 40.9351C75.3303 42.632 74.9886 44.3116 74.3255 45.8737C73.6625 47.4358 72.6917 48.8484 71.4711 50.0273L49.7275 71.2489C47.2285 73.6657 43.8881 75.0167 40.4116 75.0165C36.9351 75.0164 33.5948 73.6652 31.096 71.2482L9.35174 50.0273C8.13104 48.8483 7.16023 47.4356 6.49718 45.8735C5.83413 44.3113 5.49242 42.6316 5.49242 40.9346C5.49242 39.2375 5.83413 37.5578 6.49718 35.9957C7.16023 34.4335 8.13104 33.0208 9.35174 31.8419Z" fill="url(#paint1_linear)"/>
    <path style="mix-blend-mode:multiply" d="M43.0082 67.4905C55.909 67.4905 66.3672 57.0323 66.3672 44.1315C66.3672 31.2306 55.909 20.7725 43.0082 20.7725C30.1073 20.7725 19.6492 31.2306 19.6492 44.1315C19.6492 57.0323 30.1073 67.4905 43.0082 67.4905Z" fill="url(#paint2_radial)"/>
    <path d="M49.0815 62.4763C60.4406 57.6883 65.7676 44.5985 60.9795 33.2394C56.1915 21.8802 43.1017 16.5533 31.7426 21.3413C20.3834 26.1293 15.0565 39.2191 19.8445 50.5783C24.6325 61.9374 37.7223 67.2643 49.0815 62.4763Z" fill="url(#paint3_linear)"/>
    <path style="mix-blend-mode:screen" opacity="0.41" d="M70.8641 29.7857L50.0771 8.99873C48.8078 7.72943 47.301 6.72257 45.6425 6.03563C43.9841 5.34869 42.2066 4.99512 40.4116 4.99512C38.6165 4.99512 36.8391 5.34869 35.1807 6.03563C33.5223 6.72257 32.0154 7.72943 30.7461 8.99873L7.4981 32.2407C5.57199 34.1709 4.2664 36.6325 3.74881 39.3097C3.23121 41.9869 3.52522 44.7577 4.59311 47.2667C9.73165 48.1954 14.9433 48.6599 20.1651 48.6547C41.4511 48.6587 60.1551 41.1407 70.8641 29.7857Z" fill="url(#paint4_radial)"/>
    <path d="M50.6831 36.7943C50.575 35.431 49.97 34.1549 48.983 33.2083C47.9356 32.2313 46.565 31.6746 45.133 31.6443C41.6725 31.4458 38.2024 31.4842 34.7471 31.7593C33.6612 31.888 32.6418 32.3493 31.8284 33.0801C31.0151 33.8109 30.4477 34.7754 30.2041 35.8413C29.7041 37.6273 29.804 45.8673 30.094 47.6343C30.2263 48.7449 30.7053 49.7855 31.4629 50.6083C32.2205 51.431 33.2181 51.9941 34.314 52.2173C35.971 52.6443 44.1141 52.5903 45.9371 52.2943C47.0477 52.1659 48.0897 51.6911 48.9154 50.9372C49.741 50.1833 50.3084 49.1887 50.5371 48.0943C51.0201 46.2573 50.8511 38.4503 50.6831 36.7943ZM48.7511 47.2943C48.6616 48.1342 48.276 48.9148 47.6635 49.4964C47.051 50.0779 46.2515 50.4224 45.4081 50.4683C43.7131 50.6543 36.1501 50.7563 34.5801 50.3163C33.8926 50.1498 33.273 49.7758 32.8056 49.2449C32.3381 48.7141 32.0453 48.0523 31.9671 47.3493C31.7009 43.821 31.7009 40.2776 31.9671 36.7493C32.0576 35.9139 32.4417 35.1378 33.051 34.5591C33.6602 33.9804 34.4551 33.6367 35.294 33.5893C38.7361 33.3626 42.1899 33.3763 45.63 33.6303C46.4696 33.7218 47.2492 34.1091 47.8293 34.7229C48.4094 35.3367 48.7521 36.1369 48.7961 36.9803C49.0159 40.4146 49.0009 43.86 48.7511 47.2923V47.2943ZM40.3511 36.6393C39.2861 36.6393 38.245 36.955 37.3595 37.5465C36.4739 38.138 35.7836 38.9788 35.3757 39.9625C34.9679 40.9463 34.8608 42.0289 35.068 43.0735C35.2753 44.1181 35.7876 45.0778 36.5401 45.8313C37.2927 46.5848 38.2517 47.0983 39.296 47.3069C40.3403 47.5155 41.423 47.4099 42.4073 47.0033C43.3916 46.5967 44.2333 45.9075 44.8259 45.0227C45.4186 44.1379 45.7357 43.0973 45.737 42.0323C45.7388 41.3247 45.6009 40.6238 45.3314 39.9695C45.0618 39.3153 44.6659 38.7207 44.1663 38.2196C43.6667 37.7186 43.0731 37.3211 42.4197 37.0497C41.7662 36.7784 41.0656 36.6385 40.358 36.6383L40.3511 36.6393ZM40.315 45.5103C39.6266 45.5038 38.9556 45.2935 38.3865 44.906C37.8175 44.5185 37.376 43.9711 37.1177 43.333C36.8594 42.6948 36.7959 41.9944 36.9352 41.3202C37.0745 40.646 37.4104 40.0282 37.9004 39.5447C38.3905 39.0611 39.0128 38.7336 39.6888 38.6034C40.3648 38.4731 41.0643 38.5461 41.6989 38.8129C42.3336 39.0798 42.8749 39.5286 43.2547 40.1028C43.6346 40.677 43.8358 41.3508 43.8331 42.0393C43.832 42.4985 43.7401 42.953 43.5626 43.3766C43.3852 43.8002 43.1257 44.1845 42.799 44.5073C42.4724 44.8301 42.0851 45.0851 41.6595 45.2576C41.2338 45.4301 40.7783 45.5166 40.319 45.5123L40.315 45.5103ZM47.2051 36.4373C47.2041 36.6872 47.1289 36.9311 46.9891 37.1383C46.8493 37.3454 46.6511 37.5064 46.4197 37.6008C46.1883 37.6951 45.9341 37.7187 45.6893 37.6685C45.4446 37.6182 45.2202 37.4964 45.0447 37.3186C44.8692 37.1407 44.7504 36.9147 44.7035 36.6692C44.6566 36.4238 44.6836 36.1699 44.7811 35.9398C44.8786 35.7097 45.0422 35.5138 45.2512 35.3768C45.4602 35.2398 45.7052 35.1679 45.9551 35.1703C46.1208 35.1701 46.2849 35.2029 46.4379 35.2666C46.5909 35.3303 46.7297 35.4238 46.8463 35.5415C46.963 35.6593 47.0551 35.799 47.1173 35.9526C47.1796 36.1061 47.2108 36.2706 47.2091 36.4363L47.2051 36.4373Z" fill="white"/>
    <defs>
        <linearGradient id="paint0_linear" x1="48.9011" y1="83.3504" x2="37.6611" y2="25.2639" gradientUnits="userSpaceOnUse">
            <stop stop-color="#B3B3B3"/>
            <stop offset="0.967" stop-color="#E6E6E6"/>
        </linearGradient>
        <linearGradient id="paint1_linear" x1="16.8805" y1="17.4037" x2="63.7816" y2="64.3048" gradientUnits="userSpaceOnUse">
            <stop stop-color="white"/>
            <stop offset="0.967" stop-color="#E6E6E6"/>
        </linearGradient>
        <radialGradient id="paint2_radial" cx="0" cy="0" r="1" gradientUnits="userSpaceOnUse" gradientTransform="translate(42.9147 43.9913) scale(22.5181)">
            <stop offset="0.014"/>
            <stop offset="0.147" stop-color="#030303"/>
            <stop offset="0.269" stop-color="#0E0E0E"/>
            <stop offset="0.387" stop-color="#212121"/>
            <stop offset="0.501" stop-color="#3B3B3B"/>
            <stop offset="0.614" stop-color="#5C5C5C"/>
            <stop offset="0.725" stop-color="#868686"/>
            <stop offset="0.835" stop-color="#B7B7B7"/>
            <stop offset="0.941" stop-color="#EEEEEE"/>
            <stop offset="0.97" stop-color="white"/>
        </radialGradient>
        <linearGradient id="paint3_linear" x1="31.7426" y1="21.3413" x2="49.0815" y2="62.4763" gradientUnits="userSpaceOnUse">
            <stop stop-color="#676C7C"/>
            <stop offset="1" stop-color="#2B2D34"/>
        </linearGradient>
        <radialGradient id="paint4_radial" cx="0" cy="0" r="1" gradientUnits="userSpaceOnUse" gradientTransform="translate(47.0172 55.5967) scale(65.9495 42.7428)">
            <stop offset="0.03" stop-color="white"/>
            <stop offset="0.201" stop-color="#C2C2C2"/>
            <stop offset="0.415" stop-color="#7E7E7E"/>
            <stop offset="0.608" stop-color="#474747"/>
            <stop offset="0.774" stop-color="#202020"/>
            <stop offset="0.905" stop-color="#080808"/>
            <stop offset="0.986"/>
        </radialGradient>
    </defs>
</svg>
