<svg width="364" height="406" viewBox="0 0 364 406" fill="none" xmlns="http://www.w3.org/2000/svg">
<path opacity="0.4" d="M209.057 279.978L198.353 274.107L207.856 268.618L218.561 274.489L209.057 279.978Z" fill="#D6D8E5"/>
<path opacity="0.4" d="M266.613 313.878L255.909 308L265.412 302.519L276.108 308.389L266.613 313.878Z" fill="#D6D8E5"/>
<path d="M213.237 277.509L203.141 271.679L235.295 168.912L245.391 174.742L213.237 277.509Z" fill="#B1B4C4"/>
<path d="M219.153 274.245L209.057 268.415L241.211 165.648L251.299 171.479L219.153 274.245Z" fill="#9EA2B2"/>
<path d="M213.237 277.509L203.141 271.679L235.295 168.912L245.391 174.742L213.237 277.509Z" fill="#B1B4C4"/>
<path d="M278.486 307.252L268.317 301.373L254.432 172.014L264.527 177.852L278.486 307.252Z" fill="#9EA2B2"/>
<path d="M271.418 311.288L261.249 305.41L247.363 176.05L257.459 181.88L271.418 311.288Z" fill="#B1B4C4"/>
<path d="M351.437 230.925L161.744 121.346L170.314 116.393L360.007 225.972L351.437 230.925Z" fill="#D6D8E5"/>
<path d="M351.437 240.807L161.744 131.228V121.321L351.437 230.901V240.807Z" fill="#B1B4C4"/>
<path d="M347.598 223.495L172.911 122.58V0L347.598 100.915V223.495Z" fill="white"/>
<path d="M360.145 235.78L351.437 240.807V230.746L360.145 225.72V235.78Z" fill="#9EA2B2"/>
<path d="M200.244 36.5235L185.774 28.168V22.5977L200.244 30.9531V36.5235Z" fill="#D6D8E5"/>
<path d="M231.854 54.7854L206.404 40.0882V34.5098L231.854 49.2151V54.7854Z" fill="#D6D8E5"/>
<path d="M200.244 47.0469L185.774 38.6914V33.1211L200.244 41.4766V47.0469Z" fill="#D6D8E5"/>
<path d="M231.854 65.3088L206.404 50.6116V45.0332L231.854 59.7385V65.3088Z" fill="#D6D8E5"/>
<path d="M200.244 59.1214L185.774 50.7659V45.1875L200.244 53.5511V59.1214Z" fill="#D6D8E5"/>
<path d="M231.854 77.384L206.404 62.6787V57.1084L231.854 71.8137V77.384Z" fill="#D6D8E5"/>
<path d="M200.244 71.1966L185.774 62.833V57.2627L200.244 65.6182V71.1966Z" fill="#D6D8E5"/>
<path d="M231.854 89.4583L206.404 74.7529V69.1826L231.854 83.8879V89.4583Z" fill="#D6D8E5"/>
<path d="M250.65 67.5747C253.855 63.4335 259.577 62.7677 266.15 66.5516C266.783 66.917 267.408 67.3149 268.017 67.7371L266.191 87.5986L250.593 67.6559L250.65 67.5747Z" fill="#D5572E"/>
<path d="M283.177 89.9617L266.134 87.5988L268.001 67.7373C274.98 72.5849 280.799 81.2896 283.177 89.9617Z" fill="#571C08"/>
<path d="M284.37 98.1221C284.37 107.054 279.501 111.926 272.708 111.041L266.191 87.5986L283.234 89.9616C283.981 92.6174 284.364 95.3629 284.37 98.1221Z" fill="#F9CB07"/>
<path d="M250.593 67.6554C248.905 69.8722 247.931 73.0633 247.931 77.0746C247.931 88.7025 256.087 102.831 266.15 108.645C268.157 109.86 270.382 110.671 272.7 111.032L266.191 87.5981L250.69 67.5742L250.593 67.6554Z" fill="#8B5E1A"/>
<path d="M301.023 96.6767C304.229 92.5355 309.95 91.8696 316.524 95.6454C317.157 96.0108 317.774 96.4087 318.39 96.8391L316.508 116.701L300.942 96.7497L301.023 96.6767Z" fill="#D6D8E5"/>
<path d="M333.55 119.055L316.508 116.7L318.374 96.8389C325.354 101.678 331.164 110.383 333.55 119.055Z" fill="#DD990E"/>
<path d="M334.743 127.225C334.743 136.157 329.874 141.029 323.081 140.135L316.508 116.701L333.55 119.056C334.313 121.713 334.714 124.461 334.743 127.225Z" fill="#EB6438"/>
<path d="M300.958 96.7498C299.278 98.9747 298.304 102.158 298.304 106.169C298.304 117.797 306.461 131.934 316.524 137.748C318.53 138.963 320.755 139.772 323.073 140.127L316.508 116.701L301.007 96.6768L300.958 96.7498Z" fill="#571C08"/>
<path d="M250.593 154.759C250.593 154.759 262.937 131.211 294.287 161.255C325.638 191.299 333.55 167.994 333.55 167.994" stroke="#D6D8E5" stroke-width="1.42" stroke-miterlimit="10"/>
<path d="M279.113 151.788C280.134 151.198 280.135 149.287 279.115 147.52C278.096 145.753 276.441 144.799 275.421 145.388C274.4 145.978 274.399 147.889 275.418 149.656C276.438 151.423 278.092 152.377 279.113 151.788Z" fill="#D6D8E5"/>
<path d="M256.946 151.745C257.966 151.155 257.967 149.244 256.948 147.477C255.928 145.71 254.274 144.756 253.253 145.345C252.232 145.935 252.231 147.846 253.251 149.613C254.271 151.38 255.925 152.334 256.946 151.745Z" fill="#D6D8E5"/>
<path d="M304.006 170.413C305.032 169.823 305.037 167.906 304.017 166.13C302.997 164.355 301.339 163.394 300.314 163.984C299.288 164.574 299.283 166.491 300.303 168.266C301.323 170.041 302.981 171.002 304.006 170.413Z" fill="#D6D8E5"/>
<path d="M329.497 177.867C330.518 177.277 330.519 175.366 329.499 173.599C328.479 171.832 326.825 170.878 325.804 171.467C324.784 172.057 324.783 173.968 325.802 175.735C326.822 177.502 328.476 178.456 329.497 177.867Z" fill="#D6D8E5"/>
<path d="M190.724 121.264L185.774 118.398V101.216L190.724 104.082V121.264Z" fill="#D6D8E5"/>
<path d="M204.44 129.181L199.481 126.315V103.1L204.44 105.966V129.181Z" fill="#D6D8E5"/>
<path d="M218.147 137.098L213.188 134.24V100.964L218.147 103.822V137.098Z" fill="#D6D8E5"/>
<path d="M231.854 145.015L226.895 142.157V100.834L231.854 103.692V145.015Z" fill="#D6D8E5"/>
<path d="M271.417 311.288L278.486 307.252L270.022 298.369L271.417 311.288Z" fill="#9EA2B2"/>
<path d="M213.237 277.509L219.153 274.245L216.881 265.865L213.237 277.509Z" fill="#9EA2B2"/>
<path opacity="0.3" d="M107.134 374.284C122.803 374.284 135.506 366.944 135.506 357.889C135.506 348.835 122.803 341.495 107.134 341.495C91.4643 341.495 78.7617 348.835 78.7617 357.889C78.7617 366.944 91.4643 374.284 107.134 374.284Z" fill="#D6D8E5"/>
<path d="M114.154 370.069C129.823 370.069 142.526 362.729 142.526 353.675C142.526 344.62 129.823 337.28 114.154 337.28C98.4843 337.28 85.7817 344.62 85.7817 353.675C85.7817 362.729 98.4843 370.069 114.154 370.069Z" fill="#DD990E"/>
<path d="M85.7898 353.918V346.456L91.3977 351.45L85.7898 353.918Z" fill="#DD990E"/>
<path d="M142.534 346.651V353.675L139.661 356.72L138.257 348.673L142.534 346.651Z" fill="#DD990E"/>
<path d="M114.154 363.045C129.823 363.045 142.526 355.705 142.526 346.651C142.526 337.597 129.823 330.257 114.154 330.257C98.4843 330.257 85.7817 337.597 85.7817 346.651C85.7817 355.705 98.4843 363.045 114.154 363.045Z" fill="#F9CB07"/>
<path d="M134.435 347.155C134.142 349.915 132.178 352.636 128.518 354.747C120.589 359.326 107.726 359.326 99.7892 354.747C96.1372 352.636 94.1651 349.915 93.8892 347.155C93.5402 343.907 95.5123 340.659 99.7892 338.158C107.726 333.57 120.589 333.57 128.518 338.158C132.795 340.626 134.767 343.923 134.435 347.155Z" fill="#CC8B09"/>
<path d="M134.435 347.154C134.142 349.915 132.178 352.635 128.518 354.746C120.589 359.326 107.726 359.326 99.7892 354.746C96.1372 352.635 94.1651 349.915 93.8892 347.154C94.1651 344.393 96.1372 341.673 99.7892 339.562C107.726 334.974 120.589 334.974 128.518 339.562C132.178 341.673 134.142 344.393 134.435 347.154Z" fill="#E8A30A"/>
<path d="M113.862 343.314C113.611 343.313 113.361 343.335 113.115 343.378C112.782 343.419 112.409 343.492 111.995 343.573C111.581 343.655 111.143 343.776 110.697 343.906C110.262 344.04 109.836 344.203 109.422 344.393L112.669 346.277L113.261 346.074C114.073 345.798 114.884 345.563 115.606 345.368C116.296 345.181 117.003 345.064 117.717 345.019C118.369 344.979 119.023 345.023 119.664 345.149C120.316 345.291 120.941 345.538 121.515 345.879C122.084 346.162 122.57 346.587 122.927 347.114C123.043 347.302 123.121 347.512 123.156 347.731C123.191 347.95 123.182 348.173 123.13 348.388C122.992 348.869 122.729 349.303 122.367 349.647C121.916 350.096 121.415 350.491 120.873 350.824L122.951 352.018L121.823 352.676L119.729 351.466C118.73 351.956 117.686 352.35 116.613 352.643C115.489 352.954 114.34 353.168 113.18 353.285L112.084 351.32C112.287 351.32 112.596 351.32 113.001 351.255C113.407 351.19 113.87 351.125 114.373 351.019C114.876 350.914 115.404 350.776 115.996 350.613C116.551 350.453 117.093 350.252 117.619 350.012L114.373 348.145L113.943 348.291L113.505 348.421C112.768 348.674 112.017 348.886 111.256 349.054C110.628 349.204 109.987 349.291 109.341 349.314C108.774 349.336 108.206 349.281 107.653 349.152C107.106 349.021 106.581 348.81 106.095 348.527C105.558 348.245 105.092 347.845 104.732 347.357C104.47 346.992 104.341 346.548 104.366 346.099C104.417 345.633 104.603 345.192 104.902 344.832C105.279 344.366 105.725 343.96 106.225 343.63L104.301 342.518L105.43 341.868L107.337 342.964C108.23 342.522 109.169 342.179 110.137 341.941C111.057 341.707 111.993 341.536 112.936 341.43L113.862 343.314ZM108.311 346.724C108.742 346.966 109.238 347.071 109.731 347.024C110.392 346.951 111.042 346.804 111.67 346.586L108.619 344.824C107.499 345.549 107.396 346.183 108.311 346.724ZM119.023 347.617C118.558 347.361 118.022 347.264 117.497 347.341C116.776 347.433 116.064 347.591 115.371 347.812L118.406 349.566C119.697 348.786 119.908 348.137 119.023 347.633V347.617Z" fill="#CC8B09"/>
<path d="M112.101 351.32C112.101 351.247 112.101 350.224 112.101 350.224L113.35 351.036L112.807 351.848L112.101 351.32Z" fill="#CC8B09"/>
<path d="M122.967 352.018V350.922L120.265 351.125L121.815 352.18L122.967 352.018Z" fill="#CC8B09"/>
<path d="M123.194 347.983V346.87L121.174 347.601L123.194 347.983Z" fill="#CC8B09"/>
<path d="M114.827 347.918L115.501 347.276L117.871 348.9L117.725 349.379C117.725 349.379 115.955 348.632 115.899 348.567L114.827 347.918Z" fill="#CC8B09"/>
<path d="M108.627 344.451L111.768 346.237L112.417 345.766C112.417 345.766 112.019 345.319 111.987 345.271C111.704 344.954 111.376 344.68 111.013 344.459C110.778 344.418 109.284 343.744 109.284 343.744L108.627 344.451Z" fill="#CC8B09"/>
<path d="M113.862 343.313V342.217L112.417 341.746L112.101 342.607L112.182 343.005L113.862 343.313Z" fill="#CC8B09"/>
<path d="M104.261 342.518V341.422L105.933 341.601L105.397 342.664L104.261 342.518Z" fill="#CC8B09"/>
<path d="M104.318 346.254V345.101H106.241L105.77 346.132L104.959 347.041L104.318 346.254Z" fill="#CC8B09"/>
<path d="M113.862 342.218C113.612 342.214 113.362 342.233 113.115 342.275C112.782 342.323 112.409 342.388 111.995 342.478C111.581 342.567 111.143 342.673 110.697 342.811C110.261 342.938 109.835 343.099 109.422 343.29L112.669 345.182L113.261 344.97C114.073 344.694 114.884 344.459 115.606 344.272C116.296 344.086 117.003 343.969 117.717 343.923C118.369 343.88 119.024 343.923 119.664 344.053C120.317 344.189 120.943 344.433 121.515 344.776C122.082 345.061 122.568 345.486 122.927 346.01C123.043 346.198 123.121 346.408 123.155 346.627C123.19 346.846 123.181 347.069 123.13 347.285C122.994 347.766 122.73 348.201 122.367 348.543C121.916 348.992 121.415 349.388 120.873 349.721L122.951 350.922L121.823 351.572L119.729 350.362C118.731 350.856 117.688 351.25 116.613 351.54C115.49 351.854 114.341 352.069 113.18 352.181L112.084 350.224C112.391 350.216 112.697 350.192 113.001 350.151C113.462 350.097 113.92 350.018 114.373 349.916C114.876 349.81 115.404 349.672 115.996 349.51C116.551 349.352 117.093 349.153 117.619 348.917L114.373 347.041L113.943 347.187L113.505 347.325C112.693 347.593 111.938 347.804 111.256 347.959C110.628 348.106 109.986 348.19 109.341 348.21C108.774 348.231 108.207 348.179 107.653 348.056C107.105 347.926 106.579 347.712 106.095 347.423C105.558 347.141 105.092 346.742 104.732 346.253C104.469 345.888 104.34 345.444 104.366 344.995C104.417 344.529 104.603 344.089 104.902 343.728C105.277 343.263 105.723 342.86 106.225 342.534L104.301 341.422L105.43 340.764L107.337 341.869C108.229 341.423 109.168 341.078 110.137 340.837C111.056 340.602 111.992 340.434 112.936 340.334L113.862 342.218ZM108.311 345.636C108.742 345.881 109.237 345.989 109.731 345.945C110.39 345.864 111.04 345.717 111.67 345.506L108.619 343.736C107.499 344.478 107.396 345.111 108.311 345.636ZM119.023 346.53C118.558 346.274 118.022 346.177 117.497 346.253C116.776 346.349 116.065 346.507 115.371 346.724L118.406 348.478C119.697 347.691 119.908 347.041 119.023 346.53Z" fill="#F9CA06"/>
<path d="M116.475 361.324C132.144 361.324 144.847 353.984 144.847 344.929C144.847 335.875 132.144 328.535 116.475 328.535C100.805 328.535 88.1027 335.875 88.1027 344.929C88.1027 353.984 100.805 361.324 116.475 361.324Z" fill="#DD990E"/>
<path d="M88.1108 345.181V337.711L93.7106 342.705L88.1108 345.181Z" fill="#DD990E"/>
<path d="M144.847 337.906V344.93L141.982 347.975L140.578 339.936L144.847 337.906Z" fill="#DD990E"/>
<path d="M116.475 354.3C132.144 354.3 144.847 346.96 144.847 337.906C144.847 328.852 132.144 321.512 116.475 321.512C100.805 321.512 88.1027 328.852 88.1027 337.906C88.1027 346.96 100.805 354.3 116.475 354.3Z" fill="#F9CB07"/>
<path d="M136.748 338.417C136.463 341.178 134.5 343.898 130.839 346.009C122.902 350.589 110.047 350.589 102.11 346.009C98.4501 343.898 96.4861 341.178 96.2102 338.417C95.8612 335.169 97.8333 331.921 102.11 329.42C110.047 324.833 122.902 324.833 130.839 329.42C135.116 331.881 137.088 335.186 136.748 338.417Z" fill="#CC8B09"/>
<path d="M136.748 338.418C136.463 341.179 134.5 343.899 130.839 346.01C122.902 350.59 110.047 350.59 102.11 346.01C98.4501 343.899 96.4861 341.179 96.2102 338.418C96.4861 335.657 98.4501 332.937 102.11 330.826C110.047 326.238 122.902 326.238 130.839 330.826C134.5 332.921 136.463 335.657 136.748 338.418Z" fill="#E8A30A"/>
<path d="M116.174 334.545C115.924 334.541 115.675 334.56 115.428 334.602C115.095 334.65 114.722 334.715 114.308 334.805C113.894 334.894 113.496 334.999 113.018 335.137C112.581 335.268 112.155 335.431 111.743 335.625L114.99 337.509L115.574 337.297C116.385 337.021 117.197 336.786 117.927 336.599C118.617 336.412 119.324 336.295 120.038 336.25C120.687 336.207 121.339 336.25 121.977 336.38C122.631 336.519 123.259 336.763 123.836 337.103C124.401 337.388 124.884 337.812 125.24 338.337C125.357 338.525 125.436 338.734 125.472 338.953C125.509 339.172 125.501 339.396 125.451 339.612C125.312 340.091 125.048 340.525 124.688 340.87C124.239 341.322 123.738 341.717 123.194 342.048L125.272 343.249L124.136 343.899L122.042 342.689C121.047 343.183 120.006 343.577 118.934 343.866C117.81 344.179 116.662 344.394 115.501 344.508L114.43 342.584C114.736 342.576 115.043 342.551 115.347 342.51C115.805 342.455 116.26 342.377 116.71 342.275C117.213 342.169 117.749 342.031 118.333 341.869C118.889 341.715 119.432 341.516 119.956 341.276L116.71 339.4L116.288 339.547L115.842 339.685C115.03 339.955 114.284 340.166 113.602 340.318C112.973 340.464 112.332 340.549 111.687 340.57C111.12 340.594 110.552 340.542 109.999 340.415C109.448 340.284 108.92 340.07 108.432 339.782C107.9 339.5 107.437 339.104 107.077 338.621C106.815 338.255 106.687 337.811 106.712 337.362C106.757 336.893 106.944 336.448 107.247 336.088C107.619 335.622 108.063 335.219 108.562 334.894L106.639 333.781L107.775 333.124L109.682 334.228C110.575 333.783 111.514 333.437 112.482 333.197C113.402 332.961 114.338 332.793 115.282 332.693L116.174 334.545ZM110.632 337.963C111.058 338.212 111.552 338.32 112.044 338.272C112.706 338.192 113.359 338.045 113.991 337.833L110.932 336.071C109.812 336.824 109.712 337.465 110.632 337.996V337.963ZM121.344 338.856C120.878 338.603 120.343 338.509 119.818 338.588C119.095 338.681 118.381 338.836 117.684 339.051L120.719 340.805C122.018 340.05 122.221 339.417 121.344 338.889V338.856Z" fill="#CC8B09"/>
<path d="M114.43 342.583C114.43 342.502 114.43 341.479 114.43 341.479L115.679 342.291L115.136 343.103L114.43 342.583Z" fill="#CC8B09"/>
<path d="M125.288 343.281V342.177L122.586 342.388L124.136 343.443L125.288 343.281Z" fill="#CC8B09"/>
<path d="M125.516 339.237V338.125L123.495 338.856L125.516 339.237Z" fill="#CC8B09"/>
<path d="M117.148 339.181L117.822 338.539L120.192 340.163L120.046 340.642C120.046 340.642 118.268 339.895 118.212 339.83C118.155 339.765 117.148 339.181 117.148 339.181Z" fill="#CC8B09"/>
<path d="M110.94 335.713L114.089 337.492L114.73 337.029L114.308 336.533C114.026 336.212 113.694 335.938 113.326 335.721C113.091 335.673 111.605 335.007 111.605 335.007L110.94 335.713Z" fill="#CC8B09"/>
<path d="M116.175 334.576V333.472L114.73 333.001L114.422 333.87L114.495 334.26L116.175 334.576Z" fill="#CC8B09"/>
<path d="M106.574 333.781V332.677L108.254 332.855L107.71 333.927L106.574 333.781Z" fill="#CC8B09"/>
<path d="M106.639 337.516V336.371H108.562L108.091 337.394L107.28 338.312L106.639 337.516Z" fill="#CC8B09"/>
<path d="M116.174 333.473C115.924 333.473 115.674 333.495 115.428 333.538C115.095 333.578 114.722 333.651 114.308 333.733C113.894 333.814 113.496 333.936 113.018 334.065C112.583 334.2 112.157 334.362 111.743 334.553L114.99 336.437L115.574 336.234C116.385 335.957 117.197 335.722 117.927 335.527C118.617 335.34 119.324 335.223 120.038 335.178C120.687 335.139 121.339 335.182 121.977 335.308C122.632 335.45 123.259 335.697 123.836 336.039C124.403 336.321 124.887 336.747 125.24 337.273C125.357 337.461 125.436 337.67 125.472 337.889C125.509 338.108 125.501 338.332 125.451 338.548C125.31 339.026 125.047 339.46 124.688 339.806C124.237 340.256 123.736 340.651 123.194 340.984L125.272 342.177L124.136 342.835L122.042 341.625C121.046 342.115 120.005 342.509 118.934 342.803C117.809 343.112 116.661 343.326 115.501 343.444L114.43 341.479C114.633 341.479 114.933 341.479 115.347 341.414C115.761 341.349 116.207 341.284 116.71 341.179C117.213 341.073 117.749 340.935 118.333 340.773C118.888 340.612 119.431 340.411 119.956 340.172L116.71 338.304L116.288 338.45L115.842 338.588C115.107 338.836 114.359 339.045 113.602 339.214C112.973 339.362 112.332 339.449 111.687 339.473C111.119 339.495 110.551 339.441 109.999 339.311C109.449 339.179 108.922 338.968 108.432 338.686C107.899 338.402 107.436 338.002 107.077 337.516C106.815 337.151 106.687 336.707 106.712 336.258C106.758 335.791 106.945 335.35 107.247 334.991C107.621 334.525 108.064 334.12 108.562 333.789L106.639 332.677L107.775 332.027L109.682 333.124C110.575 332.681 111.514 332.338 112.482 332.1C113.403 331.867 114.338 331.696 115.282 331.589L116.174 333.473ZM110.632 336.899C111.061 337.14 111.553 337.245 112.044 337.2C112.707 337.128 113.361 336.981 113.991 336.761L110.932 334.999C109.812 335.73 109.712 336.363 110.632 336.899ZM121.344 337.793C120.879 337.537 120.343 337.44 119.818 337.516C119.094 337.608 118.38 337.766 117.684 337.987L120.719 339.741C122.018 338.946 122.221 338.296 121.344 337.793Z" fill="#F9CA06"/>
<path d="M114.73 352.911C130.399 352.911 143.102 345.571 143.102 336.516C143.102 327.462 130.399 320.122 114.73 320.122C99.0605 320.122 86.3579 327.462 86.3579 336.516C86.3579 345.571 99.0605 352.911 114.73 352.911Z" fill="#DD990E"/>
<path d="M86.366 336.768V329.298L91.9739 334.292L86.366 336.768Z" fill="#DD990E"/>
<path d="M143.11 329.493V336.517L140.245 339.562L138.833 331.515L143.11 329.493Z" fill="#DD990E"/>
<path d="M114.73 345.887C130.399 345.887 143.102 338.547 143.102 329.493C143.102 320.439 130.399 313.099 114.73 313.099C99.0605 313.099 86.3579 320.439 86.3579 329.493C86.3579 338.547 99.0605 345.887 114.73 345.887Z" fill="#F9CB07"/>
<path d="M135.011 329.996C134.727 332.757 132.755 335.477 129.103 337.597C121.166 342.176 108.302 342.176 100.373 337.597C96.7134 335.477 94.7494 332.725 94.4654 329.996C94.1245 326.748 96.0885 323.5 100.373 320.999C108.302 316.412 121.166 316.412 129.103 320.999C133.371 323.468 135.352 326.765 135.011 329.996Z" fill="#CC8B09"/>
<path d="M135.011 329.996C134.727 332.757 132.755 335.477 129.103 337.596C121.166 342.176 108.302 342.176 100.374 337.596C96.7134 335.477 94.7494 332.724 94.4654 329.996C94.7494 327.235 96.7134 324.523 100.374 322.404C108.302 317.816 121.166 317.816 129.103 322.404C132.755 324.523 134.719 327.235 135.011 329.996Z" fill="#E8A30A"/>
<path d="M114.43 326.163C114.18 326.16 113.93 326.179 113.683 326.22C113.35 326.269 112.977 326.334 112.563 326.423C112.127 326.511 111.697 326.623 111.273 326.756C110.836 326.883 110.41 327.043 109.999 327.235L113.245 329.119L113.829 328.916C114.641 328.64 115.452 328.405 116.175 328.21C116.865 328.028 117.572 327.911 118.285 327.861C118.937 327.824 119.592 327.87 120.232 327.999C120.887 328.135 121.515 328.38 122.091 328.721C122.656 329.006 123.14 329.431 123.495 329.955C123.611 330.144 123.689 330.354 123.724 330.573C123.759 330.791 123.75 331.015 123.698 331.23C123.56 331.71 123.297 332.145 122.935 332.489C122.487 332.938 121.989 333.333 121.45 333.666L123.519 334.86L122.391 335.518L120.297 334.308C119.3 334.803 118.256 335.197 117.181 335.485C116.057 335.796 114.908 336.01 113.748 336.127L112.661 334.17C112.965 334.162 113.268 334.137 113.569 334.097C114.03 334.042 114.488 333.964 114.941 333.861C115.444 333.756 115.972 333.618 116.564 333.455C117.119 333.297 117.661 333.099 118.187 332.862L114.941 330.987L114.519 331.133L114.073 331.271C113.261 331.539 112.506 331.75 111.825 331.904C111.198 332.047 110.56 332.131 109.917 332.156C109.351 332.177 108.783 332.125 108.229 332.002C107.679 331.869 107.151 331.656 106.663 331.368C106.126 331.087 105.66 330.687 105.3 330.199C105.037 329.834 104.908 329.39 104.934 328.94C104.985 328.475 105.171 328.034 105.47 327.674C105.849 327.21 106.295 326.804 106.793 326.472L104.87 325.368L105.998 324.71L107.905 325.814C108.798 325.369 109.736 325.023 110.705 324.783C111.625 324.549 112.561 324.378 113.505 324.271L114.43 326.163ZM108.887 329.582C109.314 329.829 109.808 329.934 110.299 329.882C110.959 329.809 111.609 329.664 112.239 329.452L109.187 327.682C108.075 328.421 107.937 329.054 108.895 329.582H108.887ZM119.599 330.475C119.132 330.217 118.593 330.12 118.066 330.199C117.345 330.295 116.633 330.453 115.939 330.67L118.974 332.424C120.273 331.628 120.484 330.981 119.607 330.483L119.599 330.475Z" fill="#CC8B09"/>
<path d="M112.685 334.17C112.685 334.089 112.685 333.065 112.685 333.065L113.927 333.877L113.383 334.689L112.685 334.17Z" fill="#CC8B09"/>
<path d="M123.543 334.86V333.764L120.849 333.967L122.399 335.03L123.543 334.86Z" fill="#CC8B09"/>
<path d="M123.771 330.824V329.712L121.75 330.443L123.771 330.824Z" fill="#CC8B09"/>
<path d="M115.404 330.768L116.077 330.118L118.447 331.742L118.301 332.229C118.301 332.229 116.532 331.482 116.475 331.417L115.404 330.768Z" fill="#CC8B09"/>
<path d="M109.203 327.3L112.352 329.079L112.993 328.616C112.993 328.616 112.596 328.161 112.571 328.112C112.547 328.064 111.825 327.341 111.589 327.3C111.354 327.26 109.861 326.586 109.861 326.586L109.203 327.3Z" fill="#CC8B09"/>
<path d="M114.438 326.163V325.059L112.993 324.588L112.685 325.449L112.758 325.846L114.438 326.163Z" fill="#CC8B09"/>
<path d="M104.837 325.368V324.264L106.509 324.442L105.973 325.514L104.837 325.368Z" fill="#CC8B09"/>
<path d="M104.902 329.103V327.958H106.817L106.355 328.981L105.543 329.899L104.902 329.103Z" fill="#CC8B09"/>
<path d="M114.43 325.059C114.18 325.06 113.93 325.079 113.683 325.116C113.35 325.165 112.977 325.23 112.563 325.319C112.149 325.408 111.752 325.522 111.273 325.652C110.837 325.785 110.412 325.948 109.999 326.139L113.245 328.023L113.829 327.812C114.641 327.536 115.452 327.309 116.175 327.114C116.865 326.928 117.571 326.811 118.285 326.765C118.937 326.721 119.592 326.765 120.232 326.894C120.886 327.035 121.514 327.279 122.091 327.617C122.666 327.901 123.158 328.329 123.519 328.859C123.636 329.05 123.713 329.261 123.748 329.481C123.783 329.701 123.774 329.926 123.722 330.142C123.584 330.62 123.321 331.052 122.959 331.393C122.514 331.844 122.015 332.24 121.474 332.57L123.544 333.772L122.415 334.422L120.322 333.22C119.324 333.712 118.28 334.104 117.205 334.389C116.081 334.702 114.933 334.92 113.772 335.039L112.685 333.074C112.989 333.066 113.292 333.041 113.594 333.001C114.055 332.95 114.513 332.872 114.965 332.765C115.469 332.66 115.996 332.522 116.588 332.359C117.144 332.205 117.687 332.006 118.212 331.766L114.965 329.891C114.827 329.947 114.686 329.995 114.543 330.037L114.097 330.175C113.285 330.443 112.531 330.654 111.849 330.808C111.223 330.953 110.584 331.04 109.942 331.068C109.375 331.086 108.807 331.032 108.254 330.906C107.702 330.777 107.174 330.563 106.687 330.272C106.149 329.996 105.682 329.599 105.324 329.111C105.063 328.746 104.934 328.302 104.959 327.853C105.007 327.384 105.194 326.94 105.494 326.578C105.874 326.116 106.319 325.714 106.817 325.384L104.894 324.272L106.022 323.614L107.929 324.718C108.822 324.273 109.761 323.927 110.729 323.687C111.649 323.452 112.585 323.283 113.529 323.184L114.43 325.059ZM108.887 328.478C109.313 328.728 109.807 328.836 110.299 328.786C110.959 328.709 111.609 328.562 112.239 328.348L109.187 326.586C108.075 327.317 107.937 327.95 108.895 328.478H108.887ZM119.599 329.371C119.13 329.12 118.592 329.026 118.066 329.103C117.345 329.196 116.633 329.351 115.939 329.566L118.974 331.32C120.273 330.535 120.484 329.885 119.607 329.371H119.599Z" fill="#F9CA06"/>
<path d="M117.148 344.791C132.818 344.791 145.52 337.452 145.52 328.397C145.52 319.343 132.818 312.003 117.148 312.003C101.479 312.003 88.7763 319.343 88.7763 328.397C88.7763 337.452 101.479 344.791 117.148 344.791Z" fill="#DD990E"/>
<path d="M88.7763 328.649V321.179L94.3842 326.173L88.7763 328.649Z" fill="#DD990E"/>
<path d="M145.52 321.374V328.398L142.656 331.443L141.252 323.404L145.52 321.374Z" fill="#DD990E"/>
<path d="M117.148 337.768C132.818 337.768 145.52 330.428 145.52 321.374C145.52 312.319 132.818 304.979 117.148 304.979C101.479 304.979 88.7763 312.319 88.7763 321.374C88.7763 330.428 101.479 337.768 117.148 337.768Z" fill="#F9CB07"/>
<path d="M137.421 321.885C137.137 324.646 135.173 327.366 131.513 329.477C123.576 334.057 110.721 334.057 102.784 329.477C99.1237 327.366 97.1597 324.646 96.8757 321.885C96.5348 318.637 98.4988 315.348 102.784 312.888C110.721 308.3 123.576 308.3 131.513 312.888C135.79 315.348 137.762 318.653 137.421 321.885Z" fill="#CC8B09"/>
<path d="M137.421 321.886C137.137 324.646 135.173 327.367 131.513 329.478C123.576 334.057 110.721 334.057 102.784 329.478C99.1237 327.367 97.1597 324.646 96.8757 321.886C97.1597 319.125 99.1237 316.405 102.784 314.293C110.721 309.706 123.576 309.706 131.513 314.293C135.173 316.405 137.153 319.117 137.421 321.886Z" fill="#E8A30A"/>
<path d="M116.864 318.045C116.614 318.041 116.364 318.06 116.118 318.102C115.785 318.151 115.412 318.216 114.998 318.305C114.584 318.394 114.186 318.508 113.707 318.638C113.271 318.768 112.845 318.931 112.433 319.125L115.679 321.009L116.264 320.798C117.075 320.522 117.887 320.294 118.609 320.099C119.302 319.913 120.012 319.796 120.727 319.75C121.377 319.707 122.029 319.751 122.667 319.88C123.321 320.019 123.949 320.263 124.525 320.603C125.091 320.888 125.574 321.313 125.929 321.837C126.047 322.025 126.126 322.235 126.162 322.453C126.198 322.672 126.191 322.896 126.14 323.112C126.001 323.591 125.738 324.025 125.378 324.37C124.929 324.822 124.428 325.217 123.884 325.548L125.962 326.75L124.826 327.399L122.732 326.197C121.737 326.688 120.696 327.08 119.624 327.367C118.499 327.678 117.351 327.896 116.191 328.016L115.095 326.051C115.402 326.043 115.708 326.019 116.012 325.978C116.471 325.927 116.926 325.849 117.376 325.743C117.879 325.637 118.414 325.499 118.999 325.337C119.555 325.182 120.097 324.984 120.622 324.744L117.376 322.868C117.238 322.925 117.097 322.974 116.954 323.014L116.507 323.152C115.696 323.423 114.949 323.634 114.267 323.786C113.638 323.93 112.997 324.017 112.352 324.046C111.785 324.064 111.218 324.009 110.664 323.883C110.113 323.751 109.585 323.538 109.098 323.25C108.563 322.972 108.1 322.574 107.742 322.089C107.481 321.723 107.352 321.279 107.377 320.83C107.419 320.36 107.606 319.914 107.913 319.555C108.287 319.092 108.73 318.689 109.228 318.362L107.304 317.249L108.44 316.592L110.339 317.696C111.235 317.25 112.177 316.905 113.147 316.665C114.067 316.429 115.003 316.261 115.947 316.161L116.864 318.045ZM111.321 321.464C111.748 321.712 112.242 321.82 112.734 321.772C113.397 321.696 114.05 321.549 114.681 321.334L111.622 319.572C110.491 320.302 110.385 320.933 111.305 321.464H111.321ZM122.034 322.357C121.567 322.106 121.032 322.012 120.508 322.089C119.785 322.181 119.071 322.336 118.374 322.552L121.409 324.306C122.691 323.518 122.894 322.868 122.018 322.365L122.034 322.357Z" fill="#CC8B09"/>
<path d="M115.095 326.051C115.095 325.969 115.095 324.946 115.095 324.946L116.345 325.758L115.801 326.57L115.095 326.051Z" fill="#CC8B09"/>
<path d="M125.962 326.749V325.645L123.259 325.856L124.809 326.911L125.962 326.749Z" fill="#CC8B09"/>
<path d="M126.189 322.705V321.593L124.168 322.324L126.189 322.705Z" fill="#CC8B09"/>
<path d="M117.822 322.648L118.487 322.007L120.857 323.631L120.711 324.11C120.711 324.11 118.942 323.363 118.885 323.298C118.828 323.233 117.822 322.648 117.822 322.648Z" fill="#CC8B09"/>
<path d="M111.614 319.181L114.762 320.967L115.404 320.497L114.981 320.001C114.7 319.68 114.368 319.406 114 319.189C113.764 319.149 112.271 318.475 112.271 318.475L111.614 319.181Z" fill="#CC8B09"/>
<path d="M116.848 318.045V316.94L115.404 316.478L115.095 317.338L115.168 317.736L116.848 318.045Z" fill="#CC8B09"/>
<path d="M107.247 317.249V316.145L108.927 316.323L108.384 317.395L107.247 317.249Z" fill="#CC8B09"/>
<path d="M107.312 320.984V319.839H109.236L108.765 320.862L107.953 321.78L107.312 320.984Z" fill="#CC8B09"/>
<path d="M116.864 316.94C116.614 316.941 116.364 316.962 116.118 317.005C115.785 317.054 115.412 317.119 114.998 317.208C114.584 317.298 114.186 317.403 113.707 317.533C113.272 317.667 112.847 317.83 112.433 318.02L115.679 319.904L116.264 319.701C117.075 319.425 117.887 319.19 118.609 318.995C119.303 318.813 120.012 318.696 120.727 318.646C121.377 318.606 122.029 318.65 122.667 318.776C123.322 318.918 123.949 319.164 124.525 319.506C125.091 319.791 125.574 320.216 125.929 320.741C126.047 320.929 126.126 321.138 126.162 321.357C126.198 321.576 126.191 321.8 126.14 322.015C126 322.494 125.737 322.928 125.378 323.274C124.927 323.723 124.426 324.118 123.884 324.452L125.962 325.645L124.826 326.303L122.732 325.093C121.735 325.583 120.695 325.977 119.624 326.27C118.499 326.579 117.351 326.794 116.191 326.912L115.095 324.947C115.402 324.947 115.708 324.925 116.012 324.882C116.418 324.833 116.872 324.752 117.376 324.646C117.879 324.541 118.414 324.403 118.999 324.24C119.554 324.08 120.096 323.879 120.622 323.64L117.376 321.772L116.954 321.918L116.507 322.056C115.772 322.304 115.025 322.513 114.267 322.681C113.639 322.83 112.997 322.917 112.352 322.941C111.785 322.962 111.218 322.91 110.664 322.787C110.116 322.648 109.589 322.435 109.098 322.154C108.565 321.87 108.102 321.47 107.742 320.984C107.48 320.619 107.351 320.175 107.377 319.726C107.42 319.258 107.607 318.815 107.913 318.459C108.287 317.993 108.73 317.587 109.228 317.257L107.304 316.145L108.44 315.495L110.339 316.591C111.237 316.152 112.178 315.809 113.147 315.568C114.068 315.334 115.003 315.163 115.947 315.057L116.864 316.94ZM111.321 320.367C111.749 320.613 112.243 320.718 112.734 320.668C113.396 320.595 114.049 320.451 114.681 320.237L111.622 318.467C110.485 319.206 110.372 319.831 111.305 320.367H111.321ZM122.034 321.26C121.569 321.004 121.033 320.907 120.508 320.984C119.784 321.076 119.07 321.234 118.374 321.455L121.409 323.209C122.691 322.413 122.894 321.764 122.018 321.26H122.034Z" fill="#F9CA06"/>
<path d="M115.404 336.378C131.073 336.378 143.776 329.038 143.776 319.984C143.776 310.93 131.073 303.59 115.404 303.59C99.7341 303.59 87.0315 310.93 87.0315 319.984C87.0315 329.038 99.7341 336.378 115.404 336.378Z" fill="#DD990E"/>
<path d="M87.0396 320.236V312.766L92.6475 317.759L87.0396 320.236Z" fill="#DD990E"/>
<path d="M143.784 312.961V319.985L140.911 323.03L139.507 314.991L143.784 312.961Z" fill="#DD990E"/>
<path d="M115.404 329.355C131.073 329.355 143.776 322.015 143.776 312.961C143.776 303.906 131.073 296.566 115.404 296.566C99.7341 296.566 87.0315 303.906 87.0315 312.961C87.0315 322.015 99.7341 329.355 115.404 329.355Z" fill="#F9CB07"/>
<path d="M135.684 313.472C135.392 316.233 133.428 318.945 129.768 321.065C121.839 325.644 108.976 325.644 101.039 321.065C97.387 318.945 95.423 316.233 95.1389 313.472C94.7981 310.224 96.7621 306.936 101.039 304.467C108.976 299.879 121.839 299.879 129.768 304.467C134.045 306.936 136.017 310.241 135.684 313.472Z" fill="#CC8B09"/>
<path d="M135.684 313.472C135.392 316.233 133.428 318.945 129.768 321.064C121.839 325.644 108.976 325.644 101.039 321.064C97.387 318.945 95.423 316.233 95.139 313.472C95.423 310.711 97.387 307.991 101.039 305.872C108.976 301.284 121.839 301.284 129.768 305.872C133.428 307.991 135.392 310.711 135.684 313.472Z" fill="#E8A30A"/>
<path d="M115.111 309.631C114.861 309.628 114.611 309.647 114.365 309.688C114.032 309.737 113.659 309.802 113.245 309.891C112.831 309.98 112.433 310.086 111.946 310.224C111.513 310.35 111.089 310.511 110.68 310.703L113.927 312.595L114.511 312.384C115.322 312.108 116.134 311.872 116.856 311.677C117.547 311.494 118.253 311.38 118.966 311.336C119.618 311.293 120.273 311.337 120.914 311.466C121.569 311.603 122.197 311.847 122.773 312.189C123.334 312.48 123.814 312.907 124.168 313.431C124.285 313.62 124.363 313.83 124.398 314.048C124.433 314.267 124.424 314.491 124.371 314.706C124.234 315.186 123.97 315.621 123.608 315.965C123.158 316.414 122.657 316.809 122.115 317.142L124.193 318.344L123.065 318.994L120.971 317.784C119.974 318.279 118.93 318.673 117.854 318.961C116.731 319.276 115.583 319.49 114.422 319.603L113.334 317.646C113.638 317.638 113.942 317.613 114.243 317.573C114.704 317.518 115.162 317.44 115.615 317.337C116.118 317.232 116.645 317.093 117.238 316.931C117.793 316.774 118.335 316.576 118.861 316.338L115.615 314.463L115.193 314.609L114.746 314.747C113.935 315.015 113.18 315.226 112.498 315.38C111.869 315.523 111.228 315.607 110.583 315.632C110.016 315.652 109.449 315.6 108.895 315.478C108.346 315.347 107.821 315.134 107.337 314.844C106.8 314.563 106.333 314.163 105.973 313.675C105.711 313.31 105.582 312.865 105.608 312.416C105.659 311.951 105.845 311.51 106.144 311.15C106.521 310.686 106.967 310.283 107.467 309.956L105.503 308.835L106.631 308.178L108.538 309.282C109.431 308.837 110.369 308.491 111.338 308.251C112.258 308.017 113.194 307.846 114.138 307.739L115.111 309.631ZM109.56 313.05C109.99 313.297 110.487 313.402 110.981 313.35C111.641 313.276 112.291 313.132 112.92 312.92L109.869 311.15C108.749 311.891 108.646 312.525 109.56 313.05ZM120.273 313.943C119.808 313.687 119.272 313.59 118.747 313.667C118.026 313.763 117.315 313.92 116.621 314.138L119.656 315.892C120.922 315.104 121.158 314.446 120.273 313.943Z" fill="#CC8B09"/>
<path d="M113.358 317.638C113.358 317.556 113.358 316.533 113.358 316.533L114.6 317.345L114.056 318.157L113.358 317.638Z" fill="#CC8B09"/>
<path d="M124.217 318.336V317.231L121.523 317.443L123.073 318.498L124.217 318.336Z" fill="#CC8B09"/>
<path d="M124.444 314.292V313.18L122.424 313.91L124.444 314.292Z" fill="#CC8B09"/>
<path d="M116.053 314.243L116.726 313.594L119.096 315.218L118.95 315.705C118.95 315.705 117.181 314.958 117.124 314.893L116.053 314.243Z" fill="#CC8B09"/>
<path d="M109.877 310.768L113.018 312.546L113.667 312.083L113.237 311.588C112.96 311.265 112.631 310.99 112.263 310.776C112.027 310.727 110.534 310.062 110.534 310.062L109.877 310.768Z" fill="#CC8B09"/>
<path d="M115.111 309.631V308.527L113.667 308.056L113.358 308.916L113.431 309.314L115.111 309.631Z" fill="#CC8B09"/>
<path d="M105.511 308.836V307.731L107.182 307.91L106.647 308.982L105.511 308.836Z" fill="#CC8B09"/>
<path d="M105.568 312.571V311.426H107.483L107.012 312.449L106.201 313.366L105.568 312.571Z" fill="#CC8B09"/>
<path d="M115.111 308.559C114.861 308.56 114.612 308.579 114.365 308.616C114.032 308.665 113.659 308.73 113.245 308.819C112.831 308.908 112.433 309.022 111.946 309.152C111.514 309.285 111.09 309.448 110.68 309.639L113.927 311.523L114.511 311.312C115.322 311.044 116.134 310.808 116.856 310.614C117.546 310.428 118.253 310.311 118.966 310.264C119.618 310.221 120.273 310.265 120.914 310.394C121.567 310.538 122.194 310.782 122.773 311.117C123.337 311.407 123.82 311.834 124.177 312.359C124.293 312.548 124.371 312.758 124.406 312.976C124.441 313.195 124.432 313.419 124.379 313.634C124.242 314.114 123.978 314.549 123.617 314.893C123.168 315.342 122.667 315.734 122.123 316.062L124.201 317.264L123.073 317.922L120.995 316.679C119.996 317.171 118.953 317.565 117.879 317.857C116.754 318.163 115.606 318.378 114.446 318.498L113.358 316.533C113.663 316.525 113.966 316.501 114.267 316.46C114.728 316.409 115.186 316.333 115.639 316.233C116.142 316.119 116.67 315.981 117.262 315.819C117.818 315.666 118.361 315.467 118.885 315.226L115.639 313.35L115.217 313.504L114.771 313.634C113.959 313.902 113.204 314.113 112.523 314.268C111.893 314.413 111.252 314.5 110.607 314.527C110.04 314.545 109.473 314.49 108.919 314.365C108.371 314.235 107.845 314.021 107.361 313.732C106.823 313.456 106.356 313.058 105.998 312.571C105.736 312.205 105.607 311.761 105.632 311.312C105.681 310.846 105.867 310.405 106.168 310.045C106.545 309.579 106.991 309.174 107.491 308.843L105.503 307.747L106.631 307.098L108.538 308.194C109.432 307.752 110.371 307.406 111.338 307.163C112.258 306.931 113.194 306.763 114.138 306.659L115.111 308.559ZM109.56 311.945C109.99 312.194 110.487 312.302 110.981 312.254C111.641 312.18 112.292 312.033 112.92 311.815L109.869 310.053C108.749 310.784 108.646 311.415 109.56 311.945ZM120.273 312.838C119.807 312.585 119.271 312.491 118.747 312.571C118.026 312.663 117.315 312.818 116.621 313.033L119.656 314.787C120.922 314 121.158 313.35 120.273 312.838Z" fill="#F9CA06"/>
<path opacity="0.3" d="M28.3721 406C44.0415 406 56.7441 398.66 56.7441 389.606C56.7441 380.552 44.0415 373.212 28.3721 373.212C12.7026 373.212 0 380.552 0 389.606C0 398.66 12.7026 406 28.3721 406Z" fill="#D6D8E5"/>
<path d="M35.392 401.786C51.0615 401.786 63.7641 394.446 63.7641 385.391C63.7641 376.337 51.0615 368.997 35.392 368.997C19.7226 368.997 7.01996 376.337 7.01996 385.391C7.01996 394.446 19.7226 401.786 35.392 401.786Z" fill="#DD990E"/>
<path d="M7.02808 385.643V378.173L12.6359 383.167L7.02808 385.643Z" fill="#DD990E"/>
<path d="M63.7722 378.368V385.392L60.9074 388.437L59.5034 380.398L63.7722 378.368Z" fill="#DD990E"/>
<path d="M35.392 394.762C51.0615 394.762 63.7641 387.422 63.7641 378.368C63.7641 369.314 51.0615 361.974 35.392 361.974C19.7226 361.974 7.01996 369.314 7.01996 378.368C7.01996 387.422 19.7226 394.762 35.392 394.762Z" fill="#F9CB07"/>
<path d="M55.6729 378.879C55.3889 381.64 53.4168 384.36 49.7648 386.471C41.8277 391.051 28.9645 391.051 21.0356 386.471C17.3755 384.36 15.4115 381.64 15.1275 378.879C14.7866 375.631 16.7506 372.343 21.0356 369.882C28.9645 365.294 41.8277 365.294 49.7648 369.882C54.0417 372.343 55.9975 375.647 55.6729 378.879Z" fill="#CC8B09"/>
<path d="M55.6729 378.88C55.3888 381.641 53.4167 384.361 49.7647 386.472C41.8277 391.052 28.9645 391.052 21.0356 386.472C17.3755 384.361 15.4115 381.641 15.1274 378.88C15.4115 376.119 17.3755 373.399 21.0356 371.288C28.9645 366.7 41.8277 366.7 49.7647 371.288C53.4167 373.399 55.3888 376.119 55.6729 378.88Z" fill="#E8A30A"/>
<path d="M35.0999 375.039C34.8498 375.036 34.5999 375.055 34.3533 375.096C34.0205 375.145 33.6472 375.21 33.2333 375.299C32.8194 375.388 32.4217 375.494 31.9429 375.632C31.5063 375.761 31.0803 375.924 30.6688 376.119L33.915 378.003L34.4993 377.792C35.3109 377.516 36.1225 377.28 36.8447 377.093C37.5357 376.916 38.2425 376.807 38.9548 376.769C39.6042 376.725 40.2565 376.769 40.8944 376.899C41.5488 377.038 42.1763 377.282 42.7529 377.621C43.3183 377.906 43.8016 378.331 44.1569 378.856C44.2744 379.044 44.3535 379.253 44.3897 379.472C44.4259 379.691 44.4185 379.914 44.3679 380.13C44.2143 380.615 43.9341 381.049 43.5563 381.389C43.1128 381.842 42.6138 382.238 42.0712 382.566L44.1406 383.768L43.0126 384.418L40.9837 383.183C39.9902 383.68 38.9488 384.075 37.8754 384.361C36.7519 384.674 35.6032 384.889 34.4425 385.002L33.3469 383.045C33.6537 383.037 33.9598 383.013 34.264 382.972C34.7222 382.917 35.1773 382.839 35.6274 382.737C36.1306 382.631 36.6662 382.493 37.2505 382.331C37.8063 382.176 38.349 381.978 38.8736 381.738L35.6274 379.862C35.4894 379.911 35.3515 379.968 35.2054 380.009L34.759 380.147C33.9475 380.415 33.1927 380.626 32.5191 380.78C31.8904 380.926 31.2489 381.01 30.6039 381.032C30.0368 381.056 29.469 381.004 28.9158 380.877C28.3646 380.747 27.8364 380.534 27.3495 380.244C26.8064 379.969 26.3342 379.571 25.9699 379.083C25.7024 378.72 25.5704 378.275 25.5965 377.824C25.645 377.356 25.8314 376.912 26.1322 376.549C26.5091 376.086 26.9553 375.683 27.455 375.356L25.5316 374.243L26.6678 373.586L28.5668 374.69C29.4596 374.245 30.3985 373.899 31.3667 373.659C32.2894 373.423 33.2278 373.255 34.1747 373.155L35.0999 375.039ZM29.5569 378.458C29.9834 378.707 30.4776 378.815 30.9691 378.766C31.6288 378.686 32.2786 378.539 32.9087 378.328L29.8572 376.566C28.7373 377.296 28.6372 377.927 29.5569 378.458ZM40.2695 379.351C39.8027 379.1 39.2679 379.007 38.7438 379.083C38.0203 379.175 37.3062 379.33 36.6094 379.546L39.6446 381.3C40.9431 380.512 41.146 379.862 40.2695 379.351Z" fill="#CC8B09"/>
<path d="M33.3469 383.045C33.3469 382.964 33.3469 381.94 33.3469 381.94L34.5886 382.752L34.053 383.564L33.3469 383.045Z" fill="#CC8B09"/>
<path d="M44.2055 383.743V382.639L41.5112 382.85L43.0612 383.905L44.2055 383.743Z" fill="#CC8B09"/>
<path d="M44.4409 379.699V378.587L42.4202 379.318L44.4409 379.699Z" fill="#CC8B09"/>
<path d="M36.0656 379.642L36.7392 379.001L39.109 380.625L38.9629 381.104C38.9629 381.104 37.1937 380.357 37.1369 380.292C37.0801 380.227 36.0656 379.642 36.0656 379.642Z" fill="#CC8B09"/>
<path d="M29.8654 376.175L33.0142 377.962L33.6553 377.491C33.6553 377.491 33.2577 377.036 33.2333 376.995C32.9514 376.674 32.6199 376.4 32.2513 376.183C32.016 376.135 30.5227 375.469 30.5227 375.469L29.8654 376.175Z" fill="#CC8B09"/>
<path d="M35.0999 375.038V373.934L33.6553 373.463L33.3469 374.332L33.42 374.722L35.0999 375.038Z" fill="#CC8B09"/>
<path d="M25.4991 374.243V373.139L27.1791 373.317L26.6353 374.389L25.4991 374.243Z" fill="#CC8B09"/>
<path d="M25.5641 377.978V376.833H27.4794L27.0168 377.856L26.2052 378.774L25.5641 377.978Z" fill="#CC8B09"/>
<path d="M35.0999 373.935C34.8496 373.935 34.5998 373.956 34.3533 374C34.0232 374.048 33.6499 374.113 33.2333 374.194C32.8194 374.284 32.4217 374.397 31.9429 374.527C31.5075 374.66 31.0818 374.823 30.6688 375.015L33.915 376.898L34.4993 376.695C35.3109 376.419 36.1225 376.184 36.8447 375.989C37.5384 375.807 38.2475 375.69 38.9629 375.64C39.6123 375.601 40.2641 375.644 40.9025 375.77C41.5572 375.912 42.1848 376.159 42.761 376.501C43.3264 376.786 43.8097 377.21 44.165 377.735C44.2825 377.923 44.3616 378.132 44.3978 378.351C44.434 378.57 44.4266 378.794 44.376 379.01C44.2203 379.493 43.9405 379.927 43.5644 380.268C43.1188 380.719 42.6201 381.115 42.0793 381.446L44.1488 382.639L43.0207 383.297L40.9269 382.087C39.9486 382.574 38.927 382.968 37.8754 383.265C36.751 383.574 35.6027 383.788 34.4425 383.906L33.3469 381.941C33.6536 381.937 33.9598 381.915 34.264 381.876C34.6698 381.827 35.1242 381.746 35.6274 381.641C36.1306 381.535 36.6662 381.397 37.2505 381.235C37.8052 381.073 38.3477 380.873 38.8736 380.634L35.6274 378.766L35.2054 378.912L34.759 379.05C34.0237 379.297 33.2761 379.506 32.5191 379.675C31.8906 379.824 31.2492 379.911 30.6039 379.935C30.0364 379.957 29.4686 379.903 28.9158 379.773C28.366 379.642 27.8383 379.431 27.3495 379.148C26.8058 378.869 26.3337 378.469 25.9699 377.978C25.7024 377.615 25.5704 377.17 25.5965 376.72C25.647 376.254 25.8333 375.814 26.1322 375.453C26.5108 374.989 26.9567 374.584 27.455 374.251L25.5316 373.139L26.6678 372.489L28.5668 373.585C29.4614 373.146 30.3999 372.803 31.3667 372.562C32.2901 372.328 33.2282 372.157 34.1747 372.051L35.0999 373.935ZM29.5569 377.361C29.9842 377.608 30.4785 377.713 30.9691 377.662C31.6301 377.589 32.2808 377.442 32.9087 377.223L29.8572 375.461C28.7373 376.192 28.6372 376.825 29.5569 377.361ZM40.2695 378.254C39.8046 377.999 39.2688 377.902 38.7438 377.978C38.0195 378.07 37.3051 378.228 36.6094 378.449L39.6446 380.203C40.9431 379.408 41.146 378.758 40.2695 378.254Z" fill="#F9CA06"/>
<path d="M37.7131 393.048C53.3825 393.048 66.0851 385.708 66.0851 376.654C66.0851 367.6 53.3825 360.26 37.7131 360.26C22.0436 360.26 9.341 367.6 9.341 376.654C9.341 385.708 22.0436 393.048 37.7131 393.048Z" fill="#DD990E"/>
<path d="M9.34912 376.906V369.436L14.957 374.429L9.34912 376.906Z" fill="#DD990E"/>
<path d="M66.0933 369.631V376.655L63.2203 379.7L61.8163 371.653L66.0933 369.631Z" fill="#DD990E"/>
<path d="M37.7131 386.025C53.3825 386.025 66.0851 378.685 66.0851 369.631C66.0851 360.576 53.3825 353.236 37.7131 353.236C22.0436 353.236 9.341 360.576 9.341 369.631C9.341 378.685 22.0436 386.025 37.7131 386.025Z" fill="#F9CB07"/>
<path d="M57.9939 370.134C57.7017 372.895 55.7378 375.615 52.0776 377.734C44.1487 382.314 31.2855 382.314 23.3485 377.734C19.6965 375.615 17.7325 372.862 17.4484 370.134C17.1076 366.886 19.0716 363.638 23.3485 361.137C31.2855 356.549 44.1487 356.549 52.0776 361.137C56.3545 363.606 58.3266 366.902 57.9939 370.134Z" fill="#CC8B09"/>
<path d="M57.9939 370.134C57.7018 372.894 55.7378 375.615 52.0777 377.734C44.1487 382.314 31.2856 382.314 23.3485 377.734C19.6965 375.615 17.7325 372.862 17.4485 370.134C17.7325 367.373 19.6965 364.661 23.3485 362.541C31.2856 357.954 44.1487 357.954 52.0777 362.541C55.7378 364.661 57.7018 367.373 57.9939 370.134Z" fill="#E8A30A"/>
<path d="M37.4209 366.293C37.1708 366.297 36.9214 366.319 36.6743 366.358C36.3415 366.407 35.9682 366.472 35.5543 366.561C35.116 366.649 34.6825 366.76 34.2558 366.894C33.822 367.02 33.3987 367.181 32.9898 367.373L36.236 369.257L36.8204 369.054C37.6319 368.778 38.4435 368.542 39.1658 368.347C39.8567 368.165 40.5631 368.048 41.2758 367.998C41.9283 367.957 42.5833 368.004 43.2236 368.136C43.8764 368.272 44.5019 368.516 45.0739 368.859C45.6413 369.144 46.1271 369.569 46.486 370.093C46.6026 370.282 46.6805 370.491 46.7153 370.71C46.7502 370.929 46.7412 371.153 46.6889 371.368C46.5513 371.848 46.2879 372.283 45.926 372.627C45.4757 373.076 44.9746 373.471 44.4328 373.804L46.5104 374.998L45.3823 375.655L43.2885 374.446C42.2892 374.936 41.2457 375.33 40.1721 375.623C39.048 375.933 37.8996 376.148 36.7392 376.264L35.7085 374.332C36.0126 374.324 36.316 374.299 36.6175 374.259C37.0314 374.21 37.4858 374.129 37.989 374.023C38.4922 373.918 39.0197 373.78 39.6121 373.617C40.1672 373.461 40.7098 373.262 41.2352 373.025L37.989 371.149L37.5589 371.295L37.1206 371.433C36.3091 371.701 35.5543 371.912 34.8726 372.066C34.2433 372.209 33.6022 372.294 32.9573 372.318C32.3904 372.338 31.8233 372.286 31.2693 372.164C30.723 372.026 30.1985 371.813 29.7111 371.53C29.174 371.249 28.7078 370.849 28.3477 370.361C28.085 369.996 27.956 369.552 27.9825 369.103C27.9999 368.649 28.1463 368.209 28.4045 367.836C28.7832 367.372 29.2291 366.966 29.7273 366.634L27.804 365.522L28.932 364.872L30.8392 365.944C31.7337 365.505 32.6722 365.162 33.6391 364.921C34.5597 364.687 35.4951 364.516 36.4389 364.409L37.4209 366.293ZM31.8699 369.72C32.3 369.967 32.7969 370.072 33.2901 370.02C33.9501 369.946 34.6004 369.802 35.2297 369.59L32.1783 367.836C31.0583 368.558 30.9528 369.184 31.8699 369.72ZM42.5824 370.613C42.1175 370.357 41.5818 370.26 41.0567 370.337C40.3351 370.429 39.6234 370.586 38.9304 370.808L41.9656 372.562C43.256 371.766 43.467 371.084 42.5824 370.613Z" fill="#CC8B09"/>
<path d="M35.7085 374.332C35.7085 374.251 35.7085 373.228 35.7085 373.228L36.9502 374.04L36.4064 374.852L35.7085 374.332Z" fill="#CC8B09"/>
<path d="M46.5266 374.998V373.901L43.8322 374.104L45.3823 375.16L46.5266 374.998Z" fill="#CC8B09"/>
<path d="M46.7538 370.962V369.85L44.733 370.58L46.7538 370.962Z" fill="#CC8B09"/>
<path d="M38.3867 370.905L39.0603 370.256L41.43 371.88L41.2839 372.367C41.2839 372.367 39.5147 371.62 39.4579 371.555L38.3867 370.905Z" fill="#CC8B09"/>
<path d="M32.1863 367.43L35.3271 369.216L35.9763 368.753C35.9763 368.753 35.5787 368.299 35.5462 368.25C35.2632 367.933 34.935 367.659 34.5723 367.438C34.337 367.397 32.8437 366.731 32.8437 366.731L32.1863 367.43Z" fill="#CC8B09"/>
<path d="M37.4209 366.294V365.198L35.9764 364.727L35.668 365.587L35.741 365.985L37.4209 366.294Z" fill="#CC8B09"/>
<path d="M27.8202 365.506V364.401L29.492 364.58L28.9564 365.652L27.8202 365.506Z" fill="#CC8B09"/>
<path d="M27.877 369.241V368.096H29.7922L29.3215 369.119L28.51 370.036L27.877 369.241Z" fill="#CC8B09"/>
<path d="M37.4209 365.197C37.1708 365.194 36.9209 365.213 36.6742 365.254C36.3415 365.303 35.9682 365.368 35.5543 365.457C35.1404 365.546 34.7022 365.652 34.2558 365.79C33.8218 365.919 33.3985 366.082 32.9898 366.277L36.236 368.161L36.8203 367.95C37.6319 367.674 38.4434 367.447 39.1657 367.252C39.8558 367.066 40.5626 366.949 41.2758 366.903C41.9279 366.859 42.5829 366.903 43.2235 367.032C43.8753 367.172 44.5002 367.416 45.0739 367.755C45.6413 368.041 46.1271 368.465 46.486 368.989C46.6021 369.178 46.6798 369.388 46.7146 369.607C46.7494 369.825 46.7407 370.049 46.6889 370.264C46.5531 370.745 46.2895 371.18 45.926 371.523C45.4833 371.976 44.9873 372.374 44.449 372.708L46.5266 373.91L45.3985 374.56L43.3047 373.35C42.3084 373.847 41.2643 374.241 40.1883 374.527C39.0644 374.84 37.916 375.058 36.7554 375.177L35.7085 373.204C36.0126 373.196 36.316 373.171 36.6174 373.131C37.0784 373.076 37.5363 372.998 37.989 372.895C38.4921 372.79 39.0197 372.651 39.6121 372.489C40.1684 372.336 40.7113 372.138 41.2352 371.896L37.989 370.021C37.851 370.069 37.7049 370.126 37.5588 370.167L37.1206 370.305C36.3091 370.573 35.5543 370.784 34.8726 370.938C34.2435 371.084 33.6024 371.171 32.9573 371.198C32.39 371.215 31.8229 371.161 31.2693 371.036C30.7206 370.905 30.1951 370.692 29.7111 370.402C29.1746 370.123 28.7084 369.726 28.3477 369.241C28.0862 368.875 27.9573 368.431 27.9825 367.982C28.0309 367.514 28.2173 367.07 28.5181 366.708C28.8972 366.246 29.3431 365.844 29.8409 365.514L27.9175 364.402L29.0456 363.744L30.8391 364.848C31.7319 364.403 32.6708 364.057 33.639 363.817C34.5589 363.582 35.4947 363.413 36.4389 363.313L37.4209 365.197ZM31.8698 368.648C32.2993 368.897 32.796 369.005 33.2901 368.957C33.9496 368.876 34.5994 368.729 35.2297 368.518L32.1782 366.756C31.0583 367.476 30.9555 368.107 31.8698 368.648ZM42.5824 369.542C42.1165 369.288 41.5808 369.194 41.0567 369.274C40.3359 369.366 39.6245 369.521 38.9304 369.736L41.9656 371.49C43.256 370.67 43.467 370.021 42.5824 369.509V369.542Z" fill="#F9CA06"/>
<path opacity="0.3" d="M176.49 406C192.159 406 204.862 398.66 204.862 389.606C204.862 380.552 192.159 373.212 176.49 373.212C160.82 373.212 148.117 380.552 148.117 389.606C148.117 398.66 160.82 406 176.49 406Z" fill="#D6D8E5"/>
<path d="M183.51 401.786C199.179 401.786 211.882 394.446 211.882 385.391C211.882 376.337 199.179 368.997 183.51 368.997C167.84 368.997 155.137 376.337 155.137 385.391C155.137 394.446 167.84 401.786 183.51 401.786Z" fill="#DD990E"/>
<path d="M155.146 385.643V378.173L160.753 383.167L155.146 385.643Z" fill="#DD990E"/>
<path d="M211.89 378.368V385.392L209.025 388.437L207.621 380.398L211.89 378.368Z" fill="#DD990E"/>
<path d="M183.51 394.762C199.179 394.762 211.882 387.422 211.882 378.368C211.882 369.314 199.179 361.974 183.51 361.974C167.84 361.974 155.137 369.314 155.137 378.368C155.137 387.422 167.84 394.762 183.51 394.762Z" fill="#F9CB07"/>
<path d="M203.79 378.879C203.506 381.64 201.534 384.36 197.882 386.471C189.945 391.051 177.082 391.051 169.153 386.471C165.493 384.36 163.529 381.64 163.245 378.879C162.904 375.631 164.868 372.343 169.153 369.882C177.082 365.294 189.945 365.294 197.882 369.882C202.159 372.343 204.131 375.647 203.79 378.879Z" fill="#CC8B09"/>
<path d="M203.79 378.88C203.506 381.641 201.534 384.361 197.882 386.472C189.945 391.052 177.082 391.052 169.153 386.472C165.493 384.361 163.529 381.641 163.245 378.88C163.529 376.119 165.493 373.399 169.153 371.288C177.082 366.7 189.945 366.7 197.882 371.288C201.534 373.399 203.506 376.119 203.79 378.88Z" fill="#E8A30A"/>
<path d="M183.217 375.039C182.967 375.036 182.717 375.055 182.471 375.096C182.138 375.145 181.765 375.21 181.351 375.299C180.937 375.388 180.539 375.494 180.06 375.632C179.624 375.761 179.198 375.924 178.786 376.119L182.032 378.003L182.617 377.792C183.428 377.516 184.24 377.28 184.962 377.093C185.655 376.907 186.364 376.79 187.08 376.744C187.73 376.701 188.382 376.745 189.02 376.874C189.674 377.013 190.302 377.257 190.878 377.597C191.444 377.882 191.927 378.307 192.282 378.831C192.402 379.019 192.481 379.228 192.516 379.448C192.551 379.667 192.54 379.891 192.485 380.106C192.35 380.587 192.086 381.022 191.722 381.365C191.279 381.818 190.78 382.214 190.237 382.542L192.307 383.744L191.179 384.393L189.093 383.183C188.1 383.68 187.058 384.075 185.985 384.361C184.861 384.674 183.713 384.889 182.552 385.002L181.456 383.045C181.763 383.037 182.069 383.013 182.373 382.972C182.832 382.917 183.287 382.839 183.737 382.737C184.24 382.631 184.767 382.493 185.36 382.331C185.916 382.176 186.458 381.978 186.983 381.738L183.737 379.862C183.599 379.911 183.461 379.968 183.315 380.009L182.868 380.147C182.057 380.415 181.302 380.626 180.628 380.78C180 380.926 179.358 381.01 178.713 381.032C178.146 381.056 177.578 381.004 177.025 380.877C176.474 380.747 175.946 380.534 175.459 380.244C174.924 379.965 174.461 379.568 174.104 379.083C173.836 378.72 173.704 378.275 173.73 377.824C173.779 377.356 173.965 376.912 174.266 376.549C174.643 376.086 175.089 375.683 175.589 375.356L173.665 374.243L174.801 373.586L176.701 374.69C177.593 374.245 178.532 373.899 179.5 373.659C180.42 373.424 181.356 373.256 182.3 373.155L183.217 375.039ZM177.674 378.458C178.101 378.707 178.595 378.815 179.086 378.766C179.746 378.686 180.396 378.539 181.026 378.328L177.975 376.566C176.855 377.296 176.755 377.927 177.674 378.458ZM188.387 379.351C187.917 379.1 187.38 379.006 186.853 379.083C186.132 379.176 185.421 379.331 184.727 379.546L187.762 381.3C189.093 380.512 189.263 379.862 188.387 379.351Z" fill="#CC8B09"/>
<path d="M181.464 383.045C181.464 382.964 181.464 381.94 181.464 381.94L182.706 382.752L182.17 383.564L181.464 383.045Z" fill="#CC8B09"/>
<path d="M192.323 383.743V382.639L189.629 382.85L191.179 383.905L192.323 383.743Z" fill="#CC8B09"/>
<path d="M192.55 379.699V378.587L190.538 379.318L192.55 379.699Z" fill="#CC8B09"/>
<path d="M184.224 379.642L184.897 379.001L187.267 380.625L187.121 381.104C187.121 381.104 185.352 380.357 185.295 380.292C185.238 380.227 184.224 379.642 184.224 379.642Z" fill="#CC8B09"/>
<path d="M177.983 376.175L181.132 377.962L181.773 377.491C181.773 377.491 181.375 377.036 181.351 376.995C181.069 376.674 180.737 376.4 180.369 376.183C180.133 376.135 178.64 375.469 178.64 375.469L177.983 376.175Z" fill="#CC8B09"/>
<path d="M183.217 375.038V373.934L181.773 373.463L181.464 374.332L181.537 374.722L183.217 375.038Z" fill="#CC8B09"/>
<path d="M173.617 374.243V373.139L175.297 373.317L174.753 374.389L173.617 374.243Z" fill="#CC8B09"/>
<path d="M173.673 377.978V376.833H175.589L175.126 377.856L174.315 378.774L173.673 377.978Z" fill="#CC8B09"/>
<path d="M183.217 373.935C182.967 373.935 182.717 373.956 182.471 374C182.141 374.048 181.767 374.113 181.351 374.194C180.937 374.284 180.539 374.397 180.06 374.527C179.625 374.66 179.199 374.823 178.786 375.015L182.032 376.898L182.617 376.695C183.428 376.419 184.24 376.184 184.962 375.989C185.656 375.807 186.365 375.69 187.08 375.64C187.73 375.601 188.382 375.644 189.02 375.77C189.675 375.912 190.302 376.159 190.878 376.501C191.444 376.786 191.927 377.21 192.282 377.735C192.402 377.922 192.481 378.132 192.516 378.351C192.551 378.57 192.54 378.795 192.485 379.01C192.348 379.49 192.084 379.924 191.722 380.268C191.277 380.719 190.778 381.115 190.237 381.446L192.307 382.639L191.179 383.297L189.093 382.087C188.097 382.577 187.056 382.971 185.985 383.265C184.86 383.574 183.712 383.788 182.552 383.906L181.456 381.941C181.763 381.937 182.069 381.915 182.373 381.876C182.779 381.827 183.234 381.746 183.737 381.641C184.24 381.535 184.767 381.397 185.36 381.235C185.915 381.073 186.457 380.873 186.983 380.634L183.737 378.766L183.315 378.912L182.868 379.05C182.133 379.297 181.385 379.506 180.628 379.675C180 379.824 179.358 379.911 178.713 379.935C178.146 379.957 177.578 379.903 177.025 379.773C176.475 379.642 175.948 379.431 175.459 379.148C174.924 378.866 174.46 378.466 174.104 377.978C173.836 377.615 173.704 377.17 173.73 376.72C173.781 376.254 173.967 375.814 174.266 375.453C174.645 374.989 175.09 374.584 175.589 374.251L173.665 373.139L174.801 372.489L176.701 373.585C177.595 373.146 178.534 372.803 179.5 372.562C180.421 372.329 181.357 372.158 182.3 372.051L183.217 373.935ZM177.674 377.361C178.102 377.608 178.596 377.713 179.086 377.662C179.748 377.589 180.398 377.442 181.026 377.223L177.975 375.461C176.855 376.192 176.755 376.825 177.674 377.361ZM188.387 378.254C187.92 377.997 187.381 377.9 186.853 377.978C186.132 378.071 185.42 378.229 184.727 378.449L187.762 380.203C189.093 379.408 189.263 378.758 188.387 378.254Z" fill="#F9CA06"/>
<path opacity="0.4" d="M158.335 275.268L66.142 222.017C65.355 221.563 64.7014 220.909 64.2471 220.121C63.7927 219.334 63.5535 218.44 63.5535 217.531C63.5535 216.622 63.7927 215.728 64.2471 214.941C64.7014 214.153 65.355 213.499 66.142 213.045C66.9291 212.59 67.822 212.351 68.7309 212.351C69.6398 212.351 70.5326 212.59 71.3197 213.045L163.513 266.336C164.348 266.819 165.032 267.526 165.487 268.377C165.942 269.228 166.151 270.189 166.089 271.153C166.028 272.116 165.699 273.043 165.139 273.829C164.579 274.615 163.81 275.229 162.92 275.601C162.182 275.904 161.384 276.031 160.589 275.974C159.793 275.916 159.022 275.674 158.335 275.268Z" fill="#D6D8E5"/>
<path d="M118.528 243.056C85.5301 223.998 58.6919 177.479 58.6919 139.363C58.6919 101.248 85.5301 85.7714 118.528 104.805C151.526 123.838 178.364 170.374 178.364 208.497C178.364 246.62 151.518 262.113 118.528 243.056ZM118.528 117.196C91.4383 101.549 69.3963 114.281 69.3963 145.575C69.3963 176.87 91.4383 215.058 118.528 230.705C145.618 246.353 167.652 233.628 167.652 202.334C167.652 171.04 145.618 132.819 118.528 117.171V117.196Z" fill="#78280E"/>
<path d="M68.0248 105.236L78.9889 99.2432L77.3496 106.762L68.0248 105.236Z" fill="#78280E"/>
<path d="M150.641 252.759C150.909 252.637 162.628 246.077 162.628 246.077L153.571 244.623L150.641 252.759Z" fill="#78280E"/>
<path d="M149.411 244.935C170.686 232.645 170.685 192.792 149.408 155.919C128.132 119.047 93.6367 99.1193 72.3615 111.409C51.0863 123.699 51.0875 163.553 72.3641 200.425C93.6407 237.297 128.136 257.225 149.411 244.935Z" fill="#F4F4F4"/>
<path d="M110.891 247.303C77.9096 228.237 51.0551 181.726 51.0551 143.602C51.0551 105.479 77.9014 90.0102 110.891 109.043C143.881 128.077 170.727 174.621 170.727 212.736C170.727 250.851 143.889 266.336 110.891 247.303ZM110.891 121.443C83.8096 105.795 61.7677 118.52 61.7677 149.814C61.7677 181.108 83.8096 219.305 110.891 234.952C137.973 250.599 160.023 237.867 160.023 206.573C160.023 175.278 137.965 137.066 110.891 121.418V121.443Z" fill="#EB6438"/>
<path d="M110.891 220.994C90.4563 209.187 73.8518 180.369 73.8518 156.756C73.8518 133.143 90.4806 123.537 110.916 135.344C131.351 147.15 147.988 175.944 147.988 199.581C147.988 223.218 131.334 232.808 110.891 220.994ZM110.891 147.719C96.3563 139.323 84.5319 146.152 84.5319 162.944C84.5319 179.736 96.3563 200.231 110.891 208.627C125.426 217.023 137.251 210.186 137.251 193.394C137.251 176.602 125.426 156.115 110.891 147.719Z" fill="#EB6438"/>
<path d="M110.891 195.108C102.776 190.439 96.2346 179.038 96.2346 169.7C96.2346 160.362 102.808 156.562 110.891 161.231C118.974 165.9 125.556 177.301 125.556 186.639C125.556 195.977 118.983 199.752 110.891 195.108ZM110.891 173.606C108.716 172.347 106.939 173.371 106.939 175.888C107.016 177.259 107.413 178.593 108.1 179.782C108.786 180.971 109.742 181.982 110.891 182.733C113.074 183.991 114.844 182.968 114.844 180.451C114.769 179.08 114.372 177.745 113.685 176.556C112.999 175.366 112.041 174.356 110.891 173.606Z" fill="#EB6438"/>
<path d="M8.94335 236.211L3.45721 236.284L21.279 228.716L10.9479 235.139L8.94335 236.211Z" fill="#2B303F"/>
<path d="M11.3308 238.745C11.8781 238.429 11.8785 237.404 11.3317 236.457C10.7849 235.509 9.89792 234.997 9.35061 235.313C8.8033 235.629 8.8029 236.654 9.34972 237.602C9.89654 238.549 10.7835 239.061 11.3308 238.745Z" fill="#E8A30A"/>
<path d="M112.138 180.389C112.685 180.073 112.685 179.049 112.139 178.101C111.592 177.154 110.705 176.642 110.157 176.958C109.61 177.274 109.61 178.298 110.157 179.246C110.703 180.194 111.59 180.706 112.138 180.389Z" fill="#E8A30A"/>
<path d="M12.6928 244.161L11.3862 238.696L25.7183 229.553L25.0934 230.844L12.6928 244.161Z" fill="#2B303F"/>
<path d="M11.3618 238.728C11.4836 238.623 112.117 180.418 112.117 180.418L110.266 176.927L9.32483 235.391L11.3618 238.728Z" fill="#E8A30A"/>
</svg>
