<svg width="412" height="406" viewBox="0 0 412 406" fill="none" xmlns="http://www.w3.org/2000/svg">
<g clip-path="url(#clip0)">
<path opacity="0.4" d="M128.418 403.263L45.6111 355.458C38.6009 351.397 39.4782 344.338 47.5769 339.659L247.6 224.197C255.723 219.518 267.948 219.015 274.958 223.06L357.765 270.864C364.775 274.926 363.898 281.993 355.799 286.664L155.776 402.133C147.678 406.804 135.428 407.316 128.418 403.263Z" fill="#D6D8E5"/>
<path d="M138.905 396.975L56.1061 349.171C49.0878 345.109 49.9732 338.042 58.0719 333.371L258.087 217.886C266.21 213.215 278.394 212.703 285.453 216.756L368.252 264.561C375.262 268.622 374.385 275.681 366.286 280.36L166.271 395.838C158.173 400.517 145.923 401.021 138.905 396.975Z" fill="#B1B4C4"/>
<path d="M51.3704 342.201V334.582L60.3139 337.953L51.3704 342.201Z" fill="#B1B4C4"/>
<path d="M372.988 271.157V263.83L365.88 268.411L372.988 271.157Z" fill="#B1B4C4"/>
<path d="M138.905 390.517L56.1061 342.713C49.0878 338.651 49.9732 331.592 58.0719 326.913L258.087 211.435C266.21 206.757 278.394 206.253 285.453 210.298L368.252 258.103C375.262 262.164 374.385 269.231 366.286 273.902L166.271 389.388C158.173 394.059 145.923 394.57 138.905 390.517Z" fill="#616E84"/>
<path d="M66.097 352.51C66.5205 352.266 66.5202 351.472 66.0962 350.738C65.6723 350.004 64.9853 349.607 64.5618 349.851C64.1383 350.096 64.1387 350.889 64.5626 351.624C64.9866 352.358 65.6736 352.755 66.097 352.51Z" fill="#757B89"/>
<path d="M70.0832 354.814C70.5067 354.57 70.5063 353.776 70.0823 353.042C69.6584 352.308 68.9714 351.91 68.5479 352.155C68.1244 352.399 68.1248 353.193 68.5488 353.927C68.9727 354.662 69.6597 355.059 70.0832 354.814Z" fill="#757B89"/>
<path d="M74.0693 357.11C74.4928 356.866 74.4924 356.072 74.0685 355.338C73.6445 354.603 72.9576 354.206 72.5341 354.451C72.1106 354.695 72.111 355.489 72.5349 356.223C72.9589 356.957 73.6458 357.355 74.0693 357.11Z" fill="#757B89"/>
<path d="M78.0525 359.417C78.476 359.172 78.4757 358.379 78.0517 357.644C77.6278 356.91 76.9408 356.513 76.5173 356.757C76.0938 357.002 76.0942 357.795 76.5181 358.53C76.9421 359.264 77.6291 359.661 78.0525 359.417Z" fill="#757B89"/>
<path d="M112.28 379.17C112.703 378.925 112.703 378.132 112.279 377.397C111.855 376.663 111.168 376.266 110.744 376.51C110.321 376.755 110.321 377.548 110.745 378.283C111.169 379.017 111.856 379.414 112.28 379.17Z" fill="#757B89"/>
<path d="M116.259 381.477C116.682 381.233 116.682 380.439 116.258 379.705C115.834 378.971 115.147 378.574 114.724 378.818C114.3 379.063 114.3 379.856 114.724 380.59C115.148 381.325 115.835 381.722 116.259 381.477Z" fill="#757B89"/>
<path d="M120.245 383.772C120.668 383.528 120.668 382.734 120.244 382C119.82 381.266 119.133 380.868 118.71 381.113C118.286 381.357 118.287 382.151 118.71 382.885C119.134 383.62 119.821 384.017 120.245 383.772Z" fill="#757B89"/>
<path d="M124.235 386.075C124.659 385.83 124.658 385.037 124.234 384.303C123.81 383.568 123.123 383.171 122.7 383.416C122.276 383.66 122.277 384.454 122.701 385.188C123.125 385.922 123.812 386.319 124.235 386.075Z" fill="#757B89"/>
<path d="M99.9139 372.793L88.9721 366.465C88.5881 366.193 88.2738 365.835 88.0549 365.418C87.8361 365.002 87.719 364.539 87.7131 364.069C87.7131 363.143 88.2736 362.72 88.9721 363.118L99.9139 369.446C100.298 369.718 100.612 370.077 100.831 370.493C101.05 370.91 101.167 371.372 101.173 371.843C101.132 372.769 100.572 373.191 99.9139 372.793Z" fill="#757B89"/>
<path d="M347.928 289.312L337.742 295.193C337.1 295.559 336.572 295.193 336.572 294.308C336.579 293.87 336.689 293.44 336.892 293.052C337.095 292.664 337.386 292.329 337.742 292.074L347.928 286.201C348.57 285.827 349.09 286.201 349.09 287.078C349.084 287.515 348.976 287.945 348.774 288.333C348.572 288.721 348.282 289.056 347.928 289.312Z" fill="#757B89"/>
<path d="M332.332 298.312L322.145 304.193C321.504 304.567 320.976 304.193 320.976 303.308C320.984 302.871 321.095 302.443 321.298 302.057C321.501 301.67 321.791 301.336 322.145 301.082L332.332 295.201C332.973 294.827 333.493 295.201 333.493 296.086C333.488 296.522 333.38 296.951 333.178 297.338C332.976 297.724 332.686 298.058 332.332 298.312Z" fill="#757B89"/>
<path d="M138.905 389.347L56.1061 341.543C49.0878 337.482 49.9732 330.423 58.0719 325.744L258.087 210.266C266.21 205.587 278.394 205.075 285.453 209.129L368.252 256.933C375.262 260.995 374.385 268.054 366.286 272.732L166.271 388.21C158.173 392.889 145.923 393.393 138.905 389.347Z" fill="#20232D"/>
<path d="M359.365 258.842L327.035 240.159L326.962 240.207C323.136 242.409 316.947 242.409 313.153 240.207C309.36 238.006 309.335 234.424 313.153 232.222L313.234 232.174L280.904 213.49C276.031 210.656 268.037 210.656 263.123 213.49L68.2989 325.995C63.425 328.83 63.425 333.428 68.2989 336.263L146.776 381.573C151.69 384.408 159.651 384.408 164.557 381.573L359.365 269.101C364.272 266.266 364.272 261.677 359.365 258.842Z" fill="white"/>
<path opacity="0.5" d="M359.365 269.102L164.557 381.574C160.122 384.133 153.185 384.384 148.263 382.305C147.755 382.092 147.261 381.848 146.784 381.574L68.2989 336.296C67.2103 335.7 66.2693 334.867 65.5451 333.859C63.6931 331.235 64.611 328.116 68.2989 325.988L263.099 213.523C268.013 210.697 275.966 210.697 280.88 213.523L313.21 232.207H313.129C309.311 234.408 309.311 237.982 313.129 240.192C316.947 242.401 323.144 242.393 326.938 240.192L327.019 240.143L359.349 258.826C364.272 261.677 364.272 266.267 359.365 269.102Z" fill="url(#paint0_linear)"/>
<path d="M317.921 239.599C319.972 239.599 321.634 238.638 321.634 237.454C321.634 236.27 319.972 235.31 317.921 235.31C315.871 235.31 314.209 236.27 314.209 237.454C314.209 238.638 315.871 239.599 317.921 239.599Z" fill="#2B303F"/>
<path opacity="0.1" d="M316.8 238.088C316.67 238.04 316.558 237.954 316.479 237.841C316.399 237.727 316.357 237.592 316.357 237.454C316.357 237.316 316.399 237.181 316.479 237.067C316.558 236.954 316.67 236.868 316.8 236.82C317.142 236.648 317.519 236.558 317.901 236.558C318.283 236.558 318.661 236.648 319.002 236.82C319.136 236.864 319.252 236.948 319.335 237.062C319.418 237.176 319.462 237.313 319.462 237.454C319.462 237.595 319.418 237.732 319.335 237.846C319.252 237.959 319.136 238.044 319.002 238.088C318.661 238.26 318.283 238.35 317.901 238.35C317.519 238.35 317.142 238.26 316.8 238.088Z" fill="white"/>
<path d="M331.227 252.912L329.822 252.1L332.169 250.743L333.575 251.555L331.227 252.912Z" fill="#E9EAF2"/>
<path d="M333.103 253.993L331.698 253.181L334.98 251.288L336.385 252.1L333.103 253.993Z" fill="#E9EAF2"/>
<path d="M334.98 255.073L333.575 254.261L338.262 251.556L339.667 252.368L334.98 255.073Z" fill="#E9EAF2"/>
<path d="M336.856 256.161L335.451 255.349L342.014 251.556L343.42 252.368L336.856 256.161Z" fill="#E9EAF2"/>
<path d="M342.949 259.679L340.763 258.412L345.142 255.886L347.327 257.153L342.949 259.679Z" fill="#E9EAF2"/>
<path d="M345.873 261.361L343.68 260.101L348.058 257.575L350.243 258.834L345.873 261.361Z" fill="#E9EAF2"/>
<path d="M348.789 263.042L346.596 261.783L350.974 259.257L353.159 260.516L348.789 263.042Z" fill="#E9EAF2"/>
<path d="M257.218 238.234L247.153 232.417C245.756 231.605 245.935 230.216 247.543 229.29L256.828 223.929C257.651 223.467 258.571 223.206 259.514 223.166C260.456 223.127 261.395 223.31 262.254 223.701L272.318 229.509C273.707 230.322 273.537 231.719 271.928 232.645L262.644 238.006C261.82 238.465 260.9 238.725 259.958 238.765C259.015 238.804 258.077 238.622 257.218 238.234Z" fill="#E9EAF2"/>
<path d="M325.679 277.761L266.778 243.758C265.389 242.945 265.568 241.548 267.168 240.622L276.461 235.261C277.283 234.801 278.202 234.541 279.143 234.501C280.084 234.462 281.021 234.644 281.879 235.033L340.78 269.037C342.169 269.849 341.998 271.246 340.39 272.172L331.105 277.533C330.281 277.991 329.361 278.25 328.419 278.289C327.477 278.328 326.539 278.148 325.679 277.761Z" fill="#E9EAF2"/>
<path d="M236.829 250.004L226.764 244.188C225.375 243.376 225.546 241.987 227.154 241.061L236.439 235.699C237.262 235.238 238.182 234.976 239.125 234.937C240.067 234.897 241.006 235.081 241.865 235.472L251.929 241.256C253.318 242.068 253.148 243.465 251.539 244.391L242.255 249.752C241.433 250.215 240.514 250.479 239.572 250.523C238.629 250.567 237.69 250.389 236.829 250.004Z" fill="#E9EAF2"/>
<path d="M305.29 289.531L246.398 255.528C245.009 254.716 245.179 253.319 246.787 252.393L256.072 247.031C256.896 246.572 257.816 246.312 258.758 246.273C259.701 246.233 260.639 246.415 261.498 246.804L320.391 280.807C321.78 281.62 321.609 283.017 320.001 283.943L310.716 289.304C309.892 289.761 308.972 290.02 308.03 290.06C307.088 290.099 306.15 289.918 305.29 289.531Z" fill="#E9EAF2"/>
<g opacity="0.6">
<path opacity="0.6" d="M216.448 261.775L206.375 255.958C204.986 255.146 205.157 253.757 206.765 252.831L216.058 247.47C216.879 247.008 217.798 246.747 218.74 246.707C219.681 246.668 220.619 246.851 221.476 247.242L231.549 253.05C232.938 253.863 232.759 255.26 231.159 256.186L221.866 261.563C221.042 262.021 220.123 262.278 219.182 262.315C218.241 262.351 217.304 262.166 216.448 261.775Z" fill="#E9EAF2"/>
<path opacity="0.6" d="M284.909 301.301L226.009 267.298C224.62 266.485 224.79 265.088 226.399 264.162L235.683 258.801C236.507 258.342 237.427 258.082 238.369 258.042C239.312 258.003 240.25 258.185 241.109 258.573L300.01 292.577C301.399 293.389 301.22 294.786 299.62 295.712L290.327 301.074C289.504 301.531 288.586 301.79 287.645 301.829C286.704 301.869 285.768 301.688 284.909 301.301Z" fill="#E9EAF2"/>
</g>
<path d="M196.059 273.545L186.019 267.729C184.63 266.916 184.808 265.527 186.409 264.601L195.701 259.232C196.524 258.773 197.443 258.515 198.384 258.477C199.325 258.439 200.262 258.622 201.119 259.013L211.2 264.812C212.589 265.625 212.419 267.022 210.81 267.948L201.453 273.317C200.633 273.773 199.719 274.031 198.783 274.071C197.846 274.11 196.913 273.93 196.059 273.545Z" fill="#E9EAF2"/>
<path d="M264.52 313.072L205.62 279.069C204.231 278.257 204.409 276.86 206.01 275.934L215.302 270.572C216.125 270.113 217.043 269.852 217.984 269.813C218.925 269.773 219.863 269.956 220.721 270.345L279.621 304.348C281.01 305.16 280.831 306.558 279.231 307.484L269.938 312.845C269.115 313.302 268.197 313.561 267.256 313.6C266.316 313.64 265.379 313.459 264.52 313.072Z" fill="#E9EAF2"/>
<path d="M175.67 285.315L165.605 279.499C164.216 278.687 164.387 277.298 165.995 276.372L175.28 271.003C176.104 270.544 177.025 270.285 177.967 270.247C178.909 270.209 179.848 270.393 180.706 270.783L190.771 276.591C192.16 277.404 191.989 278.801 190.381 279.727L181.096 285.12C180.27 285.575 179.348 285.829 178.406 285.863C177.464 285.896 176.527 285.709 175.67 285.315Z" fill="#E9EAF2"/>
<path d="M244.131 324.842L185.206 290.806C183.817 289.994 183.996 288.597 185.596 287.671L194.889 282.31C195.713 281.85 196.633 281.59 197.575 281.55C198.518 281.511 199.456 281.693 200.315 282.082L259.208 316.086C260.597 316.898 260.426 318.295 258.818 319.221L249.533 324.582C248.714 325.041 247.8 325.303 246.863 325.348C245.925 325.393 244.99 325.22 244.131 324.842Z" fill="#E9EAF2"/>
<g opacity="0.6">
<path opacity="0.6" d="M155.281 297.086L145.216 291.27C143.827 290.457 143.998 289.068 145.606 288.142L154.891 282.773C155.715 282.314 156.636 282.056 157.578 282.018C158.52 281.98 159.459 282.163 160.317 282.554L170.382 288.37C171.779 289.182 171.6 290.579 169.992 291.505L160.707 296.867C159.883 297.325 158.962 297.583 158.02 297.621C157.078 297.659 156.14 297.476 155.281 297.086Z" fill="#E9EAF2"/>
<path opacity="0.6" d="M223.742 336.612L164.85 302.609C163.461 301.797 163.631 300.4 165.24 299.474L174.525 294.112C175.348 293.653 176.268 293.393 177.211 293.354C178.153 293.314 179.091 293.496 179.951 293.885L238.819 327.888C240.208 328.701 240.037 330.098 238.429 331.024L229.144 336.385C228.323 336.838 227.407 337.095 226.47 337.135C225.533 337.174 224.599 336.995 223.742 336.612Z" fill="#E9EAF2"/>
</g>
<path d="M134.9 308.856L124.828 303.04C123.438 302.228 123.617 300.839 125.217 299.913L134.51 294.543C135.333 294.085 136.252 293.826 137.193 293.788C138.134 293.75 139.071 293.934 139.928 294.324L150.001 300.132C151.39 300.944 151.211 302.342 149.611 303.268L140.318 308.629C139.496 309.089 138.577 309.349 137.636 309.388C136.695 309.428 135.758 309.246 134.9 308.856Z" fill="#E9EAF2"/>
<path d="M203.361 348.383L144.461 314.363C143.072 313.551 143.243 312.154 144.851 311.228L154.136 305.866C154.959 305.407 155.879 305.147 156.822 305.108C157.764 305.068 158.702 305.25 159.562 305.639L218.462 339.642C219.851 340.454 219.673 341.852 218.072 342.778L208.763 348.155C207.942 348.61 207.027 348.867 206.089 348.907C205.152 348.946 204.218 348.767 203.361 348.383Z" fill="#E9EAF2"/>
<g opacity="0.6">
<path opacity="0.6" d="M114.536 320.626L104.463 314.81C103.074 313.997 103.253 312.608 104.853 311.682L114.146 306.313C114.97 305.854 115.89 305.596 116.833 305.558C117.775 305.52 118.713 305.703 119.572 306.094L129.612 311.926C131.001 312.738 130.83 314.136 129.222 315.062L119.929 320.423C119.108 320.875 118.193 321.129 117.256 321.164C116.32 321.199 115.388 321.015 114.536 320.626Z" fill="#E9EAF2"/>
<path opacity="0.6" d="M182.973 360.152L124.072 326.149C122.683 325.337 122.862 323.94 124.462 323.014L133.755 317.652C134.577 317.193 135.496 316.932 136.437 316.893C137.378 316.853 138.315 317.036 139.173 317.425L198.073 351.428C199.462 352.24 199.292 353.638 197.683 354.564L188.391 359.925C187.568 360.382 186.649 360.641 185.709 360.68C184.768 360.72 183.831 360.539 182.973 360.152Z" fill="#E9EAF2"/>
</g>
<g opacity="0.6">
<path opacity="0.6" d="M94.1222 332.397L84.0577 326.548C82.6687 325.736 82.8393 324.347 84.4476 323.421L93.7323 318.051C94.5565 317.593 95.4769 317.334 96.4193 317.296C97.3618 317.258 98.3 317.441 99.1585 317.832L109.223 323.64C110.612 324.452 110.442 325.849 108.833 326.776L99.5485 332.137C98.7272 332.601 97.8086 332.867 96.8662 332.912C95.9239 332.957 94.9841 332.78 94.1222 332.397Z" fill="#E9EAF2"/>
<path opacity="0.6" d="M162.584 371.924L103.691 337.92C102.294 337.108 102.473 335.719 104.073 334.793L113.366 329.432C114.189 328.972 115.109 328.712 116.052 328.672C116.994 328.633 117.933 328.815 118.792 329.204L177.684 363.208C179.074 364.02 178.903 365.417 177.295 366.343L168.01 371.704C167.185 372.16 166.265 372.418 165.323 372.456C164.381 372.494 163.443 372.312 162.584 371.924Z" fill="#E9EAF2"/>
</g>
<path d="M58.2181 150.326V190.454C58.2172 190.731 58.1678 191.006 58.0719 191.266C58.0196 191.432 57.9516 191.592 57.8688 191.745C57.6259 192.233 57.2554 192.646 56.7966 192.939L2.77807 224.132C2.62628 224.249 2.44302 224.317 2.25191 224.329C2.0608 224.341 1.8706 224.295 1.70582 224.197C1.61208 224.127 1.53681 224.035 1.4865 223.929C1.39555 223.736 1.35104 223.525 1.35653 223.312V183.184C1.35741 182.908 1.40126 182.634 1.4865 182.371C1.54499 182.199 1.61557 182.03 1.6977 181.868C1.94615 181.381 2.31889 180.969 2.77807 180.674L56.7804 149.465C56.9346 149.349 57.1203 149.282 57.313 149.273C57.5058 149.265 57.6967 149.314 57.8607 149.416C57.9502 149.487 58.0248 149.576 58.08 149.676C58.178 149.878 58.2253 150.101 58.2181 150.326Z" fill="#DF5F35"/>
<path d="M1.81146 224.23L3.89097 225.375L4.02094 221.688L1.81146 224.23Z" fill="#DF5F35"/>
<path d="M57.7145 149.367L59.9565 150.594L56.7966 154.379L57.7145 149.367Z" fill="#DF5F35"/>
<path d="M60.3139 151.479V191.607C60.3089 191.884 60.2595 192.158 60.1677 192.419C60.1119 192.584 60.044 192.744 59.9646 192.899C59.7217 193.386 59.3512 193.799 58.8924 194.093L4.87387 225.269C4.7204 225.383 4.53629 225.449 4.3452 225.458C4.15412 225.466 3.96481 225.418 3.80162 225.318C3.7099 225.249 3.63493 225.16 3.5823 225.058C3.48548 224.867 3.438 224.655 3.4442 224.44V184.312C3.44379 184.036 3.49049 183.761 3.5823 183.5C3.81428 182.814 4.26887 182.225 4.87387 181.827L58.8762 150.65C59.0292 150.536 59.2128 150.469 59.4037 150.459C59.5945 150.449 59.7841 150.496 59.9484 150.594C60.0421 150.664 60.1174 150.756 60.1677 150.862C60.2674 151.052 60.3176 151.264 60.3139 151.479Z" fill="#EB6438"/>
<path opacity="0.12" d="M3.67978 225.465L31.875 187.798L60.0215 192.769V196.749L3.44421 229.412L3.67978 225.465Z" fill="black"/>
<path opacity="0.05" d="M31.875 187.797L3.73662 183.151L1.14536 182.322L0 228.088L3.8016 225.318L31.875 187.797Z" fill="black"/>
<path opacity="0.05" d="M31.875 187.797L60.0215 150.651L62.6128 146.841L63.7581 191.274L60.0215 192.769L31.875 187.797Z" fill="black"/>
<path d="M405.058 50.5501V97.5341C405.051 97.8552 404.993 98.1732 404.887 98.4764C404.819 98.6674 404.74 98.8545 404.652 99.0368C404.367 99.6082 403.931 100.091 403.393 100.434L340.138 136.988C339.957 137.12 339.741 137.197 339.517 137.207C339.293 137.217 339.071 137.16 338.879 137.045C338.77 136.963 338.681 136.857 338.619 136.736C338.51 136.511 338.457 136.263 338.465 136.013V88.9886C338.469 88.6785 338.524 88.3711 338.627 88.0788C338.693 87.8778 338.775 87.6823 338.871 87.4939C339.157 86.9183 339.595 86.4322 340.138 86.0886L403.376 49.551C403.555 49.4152 403.771 49.3363 403.996 49.3247C404.22 49.3131 404.443 49.3693 404.635 49.486C404.747 49.5654 404.836 49.6716 404.895 49.7947C405.009 50.0298 405.065 50.2889 405.058 50.5501Z" fill="#DF5F35"/>
<path d="M339.001 137.086L341.438 138.426L341.592 134.104L339.001 137.086Z" fill="#DF5F35"/>
<path d="M404.465 49.4131L407.097 50.859L403.392 55.2861L404.465 49.4131Z" fill="#DF5F35"/>
<path d="M407.511 51.8982V98.8821C407.504 99.2033 407.446 99.5213 407.34 99.8244C407.272 100.015 407.194 100.203 407.105 100.385C406.815 100.953 406.381 101.435 405.846 101.782L342.591 138.336C342.411 138.47 342.195 138.546 341.97 138.556C341.746 138.567 341.524 138.51 341.332 138.393C341.221 138.313 341.132 138.207 341.072 138.084C340.964 137.859 340.911 137.611 340.918 137.361V90.3366C340.922 90.0265 340.977 89.7192 341.08 89.4269C341.143 89.2246 341.224 89.0287 341.324 88.842C341.61 88.2664 342.048 87.7803 342.591 87.4367L405.829 50.9234C406.01 50.7879 406.227 50.7094 406.453 50.6978C406.679 50.6862 406.903 50.7421 407.097 50.8585C407.206 50.9402 407.295 51.0458 407.357 51.1671C407.464 51.3955 407.517 51.6458 407.511 51.8982Z" fill="#EB6438"/>
<path opacity="0.12" d="M341.178 138.523L374.214 94.415L407.17 100.239V104.902L340.918 143.154L341.178 138.523Z" fill="black"/>
<path opacity="0.05" d="M374.214 94.415L341.259 88.9806L338.229 88.0059L336.881 141.602L341.332 138.361L374.214 94.415Z" fill="black"/>
<path opacity="0.05" d="M374.214 94.4148L407.17 50.9238L410.2 46.4561L411.54 98.4925L407.17 100.239L374.214 94.4148Z" fill="black"/>
<path d="M266.876 36.3753C266.782 36.1438 266.624 35.9437 266.421 35.7986C266.014 35.5863 265.575 35.4409 265.121 35.3681L196.522 15.6533L127.922 114.584C127.443 115.118 127.033 115.71 126.704 116.347C126.494 116.746 126.318 117.162 126.176 117.59C125.965 118.216 125.853 118.871 125.843 119.531V219.323C125.831 219.856 125.943 220.384 126.168 220.867C126.3 221.123 126.489 221.345 126.72 221.517C127.125 221.766 127.596 221.887 128.071 221.866C128.546 221.844 129.004 221.68 129.384 221.395L263.667 143.868C265.156 142.87 266.272 141.408 266.843 139.709C267.073 139.065 267.194 138.387 267.201 137.703V37.9106C267.213 37.3805 267.102 36.8549 266.876 36.3753Z" fill="#DF5F35"/>
<path d="M266.234 35.6846L270.45 38.1865L264.561 42.508L266.234 35.6846Z" fill="#78280E"/>
<path d="M131.034 224.076L126.72 221.476L133.373 216.684L131.034 224.076Z" fill="#DF5F35"/>
<path d="M196.522 15.6533L200.64 18.1309L270.45 38.1786L266.982 36.1235C265.642 35.5397 264.256 35.067 262.839 34.7101L196.522 15.6533Z" fill="#78280E"/>
<path d="M271.311 40.3884V140.14C271.3 140.821 271.179 141.496 270.954 142.138C270.814 142.546 270.643 142.943 270.442 143.324C269.839 144.538 268.918 145.566 267.778 146.297L133.511 223.824C133.13 224.112 132.672 224.279 132.195 224.302C131.718 224.325 131.245 224.204 130.839 223.954C130.609 223.779 130.423 223.554 130.294 223.296C130.066 222.817 129.954 222.291 129.969 221.761V122.001C129.979 121.341 130.092 120.686 130.302 120.06C130.446 119.632 130.622 119.217 130.83 118.817C131.438 117.596 132.368 116.565 133.519 115.836L267.753 38.3252L265.462 39.9011C266.535 39.2918 269.8 37.6997 270.45 38.1871C270.679 38.3621 270.865 38.5871 270.994 38.8451C271.222 39.3269 271.33 39.8561 271.311 40.3884Z" fill="#EB6438"/>
<path opacity="0.12" d="M130.839 223.954L200.64 130.66L270.613 143.023V152.917L129.961 234.116L130.839 223.954Z" fill="black"/>
<path opacity="0.05" d="M200.64 130.66L130.676 119.117L124.251 117.054L121.391 230.826L130.839 223.954L200.64 130.66Z" fill="black"/>
<path opacity="0.05" d="M200.494 130.53L270.458 38.2033L276.883 28.7236L279.743 139.189L270.458 142.894L200.494 130.53Z" fill="black"/>
<path d="M130.822 118.817L200.64 18.1309L270.45 38.1868L200.64 130.66L130.822 118.817Z" fill="#EB6438"/>
<path opacity="0.3" d="M270.45 38.1868L254.651 59.12L200.64 130.66L146.638 121.497L130.822 118.817L146.638 96.0069L185.548 39.8926L200.64 18.1309L215.733 22.4686L254.651 33.6541L270.45 38.1868Z" fill="black"/>
<path d="M254.651 0V59.1198L200.64 130.66L146.638 121.497V62.3609L254.651 0Z" fill="#FAFBFF"/>
<path d="M182.558 88.3389L155.906 103.724V72.9538L182.558 57.5605V88.3389Z" fill="#E9EAF2"/>
<path d="M213.97 70.1993L187.318 85.5925V54.8142L213.97 39.4209V70.1993Z" fill="#E9EAF2"/>
<path d="M245.382 52.0694L218.722 67.4626V36.6843L245.382 21.291V52.0694Z" fill="#E9EAF2"/>
<path d="M245.382 64.8466L155.906 116.501V111.148L245.382 59.4854V64.8466Z" fill="#E9EAF2"/>
<path d="M232.052 78.7207V84.0819L162.925 123.991L155.898 123.276V122.691L232.052 78.7207Z" fill="#E9EAF2"/>
<path d="M218.722 97.1357V102.497L177.969 126.021L169.553 125.526L218.722 97.1357Z" fill="#E9EAF2"/>
<path d="M211.712 112.725V115.998L208.918 119.694L192.322 129.279L185.101 128.093L211.712 112.725Z" fill="#E9EAF2"/>
</g>
<defs>
<linearGradient id="paint0_linear" x1="213.832" y1="383.702" x2="213.832" y2="211.403" gradientUnits="userSpaceOnUse">
<stop offset="0.21" stop-color="white" stop-opacity="0"/>
<stop offset="1" stop-color="white" stop-opacity="0.2"/>
</linearGradient>
<clipPath id="clip0">
<rect width="411.54" height="406" fill="white"/>
</clipPath>
</defs>
</svg>
