<svg xmlns="http://www.w3.org/2000/svg" xmlns:xlink="http://www.w3.org/1999/xlink" width="36.628" height="42.381" viewBox="0 0 36.628 42.381"><defs><style>.a{fill-rule:evenodd;}.a,.b{fill:url(#a);}</style><linearGradient id="a" x1="0.5" x2="0.5" y2="1" gradientUnits="objectBoundingBox"><stop offset="0" stop-color="#585a5e"/><stop offset="1" stop-color="#121213"/></linearGradient></defs><path class="a" d="M1258.886,1761.421h3.629a.994.994,0,0,1,.99.993v27.316h4.29v-13.74a.993.993,0,0,1,.99-.993h3.63a.994.994,0,0,1,.99.993v13.74h4.29v-17.88a.993.993,0,0,1,.99-.993h3.63a.994.994,0,0,1,.99.993v19.867H1248V1769.2a.993.993,0,0,1,.99-.993h3.63a.994.994,0,0,1,.99.993v20.529h4.29v-27.316a.993.993,0,0,1,.99-.993Z" transform="translate(-1247.336 -1749.336)"/><path class="b" d="M1249.645,1695.99l4.415-3.027a3.49,3.49,0,0,1,.85-3.52,3.471,3.471,0,0,1,5.208,4.563l5.977,8.2a3.456,3.456,0,0,1,3.849,1.078l3.769-1.576a3.537,3.537,0,0,1-.019-.367,3.471,3.471,0,1,1,1.015,2.458,3.51,3.51,0,0,1-.235-.261l-3.769,1.575a3.538,3.538,0,0,1,.019.367,3.465,3.465,0,1,1-6.223-2.1l-5.977-8.2a3.456,3.456,0,0,1-3.349-.577l-4.415,3.027a3.49,3.49,0,0,1-.85,3.52,3.476,3.476,0,1,1-.265-5.157Zm28.563,4.294a1.493,1.493,0,1,0,.435,1.054,1.478,1.478,0,0,0-.435-1.054Zm-9.9,4.139a1.494,1.494,0,1,0,.435,1.054,1.477,1.477,0,0,0-.435-1.054Zm-9.9-13.575a1.494,1.494,0,1,0,.435,1.054,1.477,1.477,0,0,0-.435-1.054Zm-9.9,6.787a1.494,1.494,0,1,0,.435,1.054,1.479,1.479,0,0,0-.435-1.054Z" transform="translate(-1243.996 -1688.425)"/></svg>