<svg id="Layer_1" data-name="Layer 1" xmlns="http://www.w3.org/2000/svg" xmlns:xlink="http://www.w3.org/1999/xlink" width="61.59" height="62.01" viewBox="0 0 61.59 62.01"><defs><style>.cls-1,.cls-2,.cls-3,.cls-4,.cls-5{fill-rule:evenodd;}.cls-1{fill:url(#linear-gradient);}.cls-2{fill:url(#linear-gradient-2);}.cls-3{fill:url(#linear-gradient-3);}.cls-4{fill:url(#linear-gradient-4);}.cls-5{fill:url(#linear-gradient-5);}</style><linearGradient id="linear-gradient" x1="7229.65" y1="-3208.76" x2="7209.8" y2="-3209.33" gradientTransform="translate(-7169.23 3230)" gradientUnits="userSpaceOnUse"><stop offset="0" stop-color="#cbac63"/><stop offset="1" stop-color="#aa8a5c"/></linearGradient><linearGradient id="linear-gradient-2" x1="7228.34" y1="-3176.61" x2="7189.75" y2="-3180.97" xlink:href="#linear-gradient"/><linearGradient id="linear-gradient-3" x1="7189.28" y1="-3188.69" x2="7169.43" y2="-3189.27" xlink:href="#linear-gradient"/><linearGradient id="linear-gradient-4" x1="7208.46" y1="-3217.24" x2="7169.87" y2="-3221.59" xlink:href="#linear-gradient"/><linearGradient id="linear-gradient-5" x1="7213.06" y1="-3198.25" x2="7185.89" y2="-3199.82" xlink:href="#linear-gradient"/></defs><path class="cls-1" d="M45.48,10.64a3.9,3.9,0,0,0,1.3.77,3.77,3.77,0,0,0,1.49.21,3.95,3.95,0,0,0,2.66-1.28,3.89,3.89,0,0,0,1-2.8,4,4,0,0,0-1.27-2.69,3.87,3.87,0,0,0-1.3-.76,4,4,0,0,0-1.49-.22,3.89,3.89,0,0,0-2.39,6.77ZM51.3,32.53,55,42l6.51-7.76-3.28-.53a27.1,27.1,0,0,0-4.81-20.42l.33-.35A7.77,7.77,0,0,0,53.18,2,7.69,7.69,0,0,0,44.69.76,7.6,7.6,0,0,0,42.3,2.58a7.71,7.71,0,0,0,.55,10.93,7.47,7.47,0,0,0,3.37,1.77A7.57,7.57,0,0,0,50,15.21a23.36,23.36,0,0,1,4.35,17.84Z" transform="translate(0.03 0)"/><path class="cls-2" d="M51,45.82a3.93,3.93,0,0,0-1,2.81,4,4,0,0,0,1.27,2.68,3.87,3.87,0,0,0,1.3.76,3.78,3.78,0,0,0,1.49.22,3.9,3.9,0,0,0,1.46-.38,4.07,4.07,0,0,0,1.2-.9,3.87,3.87,0,0,0-1.57-6.26,3.77,3.77,0,0,0-1.49-.21A3.95,3.95,0,0,0,51,45.82ZM29.25,51.68l-9.37,3.76L27.58,62l.53-3.3a26.63,26.63,0,0,0,20.27-4.85c.11.12.23.23.35.34a7.57,7.57,0,0,0,5.57,2,7.55,7.55,0,0,0,2.91-.75,7.72,7.72,0,0,0,2.39-1.81,7.76,7.76,0,0,0-3.18-12.48,7.64,7.64,0,0,0-3-.42,7.55,7.55,0,0,0-2.91.75,7.8,7.8,0,0,0-4.08,9.05,23,23,0,0,1-17.71,4.35l.52-3.2Z" transform="translate(0.03 0)"/><path class="cls-3" d="M16.06,51.36a3.9,3.9,0,0,0-1.3-.77,3.77,3.77,0,0,0-1.49-.21,3.95,3.95,0,0,0-2.66,1.28,3.86,3.86,0,0,0,1.57,6.25,4,4,0,0,0,1.49.22,3.89,3.89,0,0,0,2.39-6.77ZM10.24,29.47,6.51,20,0,27.79l3.28.53A27.1,27.1,0,0,0,8.09,48.74l-.33.35A7.77,7.77,0,0,0,8.36,60a7.7,7.7,0,0,0,2.58,1.54,7.47,7.47,0,0,0,3,.43,7.73,7.73,0,0,0,2.91-.75,7.6,7.6,0,0,0,2.39-1.82,7.71,7.71,0,0,0-.55-10.93,7.47,7.47,0,0,0-3.37-1.77,7.57,7.57,0,0,0-3.81.07A23.36,23.36,0,0,1,7.16,29l3.17.52Z" transform="translate(0.03 0)"/><path class="cls-4" d="M10.56,16.18a3.93,3.93,0,0,0,1-2.81A3.85,3.85,0,0,0,9,9.92,3.77,3.77,0,0,0,7.5,9.71a3.85,3.85,0,0,0-1.45.38,3.89,3.89,0,0,0-.94,6.39,3.9,3.9,0,0,0,1.3.77,4.17,4.17,0,0,0,1.49.21,3.89,3.89,0,0,0,2.66-1.28Zm21.73-5.86,9.37-3.76L34,0l-.53,3.3A26.63,26.63,0,0,0,13.16,8.15c-.11-.12-.22-.23-.34-.34a7.69,7.69,0,0,0-10.89.6A7.74,7.74,0,0,0,5.11,20.88a7.65,7.65,0,0,0,3,.43,7.5,7.5,0,0,0,2.9-.75,7.64,7.64,0,0,0,2.4-1.82,7.76,7.76,0,0,0,1.68-7.23A23,23,0,0,1,32.8,7.16l-.51,3.2Z" transform="translate(0.03 0)"/><path class="cls-5" d="M30.77,16.47a14.46,14.46,0,1,1-10.22,4.27A14.48,14.48,0,0,1,30.77,16.47ZM29.68,32.29C26.88,31.29,25,30,25,27.4a4.75,4.75,0,0,1,3.9-4.62.8.8,0,0,0,.36-.27.86.86,0,0,0,.12-.44v-.72a.77.77,0,0,1,.22-.5.73.73,0,0,1,.5-.23h1.2a.73.73,0,0,1,.5.23.77.77,0,0,1,.22.5v.48a.67.67,0,0,0,.18.46.68.68,0,0,0,.44.23,9,9,0,0,1,2.67.61.63.63,0,0,1,.35.33.69.69,0,0,1,0,.47l-.44,1.69a.75.75,0,0,1-.13.25.55.55,0,0,1-.22.18.64.64,0,0,1-.27.07.65.65,0,0,1-.27-.05,7.92,7.92,0,0,0-3.08-.62c-1.7,0-2.25.78-2.25,1.52s.92,1.45,3.18,2.27c3.11,1.13,4.36,2.6,4.36,5a4.85,4.85,0,0,1-1.17,3.15,4.92,4.92,0,0,1-2.93,1.66.7.7,0,0,0-.36.25.68.68,0,0,0-.11.42v.73a.73.73,0,0,1-.23.5.86.86,0,0,1-.5.23H30a.83.83,0,0,1-.49-.23.73.73,0,0,1-.23-.5V40a.64.64,0,0,0-.19-.45.67.67,0,0,0-.44-.2,11.45,11.45,0,0,1-3.36-.85.59.59,0,0,1-.33-.78l.45-1.8a.62.62,0,0,1,.12-.26.58.58,0,0,1,.23-.18.64.64,0,0,1,.27-.07.67.67,0,0,1,.28.06,8.8,8.8,0,0,0,3.64.82c1.52,0,2.54-.61,2.54-1.65s-.84-1.66-2.81-2.33Z" transform="translate(0.03 0)"/></svg>