<svg xmlns="http://www.w3.org/2000/svg" xmlns:xlink="http://www.w3.org/1999/xlink" width="64.955" height="40.438" viewBox="0 0 64.955 40.438"><defs><style>.a{stroke:rgba(0,0,0,0);stroke-miterlimit:10;fill:url(#a);}</style><linearGradient id="a" x1="0.5" x2="0.5" y2="1" gradientUnits="objectBoundingBox"><stop offset="0" stop-color="#585a5e"/><stop offset="1" stop-color="#121213"/></linearGradient></defs><g transform="translate(0.5 0.5)"><path class="a" d="M17.828,39.438a1.261,1.261,0,0,1-1.259-1.317c.106-2.334.312-4.964.656-7.325H.984a.951.951,0,0,1-.712-.3A.951.951,0,0,1,0,29.767c.163-3.583.624-8.058,1.627-10.076.973-1.969,3.7-2.2,5.653-2.958a52.475,52.475,0,0,0,2.988,9.156l1.084-5.94-.27-1.066.964-.638.964.638-.27,1.066,1.084,5.94a52.5,52.5,0,0,0,2.988-9.156c1.955.758,4.679.989,5.653,2.958a11.223,11.223,0,0,1,.8,2.564c.905-.27,1.816-.513,2.624-.827.839,3.346,2.274,8.63,3.826,11.725l1.389-7.607-.345-1.365L32,23.364l1.235.817-.345,1.365,1.389,7.607c1.552-3.095,2.987-8.379,3.826-11.725.8.309,1.7.55,2.59.817a11.2,11.2,0,0,1,.8-2.554c.973-1.969,3.7-2.2,5.653-2.958a52.475,52.475,0,0,0,2.988,9.156l1.084-5.94-.27-1.066.964-.638.964.638-.27,1.066,1.084,5.94a52.5,52.5,0,0,0,2.988-9.156c1.955.758,4.679.989,5.653,2.958,1,2.018,1.464,6.494,1.627,10.076A.985.985,0,0,1,62.97,30.8h-16.2c.345,2.361.55,4.991.656,7.325a1.261,1.261,0,0,1-1.259,1.317ZM26.74,15.732c-1.321-2.316-2.824-7.6-2.284-10.1A7.549,7.549,0,0,1,31.974,0,7.522,7.522,0,0,1,39.5,5.631c.385,1.78-1.6,8.045-2.605,10.774-.127,1.08-3.481,3.3-4.916,3.3C29.828,19.7,28.028,17.989,26.74,15.732Zm-.911-6.964c.118.714.274,1.4.41,1.925a19,19,0,0,0,1.641,4.39c.816,1.431,2.269,3.309,4.1,3.309A21.534,21.534,0,0,0,35.448,17.3c-.2,0-.185-.235.316-.9A52.831,52.831,0,0,0,38,9.973a5.418,5.418,0,0,0-.1-3c-1.57-1.484-4.327-.648-5.918-.648a8.87,8.87,0,0,1-1.38-.106,6.557,6.557,0,0,0,2.692,1.128c-3.053.483-5.007-.372-6.086-1.817A3.722,3.722,0,0,0,25.829,8.767Zm10.256,8.276c.074-.033.132-.062.171-.085a3.619,3.619,0,0,0,.344-.276A4.706,4.706,0,0,1,36.084,17.044Zm.791-.693c.048-.1.033-.146.013-.146S36.845,16.253,36.875,16.351ZM47.8,12.284C46.772,10.476,45.6,6.349,46.02,4.4a6.122,6.122,0,0,1,11.748,0c.3,1.39-1.25,6.282-2.034,8.413-.1.844-2.718,2.575-3.839,2.575C50.215,15.385,48.809,14.047,47.8,12.284Zm-.711-5.438c.092.558.214,1.093.32,1.5a14.838,14.838,0,0,0,1.282,3.428c.638,1.117,1.772,2.584,3.2,2.584a16.816,16.816,0,0,0,2.709-.849c-.155,0-.145-.183.247-.7A41.221,41.221,0,0,0,56.6,7.787a4.231,4.231,0,0,0-.082-2.342c-1.226-1.159-3.379-.506-4.621-.506a6.94,6.94,0,0,1-1.077-.082,5.121,5.121,0,0,0,2.1.881c-2.384.377-3.91-.291-4.752-1.419A2.907,2.907,0,0,0,47.092,6.846ZM55.1,13.309c.058-.026.1-.049.134-.066a2.83,2.83,0,0,0,.268-.215A3.675,3.675,0,0,1,55.1,13.309Zm.617-.541c.038-.076.026-.114.01-.114S55.694,12.692,55.718,12.768ZM7.943,12.284C6.911,10.476,5.738,6.349,6.16,4.4A5.9,5.9,0,0,1,12.03,0a5.874,5.874,0,0,1,5.877,4.4c.3,1.39-1.25,6.282-2.034,8.413-.1.844-2.718,2.575-3.839,2.575C10.355,15.385,8.949,14.047,7.943,12.284ZM7.232,6.846c.092.558.214,1.093.32,1.5a14.838,14.838,0,0,0,1.282,3.428c.638,1.117,1.772,2.584,3.2,2.584a16.816,16.816,0,0,0,2.709-.849c-.155,0-.145-.183.247-.7a41.22,41.22,0,0,0,1.747-5.023,4.231,4.231,0,0,0-.082-2.342c-1.226-1.159-3.379-.506-4.621-.506a6.94,6.94,0,0,1-1.077-.082,5.121,5.121,0,0,0,2.1.881c-2.384.377-3.91-.291-4.752-1.419A2.907,2.907,0,0,0,7.232,6.846Zm8.008,6.463c.058-.026.1-.049.134-.066a2.828,2.828,0,0,0,.268-.215A3.676,3.676,0,0,1,15.24,13.309Zm.617-.541c.038-.076.026-.114.01-.114S15.834,12.692,15.857,12.768Z" transform="translate(0 0)"/></g></svg>